<svg width="60" height="64" viewBox="0 0 60 64" fill="none" xmlns="http://www.w3.org/2000/svg">
<path d="M58 41.2999C57.5 43.3999 56.7 45.3999 55.7 47.2999C50.9 56.4999 41.2 62.8999 30 62.8999C14 62.8999 1 49.8999 1 33.8999C1 17.8999 14 4.8999 30 4.8999V33.8999" fill="#C4DCEB"/>
<path d="M1.1001 33.7998H27.0001" stroke="#004071" stroke-width="1.3" stroke-miterlimit="10" stroke-linecap="round"/>
<path d="M30.1001 30.2998V1.2998" stroke="#004071" stroke-width="1.3" stroke-miterlimit="10" stroke-linecap="round"/>
<path d="M30.1 36.9998C31.8121 36.9998 33.2 35.6119 33.2 33.8998C33.2 32.1877 31.8121 30.7998 30.1 30.7998C28.3879 30.7998 27 32.1877 27 33.8998C27 35.6119 28.3879 36.9998 30.1 36.9998Z" fill="#004071" stroke="#004071" stroke-width="1.3" stroke-miterlimit="10" stroke-linecap="round"/>
<path d="M21.4002 41.2999C19.7002 39.2999 18.7002 36.6999 18.7002 33.8999C18.7002 27.5999 23.8002 22.3999 30.2002 22.3999" stroke="#004071" stroke-width="1.3" stroke-miterlimit="10" stroke-linecap="round"/>
<path d="M29.9999 54.2997C18.5999 54.2997 9.3999 45.0997 9.3999 33.6997C9.3999 22.2997 18.6999 13.1997 29.9999 13.1997" stroke="#004071" stroke-width="1.3" stroke-miterlimit="10" stroke-linecap="round"/>
<path d="M59.1001 33.8999C59.1001 49.8999 46.1001 62.8999 30.1001 62.8999C14.1001 62.8999 1.1001 49.8999 1.1001 33.8999C1.1001 17.8999 14.1001 4.8999 30.1001 4.8999" stroke="#004071" stroke-width="1.3" stroke-miterlimit="10" stroke-linecap="round"/>
<path d="M41.5002 33.8999L41.6002 34.4999H41.8002C43.0002 34.2999 43.7002 34.5999 43.9002 35.5999C44.0002 35.8999 44.0002 36.0999 43.9002 36.2999C43.8002 36.4999 43.7002 36.6999 43.6002 36.8999C43.4002 37.0999 43.3002 37.1999 43.1002 37.2999C42.9002 37.3999 42.6002 37.4999 42.2002 37.4999L42.5002 38.7999L41.5002 38.9999L41.2002 37.6999C40.8002 37.7999 40.4002 37.7999 40.1002 37.7999C39.8002 37.7999 39.6002 37.6999 39.3002 37.4999C39.1002 37.2999 38.9002 36.9999 38.9002 36.6999C38.8002 36.3999 38.8002 36.0999 38.9002 35.7999C39.0002 35.4999 39.2002 35.2999 39.4002 35.1999C39.6002 34.9999 40.0002 34.8999 40.5002 34.7999L40.4002 34.1999L41.5002 33.8999ZM40.9002 35.5999H40.7002C40.4002 35.6999 40.2002 35.7999 40.1002 35.8999C40.0002 35.9999 40.0002 36.1999 40.0002 36.3999C40.0002 36.5999 40.2002 36.7999 40.3002 36.8999C40.5002 36.9999 40.7002 36.9999 40.9002 36.8999L41.2002 36.7999L40.9002 35.5999ZM41.8002 35.3999L42.1002 36.6999L42.4002 36.5999C42.7002 36.4999 42.9002 36.3999 43.0002 36.2999C43.1002 36.1999 43.1002 35.9999 43.1002 35.7999C43.1002 35.5999 43.0002 35.4999 42.8002 35.3999C42.7002 35.2999 42.4002 35.2999 42.1002 35.3999H41.8002Z" fill="#004071"/>
<path d="M46.6003 32.7001C47.3003 32.6001 48.0003 32.7001 48.6003 33.1001C49.2003 33.5001 49.6003 34.1001 49.7003 34.8001C49.8003 35.5001 49.7003 36.2001 49.3003 36.8001C48.9003 37.4001 48.3003 37.8001 47.6003 37.9001C46.9003 38.1001 46.2003 37.9001 45.6003 37.5001C45.0003 37.1001 44.6003 36.5001 44.5003 35.8001C44.4003 35.3001 44.4003 34.9001 44.6003 34.4001C44.7003 34.0001 45.0003 33.6001 45.4003 33.3001C45.7003 33.0001 46.1003 32.8001 46.6003 32.7001ZM46.8003 33.7001C46.3003 33.8001 46.0003 34.0001 45.7003 34.4001C45.5003 34.8001 45.4003 35.2001 45.5003 35.7001C45.6003 36.2001 45.9003 36.6001 46.4003 36.9001C46.8003 37.1001 47.1003 37.1001 47.5003 37.1001C48.0003 37.0001 48.3003 36.8001 48.6003 36.4001C48.9003 36.0001 48.9003 35.6001 48.8003 35.1001C48.7003 34.6001 48.5003 34.3001 48.1003 34.0001C47.7003 33.7001 47.2003 33.6001 46.8003 33.7001Z" fill="#004071"/>
<path d="M50.1001 32.2L53.7001 31.5L54.7001 36.4L53.7001 36.6L52.9001 32.6L51.2001 32.9L52.0001 36.9L51.0001 37.1L50.1001 32.2Z" fill="#004071"/>
<path d="M35.9999 16.1997L38.7999 16.5997L38.6999 17.4997L37.7999 17.3997L37.1999 21.4997L36.1999 21.3997L36.7999 17.2997L35.8999 17.1997L35.9999 16.1997Z" fill="#004071"/>
<path d="M41.8999 16.8999C42.5999 16.9999 43.1999 17.2999 43.5999 17.8999C43.9999 18.4999 44.1999 19.1999 44.0999 19.8999C43.9999 20.5999 43.6999 21.1999 43.0999 21.5999C42.4999 21.9999 41.8999 22.1999 41.0999 22.0999C40.2999 21.9999 39.6999 21.5999 39.2999 20.9999C38.8999 20.3999 38.6999 19.7999 38.7999 18.9999C38.8999 18.4999 38.9999 18.0999 39.2999 17.6999C39.5999 17.2999 39.9999 17.0999 40.3999 16.8999C40.8999 16.8999 41.3999 16.8999 41.8999 16.8999ZM41.6999 17.8999C41.1999 17.7999 40.7999 17.8999 40.3999 18.1999C39.9999 18.4999 39.7999 18.8999 39.6999 19.3999C39.5999 19.9999 39.7999 20.3999 40.0999 20.7999C40.3999 21.0999 40.6999 21.2999 41.0999 21.2999C41.5999 21.3999 41.9999 21.2999 42.2999 20.9999C42.6999 20.6999 42.8999 20.2999 42.9999 19.8999C43.0999 19.3999 42.9999 18.9999 42.6999 18.5999C42.5999 18.1999 42.1999 17.8999 41.6999 17.8999Z" fill="#004071"/>
<path d="M44.6997 22.5996L45.3997 17.5996L46.1997 17.6996C46.6997 17.7996 46.9997 17.7996 47.1997 17.8996C47.4997 17.9996 47.6997 18.1996 47.8997 18.3996C47.9997 18.5996 48.0997 18.8996 48.0997 19.1996C48.0997 19.3996 47.9997 19.5996 47.8997 19.6996C47.7997 19.7996 47.5997 19.9996 47.3997 20.0996C47.6997 20.2996 47.8997 20.4996 47.9997 20.6996C48.0997 20.8996 48.0997 21.1996 48.0997 21.4996C48.0997 21.7996 47.8997 21.9996 47.7997 22.1996C47.5997 22.3996 47.3997 22.5996 47.1997 22.5996C46.9997 22.5996 46.5997 22.6996 46.1997 22.5996H44.6997ZM46.1997 18.5996L45.9997 19.6996H46.1997C46.3997 19.6996 46.5997 19.6996 46.6997 19.5996C46.7997 19.4996 46.8997 19.3996 46.8997 19.1996C46.8997 18.9996 46.8997 18.8996 46.7997 18.7996C46.6997 18.6996 46.4997 18.5996 46.2997 18.5996H46.1997ZM45.9997 20.4996L45.7997 21.7996H45.9997C46.3997 21.8996 46.6997 21.7996 46.7997 21.7996C46.9997 21.6996 46.9997 21.5996 47.0997 21.3996C47.0997 21.1996 47.0997 20.9996 46.8997 20.8996C46.7997 20.7996 46.4997 20.5996 46.0997 20.5996L45.9997 20.4996Z" fill="#004071"/>
</svg>
