<svg width="61" height="61" viewBox="0 0 61 61" fill="none" xmlns="http://www.w3.org/2000/svg">
<path d="M9.4126 42.25V30.25H14.0126V50.45H9.4126V47.65" fill="#A3BAC9"/>
<path d="M9.4126 42.25V30.25H14.0126V50.45H9.4126V47.65" stroke="#004071" stroke-width="1.3" stroke-miterlimit="10" stroke-linecap="round"/>
<path d="M57.9129 59.7504H2.71289C2.11289 59.7504 1.71289 59.3504 1.71289 58.7504V57.1504C1.71289 56.5504 2.11289 56.1504 2.71289 56.1504H57.9129C58.5129 56.1504 58.9129 56.5504 58.9129 57.1504V58.7504C58.9129 59.3504 58.5129 59.7504 57.9129 59.7504Z" fill="#A3BAC9" stroke="#004071" stroke-width="1.3" stroke-miterlimit="10" stroke-linecap="round"/>
<path d="M34.513 56.1506H26.313C25.713 56.1506 25.313 55.7506 25.313 55.1506V53.8506C25.313 53.2506 25.713 52.8506 26.313 52.8506H34.513C35.113 52.8506 35.513 53.2506 35.513 53.8506V55.1506C35.513 55.7506 35.013 56.1506 34.513 56.1506Z" fill="#A3BAC9" stroke="#004071" stroke-width="1.3" stroke-miterlimit="10" stroke-linecap="round"/>
<path d="M34.513 27.7502H26.313C25.713 27.7502 25.313 27.3502 25.313 26.7502V25.4502C25.313 24.8502 25.713 24.4502 26.313 24.4502H34.513C35.113 24.4502 35.513 24.8502 35.513 25.4502V26.7502C35.513 27.3502 35.013 27.7502 34.513 27.7502Z" fill="#A3BAC9" stroke="#004071" stroke-width="1.3" stroke-miterlimit="10" stroke-linecap="round"/>
<path d="M33.5131 30.25H27.3131C26.8131 30.25 26.4131 29.85 26.4131 29.35V28.65C26.4131 28.15 26.8131 27.75 27.3131 27.75H33.5131C34.0131 27.75 34.4131 28.15 34.4131 28.65V29.35C34.4131 29.85 34.0131 30.25 33.5131 30.25Z" fill="#A3BAC9" stroke="#004071" stroke-width="1.3" stroke-miterlimit="10" stroke-linecap="round"/>
<path d="M33.5131 52.9502H27.3131C26.8131 52.9502 26.4131 52.5502 26.4131 52.0502V51.3502C26.4131 50.8502 26.8131 50.4502 27.3131 50.4502H33.5131C34.0131 50.4502 34.4131 50.8502 34.4131 51.3502V52.0502C34.4131 52.5502 34.0131 52.9502 33.5131 52.9502Z" fill="#A3BAC9" stroke="#004071" stroke-width="1.3" stroke-miterlimit="10" stroke-linecap="round"/>
<path d="M32.8128 30.25H28.1128V50.45H32.8128V30.25Z" fill="#A3BAC9" stroke="#004071" stroke-width="1.3" stroke-miterlimit="10" stroke-linecap="round"/>
<path d="M52.9129 56.1506H44.7129C44.1129 56.1506 43.7129 55.7506 43.7129 55.1506V53.8506C43.7129 53.2506 44.1129 52.8506 44.7129 52.8506H52.9129C53.5129 52.8506 53.9129 53.2506 53.9129 53.8506V55.1506C53.9129 55.7506 53.5129 56.1506 52.9129 56.1506Z" fill="#A3BAC9" stroke="#004071" stroke-width="1.3" stroke-miterlimit="10" stroke-linecap="round"/>
<path d="M52.9129 27.7502H44.7129C44.1129 27.7502 43.7129 27.3502 43.7129 26.7502V25.4502C43.7129 24.8502 44.1129 24.4502 44.7129 24.4502H52.9129C53.5129 24.4502 53.9129 24.8502 53.9129 25.4502V26.7502C53.9129 27.3502 53.5129 27.7502 52.9129 27.7502Z" fill="#A3BAC9" stroke="#004071" stroke-width="1.3" stroke-miterlimit="10" stroke-linecap="round"/>
<path d="M51.913 30.25H45.713C45.213 30.25 44.813 29.85 44.813 29.35V28.65C44.813 28.15 45.213 27.75 45.713 27.75H51.913C52.413 27.75 52.813 28.15 52.813 28.65V29.35C52.813 29.85 52.413 30.25 51.913 30.25Z" fill="#A3BAC9" stroke="#004071" stroke-width="1.3" stroke-miterlimit="10" stroke-linecap="round"/>
<path d="M51.913 52.9502H45.713C45.213 52.9502 44.813 52.5502 44.813 52.0502V51.3502C44.813 50.8502 45.213 50.4502 45.713 50.4502H51.913C52.413 50.4502 52.813 50.8502 52.813 51.3502V52.0502C52.813 52.5502 52.413 52.9502 51.913 52.9502Z" fill="#A3BAC9" stroke="#004071" stroke-width="1.3" stroke-miterlimit="10" stroke-linecap="round"/>
<path d="M51.2127 30.25H46.5127V50.45H51.2127V30.25Z" fill="#A3BAC9" stroke="#004071" stroke-width="1.3" stroke-miterlimit="10" stroke-linecap="round"/>
<path d="M15.8128 56.1496H7.61279C7.01279 56.1496 6.61279 55.7496 6.61279 55.1496V53.8496C6.61279 53.2496 7.01279 52.8496 7.61279 52.8496H15.8128C16.4128 52.8496 16.8128 53.2496 16.8128 53.8496V55.1496C16.8128 55.7496 16.3128 56.1496 15.8128 56.1496Z" fill="#A3BAC9" stroke="#004071" stroke-width="1.3" stroke-miterlimit="10" stroke-linecap="round"/>
<path d="M15.8128 27.7502H7.61279C7.01279 27.7502 6.61279 27.3502 6.61279 26.7502V25.4502C6.61279 24.8502 7.01279 24.4502 7.61279 24.4502H15.8128C16.4128 24.4502 16.8128 24.8502 16.8128 25.4502V26.7502C16.8128 27.3502 16.3128 27.7502 15.8128 27.7502Z" fill="#A3BAC9" stroke="#004071" stroke-width="1.3" stroke-miterlimit="10" stroke-linecap="round"/>
<path d="M14.8129 30.25H8.61289C8.11289 30.25 7.71289 29.85 7.71289 29.35V28.65C7.71289 28.15 8.11289 27.75 8.61289 27.75H14.8129C15.3129 27.75 15.7129 28.15 15.7129 28.65V29.35C15.7129 29.85 15.3129 30.25 14.8129 30.25Z" fill="#A3BAC9" stroke="#004071" stroke-width="1.3" stroke-miterlimit="10" stroke-linecap="round"/>
<path d="M14.8129 52.9502H8.61289C8.11289 52.9502 7.71289 52.5502 7.71289 52.0502V51.3502C7.71289 50.8502 8.11289 50.4502 8.61289 50.4502H14.8129C15.3129 50.4502 15.7129 50.8502 15.7129 51.3502V52.0502C15.7129 52.5502 15.3129 52.9502 14.8129 52.9502Z" fill="#A3BAC9" stroke="#004071" stroke-width="1.3" stroke-miterlimit="10" stroke-linecap="round"/>
<path d="M9.4126 45.4498V44.5498" stroke="#004071" stroke-width="1.3" stroke-miterlimit="10" stroke-linecap="round"/>
<path d="M53.9128 20.5498H6.61279V24.4498H53.9128V20.5498Z" fill="#A3BAC9" stroke="#004071" stroke-width="1.3" stroke-miterlimit="10" stroke-linecap="round"/>
<path d="M39.3128 6.45L59.8128 19.65C60.2128 19.95 60.0128 20.55 59.5128 20.55H1.51279C1.01279 20.55 0.812789 19.95 1.21279 19.65L29.9128 1.15C30.2128 0.95 30.7128 0.95 31.0128 1.15L34.8128 3.65L39.3128 6.45Z" fill="#A3BAC9" stroke="#004071" stroke-width="1.3" stroke-miterlimit="10" stroke-linecap="round"/>
<path d="M37.5126 9.2498L53.7126 19.7498C54.0126 19.9498 53.9126 20.4498 53.5126 20.4498H7.51262C7.11262 20.4498 7.01262 19.9498 7.31262 19.7498L30.0126 4.9498C30.3126 4.7498 30.6126 4.7498 30.9126 4.9498L33.9126 6.9498L37.5126 9.2498Z" stroke="#003E73" stroke-width="1.3" stroke-miterlimit="10" stroke-linecap="round"/>
<path d="M32.9126 10.8498C32.9126 11.4498 32.7126 11.6498 32.2126 11.6498C31.9126 11.6498 31.7126 11.5498 31.7126 11.2498C31.7126 11.1498 31.7126 11.0498 31.8126 10.9498C31.8126 10.6498 31.7126 10.4498 31.5126 10.3498C31.3126 10.1498 31.1126 10.1498 30.8126 10.1498C30.4126 10.1498 30.1126 10.2498 29.8126 10.5498C29.5126 10.8498 29.4126 11.0498 29.4126 11.3498C29.4126 11.5498 29.5126 11.6498 29.7126 11.8498C29.8126 11.9498 30.1126 12.0498 30.5126 12.2498C31.3126 12.6498 31.9126 12.9498 32.3126 13.3498C32.7126 13.7498 32.9126 14.2498 32.9126 14.8498C32.9126 15.3498 32.7126 15.8498 32.3126 16.2498C31.9126 16.6498 31.4126 16.9498 30.7126 17.0498C30.6126 17.4498 30.5126 17.8498 30.5126 18.3498C30.4126 18.6498 30.2126 18.7498 30.0126 18.7498C29.6126 18.7498 29.4126 18.5498 29.4126 18.2498C29.4126 18.0498 29.4126 17.6498 29.5126 17.1498C28.5126 16.9498 27.9126 16.4498 27.9126 15.6498C27.9126 15.3498 28.0126 15.1498 28.2126 14.9498C28.4126 14.7498 28.6126 14.6498 28.9126 14.6498C29.1126 14.6498 29.2126 14.6498 29.3126 14.7498C29.4126 14.8498 29.5126 14.9498 29.5126 15.1498C29.5126 15.2498 29.4126 15.3498 29.3126 15.4498C29.2126 15.5498 29.1126 15.6498 29.1126 15.7498C29.1126 15.8498 29.2126 16.0498 29.4126 16.1498C29.7126 16.2498 29.9126 16.3498 30.3126 16.3498C30.7126 16.3498 31.1126 16.2498 31.3126 15.9498C31.5126 15.6498 31.7126 15.4498 31.7126 15.1498C31.7126 14.6498 31.2126 14.1498 30.1126 13.6498C29.3126 13.2498 28.8126 13.0498 28.7126 12.9498C28.3126 12.6498 28.1126 12.3498 28.1126 11.8498C28.1126 11.4498 28.3126 10.9498 28.6126 10.5498C29.0126 10.1498 29.4126 9.8498 30.0126 9.6498C30.0126 9.0498 30.1126 8.6498 30.2126 8.4498C30.3126 8.1498 30.5126 8.0498 30.8126 8.0498C31.0126 8.0498 31.1126 8.0498 31.2126 8.2498C31.4126 7.9498 31.4126 8.1498 31.4126 8.2498C31.4126 8.3498 31.4126 8.4498 31.3126 8.6498C31.3126 8.8498 31.2126 9.0498 31.2126 9.1498C31.7126 9.2498 32.1126 9.4498 32.4126 9.7498C32.7126 10.0498 32.9126 10.4498 32.9126 10.8498Z" fill="#004071"/>
</svg>
