<svg width="59" height="52" viewBox="0 0 59 52" fill="none" xmlns="http://www.w3.org/2000/svg">
<path d="M26.7192 24.6192L8.21916 29.7192C7.71916 29.8192 7.11916 29.5192 7.01916 29.0192L1.01916 7.31916C0.91916 6.81916 1.21916 6.21916 1.71916 6.11916L20.3192 1.01916C20.8192 0.91916 21.3192 1.21916 21.5192 1.71916L27.5192 23.4192C27.6192 23.9192 27.3192 24.5192 26.7192 24.6192Z" fill="white" stroke="#004071" stroke-width="1.3" stroke-miterlimit="10" stroke-linecap="round"/>
<path d="M17.1191 5.21875L6.71914 8.11875C7.11914 9.61875 6.21914 11.2187 4.71914 11.6187H4.61914L10.1191 31.7188C10.2191 32.2188 10.7191 32.4187 11.2191 32.3187L25.5191 28.4188C26.0191 28.3188 26.2191 27.8187 26.1191 27.3187L20.6191 7.31875C19.1191 7.61875 17.5191 6.81875 17.1191 5.21875Z" fill="#A3BAC9" stroke="#004071" stroke-width="1.3" stroke-miterlimit="10" stroke-linecap="round"/>
<path d="M12.9191 12.5189C13.9133 12.5189 14.7191 11.7131 14.7191 10.7189C14.7191 9.72483 13.9133 8.91895 12.9191 8.91895C11.925 8.91895 11.1191 9.72483 11.1191 10.7189C11.1191 11.7131 11.925 12.5189 12.9191 12.5189Z" fill="white" stroke="#004071" stroke-width="1.3" stroke-miterlimit="10" stroke-linecap="round"/>
<path d="M15.8189 27.0187C19.0774 27.0187 21.7189 24.3772 21.7189 21.1187C21.7189 17.8603 19.0774 15.2188 15.8189 15.2188C12.5605 15.2188 9.91895 17.8603 9.91895 21.1187C9.91895 24.3772 12.5605 27.0187 15.8189 27.0187Z" fill="white" stroke="#004071" stroke-width="1.3" stroke-miterlimit="10" stroke-linecap="round"/>
<path d="M30.3191 25.6191H11.1191C10.5191 25.6191 10.1191 25.2191 10.1191 24.6191V2.11914C10.1191 1.51914 10.5191 1.11914 11.1191 1.11914H30.4191C31.0191 1.11914 31.4191 1.51914 31.4191 2.11914V24.6191C31.3191 25.2191 30.9191 25.6191 30.3191 25.6191Z" fill="white" stroke="#004071" stroke-width="1.3" stroke-miterlimit="10" stroke-linecap="round"/>
<path d="M26.119 4.41895H15.419C15.419 6.01895 14.119 7.21895 12.619 7.21895H12.519V28.0189C12.519 28.5189 12.919 28.9189 13.419 28.9189H28.219C28.719 28.9189 29.119 28.5189 29.119 28.0189V7.21895C27.419 7.21895 26.119 6.01895 26.119 4.41895Z" fill="#A3BAC9" stroke="#004071" stroke-width="1.3" stroke-miterlimit="10" stroke-linecap="round"/>
<path d="M20.7189 10.3188C21.7131 10.3188 22.5189 9.51286 22.5189 8.51875C22.5189 7.52464 21.7131 6.71875 20.7189 6.71875C19.7248 6.71875 18.9189 7.52464 18.9189 8.51875C18.9189 9.51286 19.7248 10.3188 20.7189 10.3188Z" fill="white" stroke="#004071" stroke-width="1.3" stroke-miterlimit="10" stroke-linecap="round"/>
<path d="M20.7193 25.2189C23.9778 25.2189 26.6193 22.5774 26.6193 19.3189C26.6193 16.0605 23.9778 13.4189 20.7193 13.4189C17.4609 13.4189 14.8193 16.0605 14.8193 19.3189C14.8193 22.5774 17.4609 25.2189 20.7193 25.2189Z" fill="white" stroke="#004071" stroke-width="1.3" stroke-miterlimit="10" stroke-linecap="round"/>
<path d="M27.5193 49.1195H4.31934C4.01934 49.1195 3.81934 48.9195 3.81934 48.6195V21.0195C3.81934 20.7195 4.01934 20.5195 4.31934 20.5195H27.5193C30.2193 20.5195 32.4193 22.7195 32.4193 25.4195V44.2195C32.5193 46.9195 30.3193 49.1195 27.5193 49.1195Z" fill="#A3BAC9" stroke="#004071" stroke-width="1.3" stroke-miterlimit="10" stroke-linecap="round"/>
<path d="M32.519 38.5191H25.219C23.219 38.5191 21.519 36.9191 21.519 34.8191C21.519 32.8191 23.119 31.1191 25.219 31.1191H32.519V38.5191Z" fill="#A3BAC9" stroke="#004071" stroke-width="1.3" stroke-miterlimit="10" stroke-linecap="round"/>
<path d="M25.4193 36.4188C26.303 36.4188 27.0193 35.7024 27.0193 34.8187C27.0193 33.9351 26.303 33.2188 25.4193 33.2188C24.5357 33.2188 23.8193 33.9351 23.8193 34.8187C23.8193 35.7024 24.5357 36.4188 25.4193 36.4188Z" fill="white" stroke="#004071" stroke-width="1.3" stroke-miterlimit="10" stroke-linecap="round"/>
<path d="M11.5192 30.9189C11.5192 31.0189 11.5192 31.2189 11.5192 31.3189V31.4189C11.5192 32.8189 11.2192 33.9189 10.5192 34.9189C9.91924 35.9189 9.11924 36.4189 8.21924 36.4189C7.61924 36.4189 7.11924 36.2189 6.71924 35.7189C6.31924 35.3189 6.21924 34.6189 6.21924 33.9189C6.21924 33.4189 6.31924 32.9189 6.51924 32.4189C6.71924 31.9189 7.01924 31.4189 7.41924 30.8189C7.81924 30.3189 8.21924 29.9189 8.61924 29.6189C9.01924 29.3189 9.41924 29.1189 9.61924 29.1189C9.81924 29.1189 9.91924 29.2189 10.1192 29.3189C10.3192 29.4189 10.3192 29.5189 10.3192 29.7189C10.3192 29.7189 10.2192 29.9189 9.91924 30.1189C9.61924 30.3189 9.31924 30.6189 9.11924 30.8189C8.61924 31.3189 8.31924 31.9189 8.01924 32.6189C7.71924 33.3189 7.61924 33.9189 7.61924 34.6189C7.61924 34.9189 7.71924 35.2189 7.81924 35.3189C7.91924 35.5189 8.11924 35.6189 8.31924 35.6189C8.71924 35.6189 9.11924 35.2189 9.51924 34.5189C9.91924 33.8189 10.0192 33.0189 10.0192 32.1189C10.0192 31.9189 10.0192 31.7189 10.0192 31.5189C10.0192 31.3189 10.0192 31.1189 10.0192 31.0189C10.0192 30.7189 10.1192 30.4189 10.4192 30.2189C10.7192 30.0189 10.9192 29.8189 11.1192 29.8189C11.2192 29.8189 11.2192 29.8189 11.4192 29.9189C11.8192 30.2189 12.3192 30.3189 13.0192 30.3189C13.6192 30.3189 14.1192 30.2189 14.7192 30.1189C15.3192 29.9189 15.8192 29.7189 16.3192 29.4189C16.5192 29.3189 16.6192 29.2189 16.8192 29.1189C17.0192 29.0189 17.1192 28.9189 17.1192 28.9189C17.2192 28.9189 17.4192 29.0189 17.5192 29.1189C17.7192 29.3189 17.7192 29.4189 17.7192 29.6189C17.7192 29.7189 17.4192 30.1189 16.7192 30.9189C16.1192 31.6189 15.5192 32.3189 15.0192 32.9189C13.7192 34.6189 12.4192 36.3189 11.2192 38.1189C10.2192 39.8189 9.61924 40.7189 9.51924 40.7189C9.41924 40.7189 9.21924 40.6189 9.01924 40.4189C8.81924 40.2189 8.71924 40.0189 8.71924 39.9189C8.71924 39.7189 9.41924 38.7189 10.7192 36.8189C12.1192 34.9189 13.7192 32.8189 15.6192 30.5189C15.1192 30.7189 14.7192 30.8189 14.2192 30.9189C13.8192 31.0189 13.3192 31.0189 12.9192 31.0189C12.7192 31.0189 12.5192 31.0189 12.2192 31.0189C11.9192 31.0189 11.8192 31.0189 11.5192 30.9189ZM17.5192 33.4189C17.7192 33.4189 17.9192 33.5189 18.0192 33.6189C18.1192 33.7189 18.2192 33.8189 18.2192 34.0189C18.2192 34.1189 18.1192 34.2189 17.8192 34.4189C17.5192 34.6189 17.3192 34.8189 17.0192 35.1189C16.5192 35.7189 16.1192 36.3189 15.8192 36.9189C15.5192 37.5189 15.5192 38.1189 15.5192 38.8189C15.5192 39.1189 15.6192 39.4189 15.7192 39.6189C15.8192 39.8189 16.0192 39.9189 16.2192 39.9189C16.6192 39.9189 17.0192 39.6189 17.4192 38.9189C17.8192 38.2189 17.9192 37.4189 17.9192 36.6189C17.9192 36.4189 17.9192 36.2189 17.9192 35.9189C17.9192 35.6189 17.9192 35.4189 17.9192 35.4189C17.9192 35.2189 18.0192 34.9189 18.2192 34.8189C18.4192 34.6189 18.6192 34.6189 18.9192 34.6189C19.1192 34.6189 19.3192 34.7189 19.3192 34.9189C19.4192 35.1189 19.4192 35.5189 19.4192 36.1189C19.4192 37.4189 19.1192 38.5189 18.4192 39.5189C17.7192 40.5189 17.0192 41.0189 16.1192 41.0189C15.5192 41.0189 15.0192 40.8189 14.6192 40.3189C14.2192 39.9189 14.1192 39.2189 14.1192 38.5189C14.1192 38.0189 14.2192 37.5189 14.4192 37.0189C14.6192 36.5189 14.9192 35.9189 15.3192 35.4189C15.7192 34.9189 16.1192 34.5189 16.5192 34.2189C16.9192 33.6189 17.3192 33.4189 17.5192 33.4189Z" fill="#004071"/>
<path d="M56.1189 47.6191H35.9189L44.2189 32.2191C44.6189 31.3191 44.6189 30.3191 44.2189 29.5191L36.9189 15.1191H55.2189L47.9189 29.5191C47.5189 30.4191 47.5189 31.4191 47.9189 32.2191L56.1189 47.6191Z" fill="white" stroke="#004071" stroke-width="1.3" stroke-miterlimit="10" stroke-linecap="round"/>
<path d="M56.619 50.4191H35.419C34.619 50.4191 34.019 49.8191 34.019 49.0191C34.019 48.2191 34.619 47.6191 35.419 47.6191H56.719C57.519 47.6191 58.119 48.2191 58.119 49.0191C58.119 49.8191 57.419 50.4191 56.619 50.4191Z" fill="white" stroke="#004071" stroke-width="1.3" stroke-miterlimit="10" stroke-linecap="round"/>
<path d="M56.619 15.7189H35.419C34.619 15.7189 34.019 15.1189 34.019 14.3189C34.019 13.5189 34.619 12.9189 35.419 12.9189H56.719C57.519 12.9189 58.119 13.5189 58.119 14.3189C58.119 15.1189 57.419 15.7189 56.619 15.7189Z" fill="white" stroke="#004071" stroke-width="1.3" stroke-miterlimit="10" stroke-linecap="round"/>
<path d="M46.019 37.4189V40.5189" stroke="#004071" stroke-width="1.3" stroke-miterlimit="10" stroke-linecap="round"/>
<path d="M46.019 34.9189V35.4189" stroke="#004071" stroke-width="1.3" stroke-miterlimit="10" stroke-linecap="round"/>
<path d="M46.019 24.6191V32.7191" stroke="#004071" stroke-width="1.3" stroke-miterlimit="10" stroke-linecap="round"/>
<path d="M43.019 21.1191H49.019L46.019 27.0191L43.019 21.1191Z" fill="#A3BAC9" stroke="#004071" stroke-width="1.3" stroke-miterlimit="10" stroke-linecap="round"/>
<path d="M52.019 45.2189H40.019L42.919 39.6189C43.119 39.2189 43.519 38.9189 43.919 38.9189H48.019C48.419 38.9189 48.819 39.2189 49.019 39.6189L52.019 45.2189Z" fill="#A3BAC9" stroke="#004071" stroke-width="1.3" stroke-miterlimit="10" stroke-linecap="round"/>
</svg>
