<svg width="55" height="59" viewBox="0 0 55 59" fill="none" xmlns="http://www.w3.org/2000/svg">
<path d="M3.2998 2.5V55.4H54.0998" fill="white"/>
<path d="M3.2998 3.2998V55.3998H53.3998" stroke="#004071" stroke-width="1.3" stroke-miterlimit="10" stroke-linecap="round"/>
<path d="M0.1 7.7C0.3 7.8 0.5 7.8 0.5 7.6L3.2 3.4L5.9 7.6C6 7.8 6.2 7.8 6.3 7.7C6.5 7.6 6.5 7.4 6.4 7.3L3.5 2.6C3.5 2.5 3.4 2.5 3.3 2.5C3.2 2.5 3 2.5 3 2.6L0.1 7.2C0.1 7.3 0 7.3 0 7.4C0 7.5 1.41561e-07 7.6 0.1 7.7Z" fill="#004071"/>
<path d="M48.9002 58.6002C48.8002 58.4002 48.8002 58.2002 49.0002 58.2002L53.2002 55.5002L49.0002 52.8002C48.8002 52.7002 48.8002 52.5002 48.9002 52.4002C49.0002 52.3002 49.2002 52.2002 49.3002 52.3002L53.9002 55.2002C54.0002 55.3002 54.1002 55.4002 54.1002 55.5002C54.1002 55.6002 54.0002 55.7002 53.9002 55.8002L49.3002 58.7002C49.2002 58.7002 49.2002 58.8002 49.1002 58.8002C49.1002 58.7002 49.0002 58.7002 48.9002 58.6002Z" fill="#004071"/>
<path d="M12.3001 51.1002H8.7001C8.4001 51.1002 8.1001 50.8002 8.1001 50.5002V39.3002C8.1001 39.0002 8.4001 38.7002 8.7001 38.7002H12.3001C12.6001 38.7002 12.9001 39.0002 12.9001 39.3002V50.5002C12.8001 50.8002 12.6001 51.1002 12.3001 51.1002Z" fill="#A3BAC9" stroke="#004071" stroke-width="1.3" stroke-miterlimit="10" stroke-linecap="round"/>
<path d="M21.2001 51.1002H17.8001C17.4001 51.1002 17.1001 50.8002 17.1001 50.4002V33.4002C17.1001 33.0002 17.4001 32.7002 17.8001 32.7002H21.2001C21.6001 32.7002 21.9001 33.0002 21.9001 33.4002V50.5002C21.9001 50.8002 21.6001 51.1002 21.2001 51.1002Z" fill="#A3BAC9" stroke="#004071" stroke-width="1.3" stroke-miterlimit="10" stroke-linecap="round"/>
<path d="M30.2002 51.1004H27.0002C26.6002 51.1004 26.2002 50.8004 26.2002 50.3004V28.2004C26.2002 27.8004 26.5002 27.4004 27.0002 27.4004H30.2002C30.6002 27.4004 31.0002 27.7004 31.0002 28.2004V50.3004C31.0002 50.8004 30.6002 51.1004 30.2002 51.1004Z" fill="#A3BAC9" stroke="#004071" stroke-width="1.3" stroke-miterlimit="10" stroke-linecap="round"/>
<path d="M39.1998 51.0998H36.1998C35.6998 51.0998 35.2998 50.6998 35.2998 50.1998V23.1998C35.2998 22.6998 35.6998 22.2998 36.1998 22.2998H39.1998C39.6998 22.2998 40.0998 22.6998 40.0998 23.1998V50.1998C39.9998 50.6998 39.5998 51.0998 39.1998 51.0998Z" fill="#A3BAC9" stroke="#004071" stroke-width="1.3" stroke-miterlimit="10" stroke-linecap="round"/>
<path d="M48.0998 51.1H45.1998C44.6998 51.1 44.2998 50.7 44.2998 50.2V18.4C44.2998 17.9 44.6998 17.5 45.1998 17.5H48.0998C48.5998 17.5 48.9998 17.9 48.9998 18.4V50.2C49.0998 50.7 48.6998 51.1 48.0998 51.1Z" fill="#A3BAC9" stroke="#004071" stroke-width="1.3" stroke-miterlimit="10" stroke-linecap="round"/>
<path d="M46.6998 2L48.4998 5.6L52.5998 6.2L49.5998 9.1L50.2998 13.1L46.6998 11.2L43.0998 13.1L43.7998 9.1L40.7998 6.2L44.8998 5.6L46.6998 2Z" stroke="#004071" stroke-width="1.3" stroke-miterlimit="10"/>
<path d="M10.4999 27.2998L11.5999 29.4998L13.9999 29.8998L12.1999 31.5998L12.6999 34.0998L10.4999 32.8998L8.1999 34.0998L8.6999 31.5998L6.8999 29.8998L9.2999 29.4998L10.4999 27.2998Z" stroke="#004071" stroke-width="1.3" stroke-miterlimit="10"/>
<path d="M28.6001 13.9004L30.1001 17.1004L33.6001 17.6004L31.1001 20.0004L31.7001 23.4004L28.6001 21.8004L25.5001 23.4004L26.1001 20.0004L23.6001 17.6004L27.0001 17.1004L28.6001 13.9004Z" stroke="#004071" stroke-width="1.3" stroke-miterlimit="10"/>
</svg>
