<svg width="64" height="64" viewBox="0 0 64 64" fill="none" xmlns="http://www.w3.org/2000/svg">
<path d="M47.8998 43.5L62.2998 57.9C63.4998 59.1 63.4998 61.1 62.2998 62.3C61.0998 63.5 59.0998 63.5 57.8998 62.3L47.7998 52.1L45.9998 50.4L45.1998 49.6L43.2998 47.4" fill="#C4DCEB"/>
<path d="M20.8996 18.3998C25.7597 18.3998 29.6996 14.4599 29.6996 9.5998C29.6996 4.7397 25.7597 0.799805 20.8996 0.799805C16.0395 0.799805 12.0996 4.7397 12.0996 9.5998C12.0996 14.4599 16.0395 18.3998 20.8996 18.3998Z" stroke="#004071" stroke-width="1.3" stroke-miterlimit="10" stroke-linecap="round"/>
<path d="M3.9998 30.4C5.76712 30.4 7.1998 28.9673 7.1998 27.2C7.1998 25.4327 5.76712 24 3.9998 24C2.23249 24 0.799805 25.4327 0.799805 27.2C0.799805 28.9673 2.23249 30.4 3.9998 30.4Z" stroke="#004071" stroke-width="1.3" stroke-miterlimit="10" stroke-linecap="round"/>
<path d="M48.9999 18.7C51.8166 18.7 54.0999 16.4167 54.0999 13.6C54.0999 10.7833 51.8166 8.5 48.9999 8.5C46.1832 8.5 43.8999 10.7833 43.8999 13.6C43.8999 16.4167 46.1832 18.7 48.9999 18.7Z" stroke="#004071" stroke-width="1.3" stroke-miterlimit="10" stroke-linecap="round"/>
<path d="M35.6999 37.7997C37.7986 37.7997 39.4999 36.0984 39.4999 33.9997C39.4999 31.901 37.7986 30.1997 35.6999 30.1997C33.6012 30.1997 31.8999 31.901 31.8999 33.9997C31.8999 36.0984 33.6012 37.7997 35.6999 37.7997Z" fill="#004071" stroke="#004071" stroke-width="1.1796" stroke-miterlimit="10" stroke-linecap="round"/>
<path d="M29.4 43.5999C28.8 41.8999 31.5 37.8999 35.8 37.8999C39.9 37.8999 42.7 41.5999 42.1 43.3999C41.2 46.0999 30.4 46.2999 29.4 43.5999Z" fill="#004071" stroke="#004071" stroke-width="1.1796" stroke-miterlimit="10" stroke-linecap="round"/>
<path d="M19.0781 5.41304V4.95652C19.0781 4.68261 19.2607 4.5 19.5346 4.5H22.2738C22.5477 4.5 22.8216 4.68261 22.8216 4.95652V5.41304" stroke="#004071" stroke-width="0.6726" stroke-miterlimit="10" stroke-linecap="round"/>
<path d="M26.1997 9.88704L22.091 10.5262C21.2693 10.6175 20.4475 10.6175 19.7171 10.5262L15.6997 9.88704C15.5171 9.88704 15.4258 9.79574 15.4258 9.61313V7.33052C15.4258 6.78269 15.9736 6.32617 16.6127 6.32617H25.2867C25.9258 6.32617 26.4736 6.78269 26.4736 7.33052V9.61313C26.4736 9.79574 26.3823 9.88704 26.1997 9.88704Z" fill="#004071" stroke="#004071" stroke-width="0.2724" stroke-miterlimit="10" stroke-linecap="round"/>
<path d="M25.9257 10.7998L21.817 11.5302C21.7257 11.5302 21.4518 11.5302 21.4518 11.6215V13.1737H20.5387V11.6215C20.5387 11.6215 20.0822 11.6215 19.9909 11.5302L16.1561 10.7998C15.9735 10.7998 16.0648 10.8911 16.0648 11.0737V13.4476C16.0648 14.0868 15.9735 14.9998 16.7039 14.9998H25.3779C26.017 14.9998 26.1083 13.9955 26.1083 13.4476V11.0737C26.017 10.9824 26.1083 10.7998 25.9257 10.7998Z" fill="#004071" stroke="#004071" stroke-miterlimit="10" stroke-linecap="round"/>
<path d="M18.6997 60.8999C22.5657 60.8999 25.6997 57.7659 25.6997 53.8999C25.6997 50.0339 22.5657 46.8999 18.6997 46.8999C14.8337 46.8999 11.6997 50.0339 11.6997 53.8999C11.6997 57.7659 14.8337 60.8999 18.6997 60.8999Z" stroke="#004071" stroke-width="1.3" stroke-miterlimit="10" stroke-linecap="round"/>
<path d="M18.6998 55.5998C20.0253 55.5998 21.0998 54.5253 21.0998 53.1998C21.0998 51.8743 20.0253 50.7998 18.6998 50.7998C17.3743 50.7998 16.2998 51.8743 16.2998 53.1998C16.2998 54.5253 17.3743 55.5998 18.6998 55.5998Z" fill="#004071" stroke="#004071" stroke-width="0.7477" stroke-miterlimit="10" stroke-linecap="round"/>
<path d="M14.5996 59.2997C14.1996 58.1997 15.8996 55.6997 18.5996 55.6997C21.1996 55.6997 22.9996 58.0997 22.5996 59.1997C22.0996 60.8997 15.2996 60.9997 14.5996 59.2997Z" fill="#004071" stroke="#004071" stroke-width="0.7477" stroke-miterlimit="10" stroke-linecap="round"/>
<path d="M24.5996 17.5L28.1996 22.8" stroke="#004071" stroke-width="1.3" stroke-miterlimit="10" stroke-linecap="round"/>
<path d="M46.1998 17.8999L43.2998 22.6999" stroke="#004071" stroke-width="1.3" stroke-miterlimit="10" stroke-linecap="round"/>
<path d="M7.19971 27.7998L21.7997 32.0998" stroke="#004071" stroke-width="1.3" stroke-miterlimit="10" stroke-linecap="round"/>
<path d="M23.6997 48.6L25.5997 46" stroke="#004071" stroke-width="1.3" stroke-miterlimit="10" stroke-linecap="round"/>
<path d="M47.7997 43.2998L62.1997 57.6998C63.3997 58.8998 63.3997 60.8998 62.1997 62.0998C60.9997 63.2998 58.9997 63.2998 57.7997 62.0998L47.6997 51.8998" stroke="#004071" stroke-width="1.3" stroke-miterlimit="10" stroke-linecap="round"/>
<path d="M45.9997 50.0998L45.1997 49.2998" stroke="#004071" stroke-width="1.3" stroke-miterlimit="10" stroke-linecap="round"/>
<path d="M35.6999 21.1997C27.7999 21.1997 21.3999 27.5997 21.3999 35.4997C21.3999 43.3997 27.7999 49.7997 35.6999 49.7997C43.5999 49.7997 49.9999 43.3997 49.9999 35.4997C49.9999 27.5997 43.5999 21.1997 35.6999 21.1997ZM35.6999 45.8997C29.8999 45.8997 25.1999 41.1997 25.1999 35.3997C25.1999 29.5997 29.8999 24.9997 35.6999 24.9997C41.4999 24.9997 46.1999 29.6997 46.1999 35.4997C46.1999 41.2997 41.3999 45.8997 35.6999 45.8997Z" fill="#C4DCEB" stroke="#004071" stroke-width="1.3" stroke-miterlimit="10" stroke-linecap="round"/>
</svg>
