<svg width="64" height="48" viewBox="0 0 64 48" fill="none" xmlns="http://www.w3.org/2000/svg">
<path d="M54 24.7H51.7C51.3 21.9 50.3 19.5 48.7 17.4L50.4 15.7C50.7 15.4 50.7 14.9 50.4 14.6L48.3 12.5C48 12.2 47.5 12.2 47.2 12.5L45.6 14.2C43.5 12.6 41 11.5 38.2 11.1V8.7C38.2 8.3 37.8 8 37.3 8H34.4C34 8 33.7 8.3 33.7 8.7V11.1C30.9 11.5 28.5 12.5 26.4 14.1L24.8 12.5C24.5 12.2 24 12.2 23.7 12.5L21.6 14.6C21.3 14.9 21.3 15.4 21.6 15.7L23.2 17.4C21.6 19.5 20.5 22 20.1 24.8H17.7C17.3 24.8 17 25.1 17 25.5V28.4C17 28.8 17.3 29.3 17.7 29.3H20.1C20.5 32.1 21.6 34.5 23.2 36.6L21.6 38.2C21.3 38.5 21.3 39 21.6 39.3L23.7 41.4C24 41.7 24.5 41.7 24.8 41.4L26.5 39.8C28.6 41.4 31 42.4 33.8 42.8V45C33.8 45.4 34.1 45.7 34.5 45.7H37.4C37.8 45.7 38.3 45.4 38.3 45V42.7C41.1 42.3 43.5 41.2 45.7 39.6L47.4 41.3C47.7 41.6 48.2 41.6 48.5 41.3L50.6 39.2C50.9 38.9 50.9 38.4 50.6 38.1L48.9 36.4C50.5 34.3 51.5 31.7 51.9 29.1H54C54.4 29.1 54.7 28.7 54.7 28.2V25.3C54.7 25 54.5 24.7 54 24.7ZM40.7 35.8C40.2 36.1 39.6 36.3 39 36.5C38 36.8 36.9 37 35.8 37C30.2 37 25.6 32.4 25.6 26.8C25.6 21.2 30.2 16.6 35.8 16.6C41.4 16.6 46 21.2 46 26.8C46 28.7 45.5 30.6 44.5 32.1C44.3 32.5 44 32.8 43.8 33.1M42.7 34.4C42.4 34.6 42.5 34.6 42.2 34.8L42.7 34.4Z" fill="#C4DCEB"/>
<path d="M40.2999 36.0999C39.7999 36.3999 39.5999 36.3999 38.9999 36.5999C37.9999 36.8999 36.8999 37.0999 35.7999 37.0999C30.1999 37.0999 25.5999 32.4999 25.5999 26.8999C25.5999 21.2999 30.1999 16.6999 35.7999 16.6999C41.3999 16.6999 45.9999 21.2999 45.9999 26.8999C45.9999 28.7999 45.4999 30.6999 44.4999 32.1999C44.2999 32.5999 44.2999 32.5999 43.9999 32.8999M42.6999 34.3999C42.3999 34.5999 42.4999 34.5999 42.1999 34.7999M53.9999 24.4999H51.6999C51.2999 21.4999 50.2999 19.3999 48.6999 17.2999L50.3999 15.5999C50.6999 15.2999 50.6999 14.7999 50.3999 14.4999L48.2999 12.3999C47.9999 12.0999 47.4999 12.0999 47.1999 12.3999L45.6999 14.0999C43.5999 12.4999 41.4999 11.3999 38.4999 10.9999V8.5999C38.4999 8.1999 37.7999 7.3999 37.3999 7.3999H34.4999C34.0999 7.3999 33.5999 8.1999 33.5999 8.5999V10.9999C30.5999 11.3999 28.4999 12.3999 26.3999 13.9999L24.7999 12.3999C24.4999 12.0999 23.9999 12.0999 23.6999 12.3999L21.5999 14.4999C21.2999 14.7999 21.2999 15.2999 21.5999 15.5999L23.1999 17.1999C21.5999 19.2999 20.4999 21.4999 20.0999 24.4999H17.6999C17.2999 24.4999 16.3999 24.9999 16.3999 25.3999V28.2999C16.3999 28.6999 17.1999 29.4999 17.6999 29.4999H20.0999C20.4999 32.4999 21.5999 34.5999 23.1999 36.6999L21.5999 38.1999C21.2999 38.4999 21.2999 38.9999 21.5999 39.2999L23.6999 41.3999C23.9999 41.6999 24.4999 41.6999 24.7999 41.3999L26.3999 39.7999C28.4999 41.3999 30.5999 42.3999 33.5999 42.7999V44.9999C33.5999 45.3999 34.0999 46.4999 34.4999 46.4999H37.3999C37.7999 46.4999 38.4999 45.3999 38.4999 44.9999V42.6999C41.4999 42.2999 43.5999 41.1999 45.6999 39.5999L47.2999 41.2999C47.5999 41.5999 48.0999 41.5999 48.3999 41.2999L50.4999 39.1999C50.7999 38.8999 50.7999 38.3999 50.4999 38.0999L48.7999 36.5999C50.3999 34.4999 51.3999 31.4999 51.7999 29.4999H53.9999C54.3999 29.4999 55.3999 28.7999 55.3999 28.2999V25.3999C55.4999 24.9999 54.4999 24.4999 53.9999 24.4999Z" stroke="#004071" stroke-width="1.3" stroke-miterlimit="10" stroke-linecap="round"/>
<path d="M48.2998 8.5C50.2328 8.5 51.7998 6.933 51.7998 5C51.7998 3.067 50.2328 1.5 48.2998 1.5C46.3668 1.5 44.7998 3.067 44.7998 5C44.7998 6.933 46.3668 8.5 48.2998 8.5Z" stroke="#004071" stroke-width="1.3" stroke-miterlimit="10" stroke-linecap="round"/>
<path d="M46.3998 8.2002L43.7998 12.5002" stroke="#004071" stroke-width="1.3" stroke-miterlimit="10" stroke-linecap="round"/>
<path d="M59.5 41.3999C61.433 41.3999 63 39.8329 63 37.8999C63 35.9669 61.433 34.3999 59.5 34.3999C57.567 34.3999 56 35.9669 56 37.8999C56 39.8329 57.567 41.3999 59.5 41.3999Z" stroke="#004071" stroke-width="1.3" stroke-miterlimit="10" stroke-linecap="round"/>
<path d="M55.9997 36.1999L50.6997 33.8999" stroke="#004071" stroke-width="1.3" stroke-miterlimit="10" stroke-linecap="round"/>
<path d="M3.7999 22.0998C5.40153 22.0998 6.6999 20.8014 6.6999 19.1998C6.6999 17.5982 5.40153 16.2998 3.7999 16.2998C2.19828 16.2998 0.899902 17.5982 0.899902 19.1998C0.899902 20.8014 2.19828 22.0998 3.7999 22.0998Z" stroke="#004071" stroke-width="1.3" stroke-miterlimit="10" stroke-linecap="round"/>
<path d="M6.69971 20.2998L19.8997 24.0998" stroke="#004071" stroke-width="1.3" stroke-miterlimit="10" stroke-linecap="round"/>
<path d="M30.9151 22.9927H32.3581L35.1538 30.2074H33.7108L33.1697 28.7645H30.2839L29.7428 30.2074H28.2998L30.9151 22.9927ZM31.6366 24.8865L30.6446 27.3215H32.5385L31.6366 24.8865Z" fill="#004071"/>
<path d="M36.146 22.9927H37.5889C38.4006 22.9927 38.9417 23.0829 39.3024 23.173C39.6632 23.3534 39.9337 23.5338 40.1141 23.8945C40.2945 24.2553 40.3846 24.616 40.3846 25.0669C40.3846 25.608 40.2945 25.9687 40.0239 26.3295C39.7534 26.6902 39.3926 26.8706 38.9417 27.051C38.6711 27.1411 38.2202 27.1411 37.4988 27.1411V30.2074H36.146V22.9927ZM37.4988 25.7884H37.9497C38.3104 25.7884 38.4908 25.7884 38.6711 25.6982C38.7613 25.608 38.9417 25.608 38.9417 25.4276C39.0319 25.3375 39.0319 25.1571 39.0319 24.9767C39.0319 24.7062 38.9417 24.5258 38.6711 24.3454C38.4908 24.2553 38.2202 24.1651 37.7693 24.1651H37.4086V25.7884H37.4988Z" fill="#004071"/>
<path d="M41.647 22.9927H42.9997V30.2074H41.647V22.9927Z" fill="#004071"/>
<path d="M12.6997 39.2998C14.6327 39.2998 16.1997 37.7328 16.1997 35.7998C16.1997 33.8668 14.6327 32.2998 12.6997 32.2998C10.7667 32.2998 9.19971 33.8668 9.19971 35.7998C9.19971 37.7328 10.7667 39.2998 12.6997 39.2998Z" stroke="#004071" stroke-width="1.3" stroke-miterlimit="10" stroke-linecap="round"/>
<path d="M15.6997 33.7002L19.7997 30.7002" stroke="#004071" stroke-width="1.3" stroke-miterlimit="10" stroke-linecap="round"/>
</svg>
