<svg width="64" height="54" viewBox="0 0 64 54" fill="none" xmlns="http://www.w3.org/2000/svg">
<path d="M39.0998 41.1003H24.8998C24.4998 41.1003 24.2998 40.3003 24.4998 39.6003L27.0998 29.3003H36.8998L39.4998 39.6003C39.6998 40.3003 39.4998 41.1003 39.0998 41.1003Z" fill="white" stroke="#004071" stroke-width="1.3" stroke-miterlimit="10" stroke-linecap="round"/>
<path d="M60.9 32.8002H3.1C2.2 32.8002 1.5 32.1002 1.5 31.2002V9.8002C1.5 8.9002 2.2 8.2002 3.1 8.2002H60.8C61.7 8.2002 62.4 8.9002 62.4 9.8002V31.2002C62.4 32.1002 61.7 32.8002 60.9 32.8002Z" fill="#A3BAC9" stroke="#004071" stroke-width="1.3" stroke-miterlimit="10" stroke-linecap="round"/>
<path d="M60.7001 30.3001H3.3001C2.4001 30.3001 1.6001 29.5001 1.6001 28.6001V2.8001C1.6001 1.9001 2.4001 1.1001 3.3001 1.1001H60.8001C61.7001 1.1001 62.5001 1.9001 62.5001 2.8001V28.6001C62.4001 29.6001 61.7001 30.3001 60.7001 30.3001Z" fill="white" stroke="#004071" stroke-width="1.3" stroke-miterlimit="10" stroke-linecap="round"/>
<path d="M44.9001 43.1001H19.7001C19.4001 43.1001 19.1001 42.8001 19.1001 42.5001V41.7001C19.1001 41.4001 19.4001 41.1001 19.7001 41.1001H45.0001C45.3001 41.1001 45.6001 41.4001 45.6001 41.7001V42.5001C45.5001 42.9001 45.3001 43.1001 44.9001 43.1001Z" fill="white" stroke="#004071" stroke-width="1.3" stroke-miterlimit="10" stroke-linecap="round"/>
<path d="M8.3998 14.8999H5.7998V27.2999H8.3998V14.8999Z" fill="#A3BAC9"/>
<path d="M10.8998 8.3999H8.2998V27.2999H10.8998V8.3999Z" fill="#004071"/>
<path d="M15.7001 16.1001H13.1001V27.2001H15.7001V16.1001Z" fill="#A3BAC9"/>
<path d="M18.3002 10.3003H15.7002V27.3003H18.3002V10.3003Z" fill="#004071"/>
<path d="M23.7001 12.8003H21.1001V27.2003H23.7001V12.8003Z" fill="#A3BAC9"/>
<path d="M26.3002 5.30029H23.7002V27.3003H26.3002V5.30029Z" fill="#004071"/>
<path d="M30.8998 17.8003H28.2998V27.3003H30.8998V17.8003Z" fill="#A3BAC9"/>
<path d="M33.3998 12.8003H30.7998V27.2003H33.3998V12.8003Z" fill="#004071"/>
<path d="M56.2001 16.8999H53.6001V26.3999H56.2001V16.8999Z" fill="#A3BAC9"/>
<path d="M58.8002 11.8999H56.2002V26.2999H58.8002V11.8999Z" fill="#004071"/>
<path d="M43.8998 17.8003H38.2998V28.7003H43.8998V17.8003Z" fill="#A3BAC9"/>
<path d="M49.6 11.8999H44V28.6999H49.6V11.8999Z" fill="#004071"/>
<path d="M46.6001 33.8005L54.2001 51.2005C54.8001 52.7005 56.5001 53.3005 58.0001 52.7005C59.5001 52.1005 60.1001 50.4005 59.5001 48.9005L54.1001 36.6005L53.1001 34.5005L52.7001 33.5005L52.1001 32.0005" fill="#A3BAC9"/>
<path d="M46.6001 33.8003L54.2001 51.2003C54.8001 52.7003 56.5001 53.3003 58.0001 52.7003C59.5001 52.1003 60.1001 50.4003 59.5001 48.9003L54.1001 36.6003" stroke="#004071" stroke-width="1.3" stroke-miterlimit="10" stroke-linecap="round"/>
<path d="M53.1002 34.5005L52.7002 33.5005" stroke="#004071" stroke-width="1.3" stroke-miterlimit="10" stroke-linecap="round"/>
<path d="M50.1 8.70029C43.4 5.60029 35.5 8.60029 32.4 15.3003C29.3 22.0003 32.3 29.9003 39 33.0003C45.7 36.1003 53.6 33.1003 56.7 26.4003C59.7 19.7003 56.8 11.8003 50.1 8.70029ZM40.4 29.7003C35.5 27.4003 33.3 21.6003 35.6 16.7003C37.9 11.8003 43.7 9.60029 48.6 11.9003C53.5 14.2003 55.7 20.0003 53.4 24.9003C51.2 29.8003 45.4 32.0003 40.4 29.7003Z" fill="#A3BAC9" stroke="#004071" stroke-width="1.3" stroke-miterlimit="10" stroke-linecap="round"/>
</svg>
