<svg width="64" height="57" viewBox="0 0 64 57" fill="none" xmlns="http://www.w3.org/2000/svg">
<path d="M44.0546 28.7001H37.2546L35.4546 26.1001H42.1546L44.0546 28.7001Z" fill="#A3BAC9"/>
<path d="M26.3544 28.7001H19.6544L17.7544 26.1001H24.5544L26.3544 28.7001Z" fill="#A3BAC9"/>
<path d="M35.2543 28.7001H28.4543L26.6543 26.1001H33.3543L35.2543 28.7001Z" fill="#A3BAC9"/>
<path d="M52.8544 28.7001H46.1544L44.2544 26.1001H51.0544L52.8544 28.7001Z" fill="#A3BAC9"/>
<path d="M16.5546 28.7001H9.85459L7.95459 26.1001H14.6546L16.5546 28.7001Z" fill="#A3BAC9"/>
<path d="M40.9545 32.6001H34.2545L32.3545 30.1001H39.0545L40.9545 32.6001Z" fill="#A3BAC9"/>
<path d="M23.2543 32.6001H16.5543L14.6543 30.1001H21.4543L23.2543 32.6001Z" fill="#A3BAC9"/>
<path d="M32.1547 32.6001H25.3547L23.5547 30.1001H30.2547L32.1547 32.6001Z" fill="#A3BAC9"/>
<path d="M50.7543 32.6001H44.0543L42.1543 30.1001H48.9543L50.7543 32.6001Z" fill="#A3BAC9"/>
<path d="M60.6547 32.6001H53.8547L52.0547 30.1001H58.7547L60.6547 32.6001Z" fill="#A3BAC9"/>
<path d="M12.4545 32.6001H5.75449L3.85449 30.1001H10.6545L12.4545 32.6001Z" fill="#A3BAC9"/>
<path d="M49.5546 36.3998H42.8546L40.9546 33.7998H47.7546L49.5546 36.3998Z" fill="#A3BAC9"/>
<path d="M30.9545 36.3998H24.1545L22.3545 33.7998H29.0545L30.9545 36.3998Z" fill="#A3BAC9"/>
<path d="M39.7543 36.3998H32.9543L31.1543 33.7998H37.8543L39.7543 36.3998Z" fill="#A3BAC9"/>
<path d="M59.3544 36.3998H52.6544L50.7544 33.7998H57.5544L59.3544 36.3998Z" fill="#A3BAC9"/>
<path d="M22.0546 36.3998H15.3546L13.4546 33.7998H20.2546L22.0546 36.3998Z" fill="#A3BAC9"/>
<path d="M12.2543 36.3998H5.5543L3.6543 33.7998H10.3543L12.2543 36.3998Z" fill="#A3BAC9"/>
<path d="M46.0546 40.5H39.3546L37.4546 38H44.2546L46.0546 40.5Z" fill="#A3BAC9"/>
<path d="M34.8544 40.5H28.1544L26.2544 38H32.9544L34.8544 40.5Z" fill="#A3BAC9"/>
<path d="M54.9545 40.5H48.1545L46.3545 38H53.0545L54.9545 40.5Z" fill="#A3BAC9"/>
<path d="M45.3544 48.8002H40.6544L36.7544 46.2002H43.5544L45.3544 48.8002Z" fill="#A3BAC9"/>
<path d="M48.1547 44.8999H41.4547L39.5547 42.3999H46.2547L48.1547 44.8999Z" fill="#A3BAC9"/>
<path d="M39.3544 44.8999H32.5544L30.7544 42.3999H37.4544L39.3544 44.8999Z" fill="#A3BAC9"/>
<path d="M38.3544 24.8002H31.5544L29.7544 22.2002H36.4544L38.3544 24.8002Z" fill="#A3BAC9"/>
<path d="M18.6547 24.8002H11.9547L10.0547 22.2002H16.7547L18.6547 24.8002Z" fill="#A3BAC9"/>
<path d="M29.4545 24.8002H22.7545L20.8545 22.2002H27.6545L29.4545 24.8002Z" fill="#A3BAC9"/>
<path d="M47.1547 24.8002H40.3547L38.5547 22.2002H45.2547L47.1547 24.8002Z" fill="#A3BAC9"/>
<path d="M41.7543 20.8998H35.0543L33.1543 18.2998H39.9543L41.7543 20.8998Z" fill="#A3BAC9"/>
<path d="M15.2543 20.8998H8.5543L6.6543 18.2998H13.4543L15.2543 20.8998Z" fill="#A3BAC9"/>
<path d="M6.05448 18.3002C6.45448 17.9002 7.05448 18.3002 7.85448 18.2002C9.25448 18.0002 9.25448 16.7002 10.5545 16.2002C11.7545 15.7002 12.0545 16.7002 15.1545 17.0002C16.3545 17.1002 17.0545 17.0002 17.9545 17.5002C18.7545 17.9002 18.7545 18.4002 19.3545 18.8002C21.2545 19.9002 25.1545 18.6002 27.2545 19.0002C28.2545 19.2002 28.7545 20.2002 29.3545 19.9002C29.9545 19.6002 29.5545 18.6002 30.2545 17.5002C30.9545 16.5002 32.1545 16.2002 32.6545 16.1002C34.0545 15.7002 34.6545 16.2002 35.3545 15.7002C35.9545 15.2002 35.6545 14.6002 36.2545 13.9002C36.8545 13.3002 39.0545 13.1002 40.3545 13.7002C41.5545 14.3002 42.0545 15.3002 42.5545 16.1002C42.9545 16.8002 43.3545 17.6002 43.1545 18.4002C42.9545 19.2002 42.2545 19.5002 42.4545 19.8002C42.6545 20.4002 44.2545 19.8002 45.2545 20.7002C45.7545 21.2002 45.4545 21.5002 46.0545 22.9002C46.4545 23.8002 46.9545 25.3002 47.9545 25.5002C48.6545 25.6002 48.9545 25.1002 49.7545 25.3002C50.4545 25.5002 50.4545 25.9002 51.0545 26.0002C51.9545 26.1002 52.4545 24.8002 53.1545 24.9002C53.8545 25.0002 53.6545 26.4002 54.6545 27.1002C55.5545 27.7002 56.3545 26.8002 57.5545 27.3002C58.6545 27.8002 58.4545 28.7002 59.5545 29.1002C60.7545 29.5002 61.6545 28.7002 62.2545 29.3002C62.7545 29.8002 62.5545 30.7002 62.5545 30.8002C62.3545 31.7002 61.6545 32.1002 61.7545 32.6002C61.8545 33.1002 62.5545 33.0002 62.6545 33.4002C62.7545 34.0002 61.8545 34.2002 61.6545 35.1002C61.4545 36.0002 62.4545 36.4002 62.2545 37.4002C62.1545 38.0002 61.7545 38.6002 61.1545 38.8002C60.0545 39.2002 59.3545 38.0002 58.3545 38.4002C57.3545 38.7002 57.7545 40.2002 56.3545 41.9002C56.1545 42.1002 55.0545 43.4002 53.4545 43.8002C51.9545 44.1002 51.6545 43.4002 50.3545 43.8002C49.1545 44.2002 49.0545 45.0002 47.5545 45.5002C46.8545 45.7002 46.6545 45.6002 46.1545 45.9002C46.0545 46.0002 44.9545 46.6002 44.8545 47.8002C44.7545 48.6002 45.1545 49.1002 45.4545 49.5002C45.7545 49.9002 46.2545 50.7002 47.1545 50.8002C48.0545 51.0002 48.4545 50.3002 49.6545 50.6002C50.2545 50.7002 50.4545 50.9002 50.4545 51.0002C50.6545 51.3002 50.4545 51.8002 50.2545 52.1002C49.9545 52.4002 49.4545 52.5002 49.2545 52.5002C48.2545 52.6002 48.0545 52.0002 47.3545 52.1002C46.8545 52.2002 46.8545 52.4002 45.9545 53.1002C45.6545 53.3002 45.5545 53.3002 44.3545 54.0002C42.1545 55.3002 42.0545 55.4002 41.5545 55.4002C40.9545 55.4002 40.0545 55.2002 39.8545 54.6002C39.5545 53.8002 40.5545 53.1002 40.3545 52.3002C39.9545 51.0002 36.7545 51.1002 36.7545 50.5002C36.7545 49.9002 39.6545 49.7002 39.9545 48.3002C39.9545 48.2002 40.0545 47.9002 39.8545 47.6002C39.3545 46.9002 37.5545 48.2002 36.0545 47.4002C35.7545 47.2002 35.4545 46.9002 34.9545 46.5002C34.3545 46.0002 34.0545 45.6002 34.1545 45.4002C34.2545 45.1002 34.6545 45.2002 35.3545 44.7002C35.6545 44.5002 35.9545 44.3002 36.0545 44.0002C36.1545 43.5002 35.4545 42.7002 34.9545 42.8002C34.3545 42.9002 34.5545 44.1002 33.5545 44.8002C32.7545 45.3002 32.3545 44.8002 31.4545 45.3002C30.5545 45.8002 30.8545 46.4002 29.7545 47.8002C28.8545 48.9002 28.5545 48.7002 27.6545 49.9002C27.1545 50.6002 27.0545 51.0002 26.5545 51.2002C25.9545 51.5002 25.6545 51.1002 24.5545 51.3002C23.6545 51.4002 23.4545 51.7002 23.1545 51.6002C22.6545 51.4002 22.2545 50.5002 22.3545 49.7002C22.5545 48.4002 23.8545 48.3002 24.2545 46.8002C24.3545 46.2002 24.2545 45.6002 24.5545 45.5002C24.8545 45.4002 25.0545 45.9002 25.7545 46.1002C26.5545 46.2002 27.5545 45.6002 27.5545 45.0002C27.5545 44.7002 27.2545 44.5002 27.1545 44.3002C26.7545 43.9002 25.2545 42.0002 24.6545 40.0002C24.4545 39.4002 25.0545 38.9002 24.7545 38.4002C24.5545 38.1002 24.4545 38.2002 24.1545 37.8002C23.7545 37.3002 23.9545 36.9002 23.6545 36.5002C23.1545 35.9002 22.2545 36.7002 20.9545 36.2002C20.0545 35.9002 20.0545 35.4002 19.4545 35.4002C18.7545 35.4002 18.5545 36.2002 17.5545 36.8002C16.4545 37.6002 16.0545 37.0002 14.3545 37.7002C12.5545 38.5002 12.3545 39.4002 11.1545 39.3002C10.3545 39.2002 10.3545 38.8002 9.35448 38.4002C7.65448 37.6002 6.85448 38.5002 4.75448 38.1002C4.15448 38.0002 1.75448 36.8002 1.15448 36.0002C0.554483 35.0002 1.85448 33.2002 2.45448 32.7002C2.65448 32.5002 3.15448 32.4002 3.35448 32.0002C3.45448 31.7002 3.35448 31.4002 3.25448 31.1002C2.85448 29.8002 2.45448 29.5002 2.65448 29.3002C3.05448 29.0002 5.25448 25.8002 6.35448 25.2002C6.95448 24.9002 7.55448 25.2002 7.95448 24.7002C8.25448 24.2002 8.05448 23.5002 8.05448 23.2002C7.65448 21.7002 6.55448 21.6002 6.05448 20.1002C5.95448 19.7002 5.55448 18.7002 6.05448 18.3002Z" stroke="#004071" stroke-width="1.3" stroke-miterlimit="10" stroke-linecap="round"/>
<path d="M30.3546 1C26.2546 1 22.9546 4.3 22.9546 8.4C22.9546 12.1 29.1546 22.3 30.1546 23.9C30.2546 24 30.3546 24 30.4546 23.9C31.4546 22.3 37.6546 12.1 37.6546 8.4C37.7546 4.3 34.4546 1 30.3546 1Z" fill="#004071" stroke="white" stroke-width="1.3" stroke-miterlimit="10"/>
<path d="M30.3547 11.1C31.6249 11.1 32.6547 10.0703 32.6547 8.8C32.6547 7.52975 31.6249 6.5 30.3547 6.5C29.0844 6.5 28.0547 7.52975 28.0547 8.8C28.0547 10.0703 29.0844 11.1 30.3547 11.1Z" fill="white"/>
</svg>
