<svg width="59" height="59" viewBox="0 0 59 59" fill="none" xmlns="http://www.w3.org/2000/svg">
<path d="M23.1106 20.6881C22.6057 18.6688 25.0288 18.3659 27.0481 17.4573C29.875 16.1448 33.2068 15.7409 34.1154 17.2553" stroke="#A3BAC9" stroke-width="1.3" stroke-miterlimit="10" stroke-linecap="round"/>
<path d="M29.3699 6.75537C29.2689 12.5102 29.2689 18.2651 29.168 24.1209" stroke="#A3BAC9" stroke-width="1.3" stroke-miterlimit="10" stroke-linecap="round"/>
<path d="M52.8448 16.5292L54.4868 14.8872L43.921 4.32142L42.2791 5.9634L52.8448 16.5292Z" fill="#A3BAC9" stroke="#004071" stroke-width="1.3" stroke-miterlimit="10" stroke-linecap="round"/>
<path d="M16.5599 5.91737L14.918 4.27539L4.35219 14.8412L5.99417 16.4832L16.5599 5.91737Z" fill="#A3BAC9" stroke="#004071" stroke-width="1.3" stroke-miterlimit="10" stroke-linecap="round"/>
<path d="M6.04811 1H1V57.6398H6.04811V1Z" fill="#A3BAC9" stroke="#004071" stroke-width="1.3" stroke-miterlimit="10" stroke-linecap="round"/>
<path d="M57.6399 1H52.5918V57.6398H57.6399V1Z" fill="#A3BAC9" stroke="#004071" stroke-width="1.3" stroke-miterlimit="10" stroke-linecap="round"/>
<path d="M57.6398 1H1V6.04811H57.6398V1Z" fill="#A3BAC9" stroke="#004071" stroke-width="1.3" stroke-miterlimit="10" stroke-linecap="round"/>
<path d="M7.96612 24.8267C6.85553 25.1296 7.36034 26.846 5.3411 31.3893C3.52378 35.4278 1.70646 37.2451 2.51416 38.9615C3.01897 39.9711 4.12955 40.3749 4.5334 40.4759C4.93725 40.5769 6.35072 40.9807 9.68248 39.3653C12.4085 38.0528 13.8219 37.3461 14.5287 36.1345C16.6489 32.096 10.4902 24.12 7.96612 24.8267Z" fill="white"/>
<path d="M51.8846 22.1015C52.9952 22.4044 53.1971 26.4429 55.2164 30.9862C57.0337 35.0247 58.851 36.842 58.0433 38.5584C57.5385 39.568 56.4279 39.9718 56.0241 40.0728C55.6202 40.1738 54.2068 40.5776 50.875 38.9622C48.149 37.6497 46.7355 36.943 46.0288 35.7314C43.8076 31.6929 49.2596 21.3948 51.8846 22.1015Z" fill="white"/>
<path d="M33.3074 21.4956C33.5093 23.0101 34.9228 24.4236 35.1247 24.5245C35.5286 24.8274 36.5382 25.6351 37.7498 25.4332C38.8603 25.2313 39.9709 24.3226 39.9709 23.5149C39.9709 23.0101 39.5671 22.9091 39.1632 22.1014C38.8603 21.2937 38.6584 20.1831 39.1632 19.3754C39.87 18.0629 41.4854 17.861 41.7882 17.76C43.3027 17.5581 44.5142 18.2649 45.5238 17.962C45.6248 17.962 45.9277 17.861 46.3315 17.962C46.6344 18.0629 46.8364 18.2649 46.9373 18.3658C47.745 19.1735 48.4518 18.8706 49.1585 19.6783C49.5623 20.1831 49.3604 20.2841 49.8652 21.0918C50.471 22.0005 50.7739 21.8995 51.4806 22.8082C52.5912 24.2216 52.8941 25.837 52.7931 26.4428C52.7931 26.4428 52.7931 26.6447 52.7931 26.7457C52.8941 27.2505 53.197 27.6543 53.3989 27.8563C54.1056 28.7649 53.2979 29.3707 54.0047 30.4813C54.3076 30.9861 54.8124 31.188 54.7114 31.5919C54.6105 31.7938 54.5095 31.8948 54.4085 31.8948C53.6008 32.7025 58.0432 38.1544 57.5384 38.6592C57.3364 38.8612 56.0239 38.0535 55.822 38.4573C55.721 38.6592 56.0239 38.9621 55.923 39.0631C55.721 39.265 54.4085 37.9525 53.9037 38.2554C53.7018 38.3563 53.8028 38.5583 53.6008 38.6592C52.9951 38.9621 51.7835 37.2458 51.3797 37.4477C51.2787 37.5486 51.3797 37.7506 51.2787 37.8515C50.8748 38.1544 48.1489 36.2361 47.0383 34.015C46.9373 33.813 46.6344 33.1063 46.4325 33.2073C46.2306 33.2073 46.3315 34.015 46.1296 34.015C45.7258 34.1159 44.4133 30.9861 43.7065 31.188C43.5046 31.188 43.5046 31.3899 43.3027 31.4909C42.8988 31.4909 42.5959 30.8851 42.394 30.8851C42.1921 30.9861 42.394 31.9957 42.0911 32.0967C41.7882 32.2986 41.0815 31.289 40.7786 31.4909C40.5767 31.5919 40.8796 32.5005 40.5767 32.7025C40.2738 32.9044 39.87 32.2986 39.4661 32.5005C39.1632 32.7025 39.1632 33.2073 38.8603 33.2073C38.5575 33.3082 38.2546 32.6015 37.9517 32.7025C37.5478 32.8034 37.6488 33.7121 37.3459 33.7121C37.043 33.7121 36.8411 32.7025 36.6392 32.8034C36.4372 32.8034 36.4372 34.1159 36.3363 34.1159C36.2353 34.1159 36.1344 33.6111 35.9324 33.6111C35.8315 33.6111 35.9324 34.1159 35.6295 34.6207C35.4276 35.0246 35.2257 35.1256 35.3267 35.2265C35.4276 35.4284 35.7305 35.3275 36.1344 35.4284C37.144 35.7313 37.043 36.8419 38.2546 37.4477C38.7594 37.6496 39.1632 37.6496 39.1632 37.9525C39.1632 38.2554 38.5575 38.3563 38.5575 38.7602C38.5575 38.9621 38.7594 38.9621 38.9613 39.4669C39.0623 39.6689 39.0623 39.8708 39.1632 39.8708C39.3652 40.4766 41.2834 43.1016 42.6969 42.6977C43.5046 42.4958 43.3027 41.5871 44.5142 40.9814C45.12 40.5775 46.1296 40.3756 46.6344 40.7794C46.8364 40.8804 46.9373 41.1833 46.8364 41.1833C46.7354 41.2843 46.5335 40.9814 46.3315 41.0823C46.2306 41.1833 46.1296 41.3852 46.2306 41.4862C46.3315 41.6881 46.7354 41.3852 47.0383 41.5871C47.4421 41.7891 47.4421 42.4958 47.3412 42.4958C47.2402 42.4958 47.0383 42.0919 46.8364 42.0919C46.6344 42.0919 46.5335 42.2939 46.5335 42.4958C46.5335 42.6977 46.8364 42.6977 47.0383 42.8997C47.3412 43.3035 47.1392 43.9093 47.0383 43.9093C46.9373 43.9093 46.9373 43.6064 46.7354 43.5054C46.6344 43.5054 46.4325 43.6064 46.3315 43.7073C46.1296 43.8083 45.9277 43.9093 45.4229 44.1112C44.3123 44.515 43.1008 43.9093 42.394 44.616C41.8892 45.1208 42.0911 45.8276 41.5863 46.0295C41.1825 46.2314 40.6777 45.9285 40.4757 46.2314C40.3748 46.3324 40.4757 46.6353 40.5767 46.7362C40.7786 46.9381 41.0815 46.9381 41.0815 46.9381C41.0815 47.0391 40.7786 47.1401 40.4757 47.0391C40.0719 46.9381 39.9709 46.4333 39.87 46.3324C39.769 45.9285 39.87 45.5247 39.87 45.4237C40.1728 44.616 41.0815 44.4141 40.9805 44.0102C40.9805 43.8083 40.6777 43.8083 40.5767 43.4045C40.4757 43.2025 40.6777 43.1016 40.5767 43.0006C40.4757 42.6977 39.87 42.7987 39.769 42.5968C39.668 42.4958 39.769 42.3948 39.769 42.2939C39.668 41.991 39.2642 42.092 39.0623 41.7891C38.9613 41.5871 39.0623 41.4862 38.8603 41.2843C38.6584 40.7794 37.8507 40.4766 37.5478 40.6785C37.3459 40.8804 37.5478 41.1833 37.3459 41.2843C37.144 41.3852 36.8411 40.9814 36.2353 40.9814C35.9324 40.9814 35.8315 41.0823 35.6295 40.9814C35.2257 40.8804 35.2257 40.3756 34.7209 40.2746C34.418 40.1737 34.418 40.3756 34.1151 40.2746C33.6103 40.1737 33.3074 39.6689 33.2065 39.6689C33.1055 39.6689 38.5575 49.0583 38.3555 50.5728C38.3555 50.6737 38.2546 51.2795 37.8507 51.5824C37.5478 51.7843 37.7498 52.2891 37.4469 52.2891C37.2449 52.2891 37.2449 51.8853 36.8411 52.0872C36.3363 52.2891 35.9324 51.7843 35.6295 51.9863C35.4276 52.1882 35.5286 52.2891 35.2257 52.592C34.9228 52.8949 34.7209 52.794 34.519 52.9959C34.317 53.2988 34.317 53.6017 34.2161 53.6017C34.0142 53.6017 34.0142 53.1978 33.6103 53.0968C33.3074 52.9959 33.1055 53.1978 32.8026 53.0968C32.4997 52.9959 32.3988 52.693 32.2978 52.693C32.1968 52.693 32.2978 53.0968 32.0959 53.2988C31.8939 53.5007 31.692 53.3997 31.3891 53.5007C30.9853 53.7026 30.8843 53.9045 30.7834 53.9045C30.6824 53.9045 30.6824 53.6017 30.5814 52.9959C30.5814 53.6017 30.4805 53.9045 30.3795 53.9045C30.2785 53.9045 30.1776 53.6017 29.7737 53.5007C29.4708 53.2988 29.168 53.3997 29.067 53.2988C28.8651 53.0968 28.966 52.7939 28.8651 52.693C28.7641 52.693 28.6632 52.9959 28.3603 53.0968C28.0574 53.1978 27.8555 52.9959 27.5526 53.0968C27.1487 53.1978 27.0478 53.6017 26.9468 53.6017C26.7449 53.6017 26.8458 53.1978 26.6439 52.9959C26.442 52.693 26.2401 52.8949 25.9372 52.592C25.6343 52.2891 25.7352 52.1882 25.5333 51.9863C25.2304 51.7843 24.8266 52.2891 24.3218 52.0872C23.9179 51.8853 23.817 52.2891 23.716 52.2891C23.4131 52.1882 23.615 51.7843 23.3122 51.5824C22.9083 51.2795 22.8073 50.6737 22.8073 50.5728C22.6054 48.9574 27.9564 39.6689 27.9564 39.6689C27.9564 39.6689 27.6535 40.1737 27.0478 40.2746C26.7449 40.3756 26.6439 40.1737 26.442 40.2746C26.0381 40.3756 26.0381 40.8804 25.5333 40.9814C25.3314 41.0823 25.3314 40.8804 24.9275 40.9814C24.3218 40.9814 24.0189 41.4862 23.817 41.2843C23.615 41.1833 23.817 40.7794 23.615 40.6785C23.3122 40.4766 22.5045 40.6785 22.3025 41.2843C22.2016 41.4862 22.3025 41.5871 22.1006 41.7891C21.8987 42.092 21.4948 41.991 21.3939 42.2939C21.2929 42.3948 21.3939 42.4958 21.3939 42.5968C21.2929 42.8996 20.6871 42.7987 20.5862 43.0006C20.4852 43.1016 20.6871 43.2025 20.5862 43.4045C20.4852 43.7073 20.1823 43.7073 20.1823 44.0102C20.0814 44.4141 20.99 44.616 21.2929 45.4237C21.2929 45.5247 21.4948 45.9285 21.2929 46.3324C21.2929 46.4333 21.091 46.9381 20.6871 47.0391C20.3842 47.1401 20.0814 47.0391 20.0814 46.9381C20.0814 46.8372 20.3842 46.9381 20.5862 46.7362C20.6871 46.6353 20.7881 46.4333 20.6871 46.2314C20.4852 45.9285 20.0814 46.2314 19.5765 46.0295C18.9708 45.7266 19.2737 45.1208 18.7688 44.616C18.0621 44.0102 16.8506 44.515 15.74 44.1112C15.2352 43.9093 14.9323 43.8083 14.8313 43.7073C14.7304 43.6064 14.5284 43.5054 14.4275 43.5054C14.2255 43.5054 14.2255 43.9093 14.1246 43.9093C14.0236 43.9093 13.8217 43.2025 14.1246 42.8997C14.3265 42.6977 14.6294 42.6977 14.6294 42.4958C14.6294 42.3948 14.5284 42.1929 14.3265 42.0919C14.0236 42.0919 13.9227 42.4958 13.8217 42.4958C13.7207 42.4958 13.7207 41.7891 14.1246 41.5871C14.4275 41.3852 14.7304 41.6881 14.9323 41.4862C15.0332 41.3852 14.9323 41.0823 14.8313 41.0823C14.6294 40.9814 14.4275 41.1833 14.3265 41.1833C14.3265 41.1833 14.4275 40.8804 14.5284 40.7794C15.0332 40.3756 15.9419 40.6785 16.6486 40.9814C17.8602 41.6881 17.6583 42.4958 18.466 42.6977C19.8794 43.1016 21.7977 40.5775 21.9996 39.8708C21.9996 39.7698 22.1006 39.6689 22.2016 39.4669C22.4035 39.0631 22.6054 38.9621 22.6054 38.7602C22.6054 38.3563 21.9996 38.2554 21.9996 37.9525C21.9996 37.7506 22.5045 37.7506 22.9083 37.4477C24.0189 36.8419 24.0189 35.7313 25.0285 35.4284C25.4324 35.3275 25.8362 35.4284 25.8362 35.2265C25.9372 35.1256 25.7352 34.9236 25.5333 34.6207C25.2304 34.1159 25.3314 33.6111 25.2304 33.6111C25.1295 33.6111 25.0285 34.1159 24.8266 34.1159C24.6247 34.1159 24.7256 32.8034 24.5237 32.8034C24.3218 32.8034 24.0189 33.813 23.817 33.7121C23.5141 33.7121 23.615 32.7025 23.2112 32.7025C22.9083 32.6015 22.6054 33.3082 22.3025 33.2073C21.9996 33.1063 22.1006 32.6015 21.6968 32.5005C21.2929 32.2986 20.7881 32.9044 20.5862 32.7025C20.2833 32.5005 20.6871 31.6928 20.3842 31.4909C20.0814 31.289 19.3746 32.2986 19.0717 32.0967C18.7688 31.8948 19.0717 30.9861 18.7688 30.8851C18.5669 30.7842 18.264 31.4909 17.8602 31.4909C17.6583 31.4909 17.5573 31.289 17.4563 31.188C16.7496 30.9861 15.4371 34.1159 15.0332 34.015C14.3265 34.1159 14.4275 33.4092 14.2255 33.4092C14.0236 33.3082 13.7207 34.1159 13.6198 34.2169C12.5092 36.4381 9.78321 38.3563 9.37936 38.0535C9.2784 37.9525 9.37936 37.6496 9.2784 37.6496C8.87455 37.4477 7.663 39.164 7.05723 38.8612C6.8553 38.7602 6.95626 38.5583 6.75434 38.4573C6.14856 38.1544 4.93702 39.4669 4.73509 39.265C4.63413 39.164 4.93702 38.8612 4.83606 38.6592C4.63413 38.3563 3.42258 39.164 3.1197 38.8612C2.61489 38.3563 7.05723 32.9044 6.24953 32.0967C6.14856 31.9957 5.94664 31.9957 5.94664 31.7938C5.84568 31.4909 6.35049 31.188 6.65338 30.6832C7.36011 29.6736 6.55241 28.9669 7.25915 28.0582C7.46107 27.8563 7.76396 27.5534 7.86492 26.9476C7.86492 26.8466 7.86492 26.6447 7.86492 26.6447C7.76396 26.0389 8.06685 24.4236 9.17743 23.0101C9.88417 22.1014 10.288 22.2024 10.7928 21.2937C11.2976 20.486 11.0957 20.3851 11.4996 19.8803C12.2063 19.0726 12.913 19.3754 13.7207 18.5677C13.8217 18.4668 14.0236 18.2649 14.3265 18.1639C14.7304 18.0629 15.0332 18.1639 15.1342 18.1639C16.2448 18.4668 17.3554 17.76 18.8698 17.962C19.1727 17.962 20.7881 18.2649 21.4948 19.5774C21.9996 20.486 21.7977 21.5966 21.4948 22.3033C21.091 23.111 20.6871 23.111 20.6871 23.7168C20.6871 24.5245 21.7977 25.5341 22.9083 25.6351C24.2208 25.837 25.1295 25.0293 25.5333 24.7264C25.7352 24.5245 26.8458 23.6159 27.0478 22.1014L33.3074 21.4956Z" fill="#004071"/>
<path d="M23.4132 16.2456C23.0093 15.9427 22.1006 16.2456 20.2833 16.6495C19.1727 16.9523 19.3747 17.3562 19.0718 17.5581C18.567 17.861 18.365 17.861 17.4564 18.4668C16.6487 18.9716 17.3554 20.1831 16.7496 21.1928C16.1439 22.4043 18.9708 21.6976 20.0814 21.5966C21.091 21.4956 21.9997 21.0918 22.3026 20.7889C24.2209 19.2745 24.4228 17.0533 23.4132 16.2456Z" fill="white"/>
<path d="M32.7486 13.0683C33.0031 12.9545 33.1357 12.6972 33.0446 12.4936C32.9535 12.2899 32.6734 12.2172 32.4189 12.331C32.1643 12.4448 32.0318 12.7022 32.1229 12.9058C32.214 13.1094 32.4941 13.1822 32.7486 13.0683Z" fill="white"/>
<path d="M33.3076 21.4959C32.9037 20.8902 32.2979 18.4671 32.6008 18.1642C32.7018 18.0632 32.8027 18.0632 32.9037 17.9623C33.3076 17.5584 32.2979 16.2459 32.4999 16.1449C32.6008 16.1449 32.6008 16.2459 32.8027 16.2459C33.2066 16.2459 33.2066 15.3372 33.8124 14.9334C34.4181 14.5296 34.9229 15.0344 35.4278 14.5295C35.4278 14.5295 35.7306 14.2267 35.6297 14.0247C35.5287 13.9238 35.4278 13.9238 35.4278 13.9238C35.2258 13.9238 35.0239 14.1257 34.9229 14.0247C34.721 14.0247 34.6201 13.7219 34.6201 13.6209C34.721 13.419 35.2258 13.6209 35.4278 13.6209C36.9422 13.8228 38.6586 12.2074 38.5576 12.0055C38.5576 11.9045 38.0528 12.2074 36.9422 12.4093C36.5383 12.5103 35.7306 12.6113 35.7306 12.4093C35.6297 12.2074 36.1345 11.8036 36.5383 11.7026C36.7403 11.7026 36.8412 11.7026 36.9422 11.6016C37.0432 11.5007 36.9422 11.1978 36.8412 10.9959C36.5383 10.693 36.0335 10.7939 35.6297 10.8949C35.1249 10.9959 35.0239 11.0968 34.6201 11.1978C33.7114 11.3997 33.4085 10.9959 32.6008 11.0968C31.4902 11.1978 30.6825 11.9045 30.3796 12.2074C29.6729 12.9142 29.5719 13.419 28.7642 13.8228C28.2594 14.0247 27.8556 14.0247 27.7546 14.1257C27.7546 14.3276 28.8652 14.5295 28.8652 14.6305C28.8652 14.6305 28.5623 14.6305 28.2594 14.7315C28.0575 14.7315 27.6537 14.9334 27.6537 15.1353C27.6537 15.3372 27.8556 15.4382 27.8556 15.5392C28.1585 15.7411 28.5623 15.6401 28.5623 15.7411C28.5623 15.8421 27.7546 16.044 27.7546 16.2459C27.7546 16.3469 28.1585 16.4478 28.3604 16.4478C28.7642 16.4478 28.8652 16.3469 28.8652 16.4478C29.0671 16.6498 28.0575 17.6594 28.4614 18.3661C28.5623 18.568 28.6633 18.4671 28.6633 18.669C28.7642 18.8709 28.7642 18.9719 28.7642 19.1738C28.6633 19.0729 28.4614 18.9719 28.4614 18.77C28.3604 18.568 28.4614 18.568 28.3604 18.3661C28.0575 17.6594 26.644 17.7603 26.644 17.4575C26.644 17.3565 26.846 17.3565 27.0479 17.0536C27.1489 16.8517 27.3508 16.5488 27.2498 16.4478C27.1489 16.3469 26.3412 16.8517 26.3412 16.7507C26.3412 16.6498 26.644 16.4478 26.644 16.044C26.644 16.044 26.644 15.7411 26.5431 15.6401C26.3412 15.5392 26.0383 15.7411 25.8363 15.8421C25.5335 16.044 25.3315 16.2459 25.3315 16.2459C25.2306 16.1449 25.8363 15.2363 25.7354 15.1353C25.6344 15.0344 25.3315 15.4382 24.8267 15.6401C24.019 16.044 23.6152 15.6401 22.6055 15.7411C22.2017 15.7411 21.0911 15.943 20.3844 16.6498C19.7786 17.2555 19.8796 17.7603 19.0719 18.2652C18.769 18.4671 18.5671 18.4671 18.1632 18.77C17.7594 19.0729 17.3555 19.3757 17.3555 19.7796C17.3555 19.9815 17.5574 20.1834 17.7594 20.2844C17.8603 20.2844 17.9613 20.1834 18.1632 20.0825C18.5671 19.7796 19.1728 19.7796 19.2738 19.8805C19.3748 20.0825 18.769 20.4863 18.4661 20.7892C17.6584 21.4959 17.0526 21.5969 17.1536 21.6979C17.2545 21.8998 19.5767 21.6979 20.3844 20.3854C20.5863 20.1834 20.7882 19.6786 20.9902 19.7796C21.0911 19.7796 21.1921 20.0825 21.0911 20.2844C20.9902 20.4863 20.7882 20.3854 20.6873 20.5873C20.6873 20.5873 20.5863 20.7892 20.5863 20.8902C20.6873 21.0921 21.0911 21.0921 21.0911 21.0921C21.7979 21.0921 21.7979 20.2844 22.5046 20.1834C23.2113 19.9815 23.9181 20.5873 24.12 20.2844C24.2209 20.1834 24.12 19.9815 24.2209 19.9815C24.4229 19.9815 24.7258 21.4959 25.3315 21.4959C25.5335 21.4959 25.5335 21.395 25.7354 21.395C26.2402 21.395 26.745 22.3036 26.9469 23.0104L33.3076 21.4959Z" fill="#004071"/>
<path d="M21.566 18.437C21.8205 18.3232 21.953 18.0658 21.862 17.8622C21.7709 17.6586 21.4907 17.5858 21.2362 17.6996C20.9817 17.8135 20.8492 18.0708 20.9403 18.2744C21.0313 18.478 21.3115 18.5508 21.566 18.437Z" fill="white"/>
<path d="M31.9543 13.6984C32.1579 13.6074 32.2492 13.3685 32.1581 13.1649C32.067 12.9613 31.8281 12.87 31.6245 12.9611C31.4209 13.0522 31.3297 13.291 31.4208 13.4947C31.5118 13.6983 31.7507 13.7895 31.9543 13.6984Z" fill="white"/>
<path d="M23.312 20.89C23.413 20.991 25.7351 22.7073 29.5717 21.8996C32.3986 21.2939 34.2159 19.0727 34.115 17.2554" stroke="#A3BAC9" stroke-width="1.3" stroke-miterlimit="10" stroke-linecap="round"/>
</svg>
