<svg width="56" height="54" viewBox="0 0 56 54" fill="none" xmlns="http://www.w3.org/2000/svg">
<path d="M6.8002 46.3H3.8002C3.2002 46.3 2.7002 45.8 2.7002 45.2V38.1C2.7002 37.5 3.2002 37 3.8002 37H6.8002C7.4002 37 7.9002 37.5 7.9002 38.1V45.2C8.0002 45.8 7.4002 46.3 6.8002 46.3Z" fill="#A3BAC9" stroke="#004071" stroke-width="1.4866" stroke-miterlimit="10" stroke-linecap="round"/>
<path d="M15.9003 46.2998H12.9003C12.3003 46.2998 11.8003 45.7998 11.8003 45.1998V34.8998C11.8003 34.2998 12.3003 33.7998 12.9003 33.7998H15.9003C16.5003 33.7998 17.0003 34.2998 17.0003 34.8998V45.1998C17.0003 45.7998 16.5003 46.2998 15.9003 46.2998Z" fill="#A3BAC9" stroke="#004071" stroke-width="1.4866" stroke-miterlimit="10" stroke-linecap="round"/>
<path d="M24.9003 46.3001H21.9003C21.3003 46.3001 20.8003 45.8001 20.8003 45.2001V30.7001C20.8003 30.1001 21.3003 29.6001 21.9003 29.6001H24.9003C25.5003 29.6001 26.0003 30.1001 26.0003 30.7001V45.2001C26.1003 45.8001 25.5003 46.3001 24.9003 46.3001Z" fill="#A3BAC9" stroke="#004071" stroke-width="1.4866" stroke-miterlimit="10" stroke-linecap="round"/>
<path d="M34.0003 46.2999H30.9003C30.3003 46.2999 29.8003 45.7999 29.8003 45.1999V21.9999C29.8003 21.3999 30.3003 20.8999 30.9003 20.8999H34.0003C34.6003 20.8999 35.1003 21.3999 35.1003 21.9999V45.1999C35.1003 45.7999 34.6003 46.2999 34.0003 46.2999Z" fill="#A3BAC9" stroke="#004071" stroke-width="1.4866" stroke-miterlimit="10" stroke-linecap="round"/>
<path d="M43.0999 46.3H39.9999C39.3999 46.3 38.8999 45.8 38.8999 45.2V11.6C38.8999 11 39.3999 10.5 39.9999 10.5H43.0999C43.6999 10.5 44.1999 11 44.1999 11.6V45.2C44.1999 45.8 43.6999 46.3 43.0999 46.3Z" fill="#A3BAC9" stroke="#004071" stroke-width="1.4866" stroke-miterlimit="10" stroke-linecap="round"/>
<path d="M1.6001 30.8999C2.3001 30.6999 2.9001 30.4999 3.6001 30.2999C3.6001 30.2999 4.4001 29.9999 5.3001 29.6999C8.3001 28.5999 10.7001 27.3999 10.7001 27.3999C12.2001 26.6999 15.4001 25.0999 19.2001 22.4999C19.2001 22.4999 21.5001 20.9999 23.6001 19.2999C31.1001 13.2999 39.1001 2.0999 40.0001 0.899902" fill="white"/>
<path d="M1.6001 30.9001C2.3001 30.7001 2.9001 30.5001 3.6001 30.3001C3.6001 30.3001 4.4001 30.0001 5.3001 29.7001C8.3001 28.6001 10.7001 27.4001 10.7001 27.4001C12.2001 26.7001 15.4001 25.1001 19.2001 22.5001C19.2001 22.5001 21.5001 21.0001 23.6001 19.3001C30.3001 14.0001 37.5001 4.4001 39.5001 1.6001" stroke="#004071" stroke-width="1.3" stroke-miterlimit="10" stroke-linecap="round"/>
<path d="M39.4001 6.9999C39.2001 6.9999 39.1001 6.7999 39.1001 6.6999L39.4001 1.6999L34.8001 3.4999C34.6001 3.5999 34.4001 3.4999 34.4001 3.2999C34.3001 3.0999 34.4001 2.8999 34.6001 2.8999L39.7001 0.899902C39.8001 0.899902 39.9001 0.899902 40.0001 0.899902C40.1001 0.899902 40.1001 1.0999 40.1001 1.1999L39.7001 6.6999C39.7001 6.7999 39.7001 6.7999 39.6001 6.8999C39.6001 6.8999 39.5001 6.9999 39.4001 6.9999Z" fill="#004071"/>
<path d="M2.5 53.0996H6.5H12.6H44.2" stroke="#004071" stroke-width="1.3407" stroke-miterlimit="10" stroke-linecap="round"/>
<path d="M53.7002 50.6005C53.7002 51.5005 51.2002 52.2005 48.2002 52.2005C45.2002 52.2005 42.7002 51.5005 42.7002 50.6005V48.6005C42.7002 48.5005 42.8002 48.5005 42.8002 48.5005C43.5002 48.6005 46.2002 49.0005 48.2002 49.0005C50.1002 49.0005 52.9002 48.6005 53.6002 48.5005C53.7002 48.5005 53.7002 48.5005 53.7002 48.6005V50.6005Z" fill="white" stroke="#004071" stroke-width="1.3" stroke-miterlimit="10" stroke-linecap="round"/>
<path d="M48.2002 50.0003C51.2378 50.0003 53.7002 49.284 53.7002 48.4003C53.7002 47.5166 51.2378 46.8003 48.2002 46.8003C45.1626 46.8003 42.7002 47.5166 42.7002 48.4003C42.7002 49.284 45.1626 50.0003 48.2002 50.0003Z" fill="white" stroke="#004071" stroke-width="1.3" stroke-miterlimit="10" stroke-linecap="round"/>
<path d="M53.7002 48.4003C53.7002 49.3003 51.2002 50.0003 48.2002 50.0003C45.2002 50.0003 42.7002 49.3003 42.7002 48.4003V46.4003C42.7002 46.3003 42.8002 46.3003 42.8002 46.3003C43.5002 46.4003 46.2002 46.8003 48.2002 46.8003C50.1002 46.8003 52.9002 46.4003 53.6002 46.3003C53.7002 46.3003 53.7002 46.3003 53.7002 46.4003V48.4003Z" fill="white" stroke="#004071" stroke-width="1.3" stroke-miterlimit="10" stroke-linecap="round"/>
<path d="M48.2002 47.9002C51.2378 47.9002 53.7002 47.1838 53.7002 46.3002C53.7002 45.4165 51.2378 44.7002 48.2002 44.7002C45.1626 44.7002 42.7002 45.4165 42.7002 46.3002C42.7002 47.1838 45.1626 47.9002 48.2002 47.9002Z" fill="white" stroke="#004071" stroke-width="1.3" stroke-miterlimit="10" stroke-linecap="round"/>
<path d="M53.7002 46.3002C53.7002 47.2002 51.2002 47.9002 48.2002 47.9002C45.2002 47.9002 42.7002 47.2002 42.7002 46.3002V44.3002C42.7002 44.2002 42.8002 44.2002 42.8002 44.2002C43.5002 44.3002 46.2002 44.7002 48.2002 44.7002C50.1002 44.7002 52.9002 44.3002 53.6002 44.2002C53.7002 44.2002 53.7002 44.2002 53.7002 44.3002V46.3002Z" fill="white" stroke="#004071" stroke-width="1.3" stroke-miterlimit="10" stroke-linecap="round"/>
<path d="M48.2002 45.7C51.2378 45.7 53.7002 44.9837 53.7002 44.1C53.7002 43.2163 51.2378 42.5 48.2002 42.5C45.1626 42.5 42.7002 43.2163 42.7002 44.1C42.7002 44.9837 45.1626 45.7 48.2002 45.7Z" fill="white" stroke="#004071" stroke-width="1.3" stroke-miterlimit="10" stroke-linecap="round"/>
<path d="M53.7002 44.1005C53.7002 45.0005 51.2002 45.7005 48.2002 45.7005C45.2002 45.7005 42.7002 45.0005 42.7002 44.1005V42.1005C42.7002 42.0005 42.8002 42.0005 42.8002 42.0005C43.5002 42.1005 46.2002 42.5005 48.2002 42.5005C50.1002 42.5005 52.9002 42.1005 53.6002 42.0005C53.7002 42.0005 53.7002 42.0005 53.7002 42.1005V44.1005Z" fill="white" stroke="#004071" stroke-width="1.3" stroke-miterlimit="10" stroke-linecap="round"/>
<path d="M48.2002 43.5003C51.2378 43.5003 53.7002 42.784 53.7002 41.9003C53.7002 41.0166 51.2378 40.3003 48.2002 40.3003C45.1626 40.3003 42.7002 41.0166 42.7002 41.9003C42.7002 42.784 45.1626 43.5003 48.2002 43.5003Z" fill="white" stroke="#004071" stroke-width="1.3" stroke-miterlimit="10" stroke-linecap="round"/>
<path d="M53.7002 41.9003C53.7002 42.8003 51.2002 43.5003 48.2002 43.5003C45.2002 43.5003 42.7002 42.8003 42.7002 41.9003V39.9003C42.7002 39.8003 42.8002 39.8003 42.8002 39.8003C43.5002 39.9003 46.2002 40.3003 48.2002 40.3003C50.1002 40.3003 52.9002 39.9003 53.6002 39.8003C53.7002 39.8003 53.7002 39.8003 53.7002 39.9003V41.9003Z" fill="white" stroke="#004071" stroke-width="1.3" stroke-miterlimit="10" stroke-linecap="round"/>
<path d="M48.2002 41.3001C51.2378 41.3001 53.7002 40.5838 53.7002 39.7001C53.7002 38.8164 51.2378 38.1001 48.2002 38.1001C45.1626 38.1001 42.7002 38.8164 42.7002 39.7001C42.7002 40.5838 45.1626 41.3001 48.2002 41.3001Z" fill="white" stroke="#004071" stroke-width="1.3" stroke-miterlimit="10" stroke-linecap="round"/>
<path d="M53.7002 39.7001C53.7002 40.6001 51.2002 41.3001 48.2002 41.3001C45.2002 41.3001 42.7002 40.6001 42.7002 39.7001V37.7001C42.7002 37.6001 42.8002 37.6001 42.8002 37.6001C43.5002 37.7001 46.2002 38.1001 48.2002 38.1001C50.1002 38.1001 52.9002 37.7001 53.6002 37.6001C53.7002 37.6001 53.7002 37.6001 53.7002 37.7001V39.7001Z" fill="white" stroke="#004071" stroke-width="1.3" stroke-miterlimit="10" stroke-linecap="round"/>
<path d="M48.2002 39.2C51.2378 39.2 53.7002 38.4837 53.7002 37.6C53.7002 36.7163 51.2378 36 48.2002 36C45.1626 36 42.7002 36.7163 42.7002 37.6C42.7002 38.4837 45.1626 39.2 48.2002 39.2Z" fill="white" stroke="#004071" stroke-width="1.3" stroke-miterlimit="10" stroke-linecap="round"/>
<path d="M53.7002 37.6005C53.7002 38.5005 51.2002 39.2005 48.2002 39.2005C45.2002 39.2005 42.7002 38.5005 42.7002 37.6005V35.6005C42.7002 35.5005 42.8002 35.5005 42.8002 35.5005C43.5002 35.6005 46.2002 36.0005 48.2002 36.0005C50.1002 36.0005 52.9002 35.6005 53.6002 35.5005C53.7002 35.5005 53.7002 35.5005 53.7002 35.6005V37.6005Z" fill="white" stroke="#004071" stroke-width="1.3" stroke-miterlimit="10" stroke-linecap="round"/>
<path d="M48.2002 37.0003C51.2378 37.0003 53.7002 36.284 53.7002 35.4003C53.7002 34.5166 51.2378 33.8003 48.2002 33.8003C45.1626 33.8003 42.7002 34.5166 42.7002 35.4003C42.7002 36.284 45.1626 37.0003 48.2002 37.0003Z" fill="white" stroke="#004071" stroke-width="1.3" stroke-miterlimit="10" stroke-linecap="round"/>
<path d="M53.7002 35.4003C53.7002 36.3003 51.2002 37.0003 48.2002 37.0003C45.2002 37.0003 42.7002 36.3003 42.7002 35.4003V33.4003C42.7002 33.3003 42.8002 33.3003 42.8002 33.3003C43.5002 33.4003 46.2002 33.8003 48.2002 33.8003C50.1002 33.8003 52.9002 33.4003 53.6002 33.3003C53.7002 33.3003 53.7002 33.3003 53.7002 33.4003V35.4003Z" fill="white" stroke="#004071" stroke-width="1.3" stroke-miterlimit="10" stroke-linecap="round"/>
<path d="M48.2002 34.8001C51.2378 34.8001 53.7002 34.0838 53.7002 33.2001C53.7002 32.3164 51.2378 31.6001 48.2002 31.6001C45.1626 31.6001 42.7002 32.3164 42.7002 33.2001C42.7002 34.0838 45.1626 34.8001 48.2002 34.8001Z" fill="white" stroke="#004071" stroke-width="1.3" stroke-miterlimit="10" stroke-linecap="round"/>
<path d="M52.9003 18.0997C54.7003 19.1997 55.0003 22.1997 53.4003 24.7997C51.8003 27.3997 49.1003 28.5997 47.3003 27.4997L45.4003 26.3997C45.3003 26.3997 45.3003 26.2997 45.3003 26.1997C45.3003 25.5997 45.5003 22.8997 46.8003 20.7997C48.1003 18.6997 50.7003 17.3997 51.2003 17.1997C51.3003 17.1997 51.3003 17.1997 51.4003 17.1997L52.9003 18.0997Z" fill="white" stroke="#004071" stroke-width="1.3" stroke-miterlimit="10" stroke-linecap="round"/>
<path d="M51.7769 23.7794C53.308 21.22 53.0507 18.2487 51.2022 17.1429C49.3538 16.0371 46.614 17.2155 45.0829 19.7749C43.5518 22.3343 43.809 25.3056 45.6575 26.4114C47.506 27.5173 50.2457 26.3389 51.7769 23.7794Z" fill="white" stroke="#004071" stroke-width="1.3" stroke-miterlimit="10" stroke-linecap="round"/>
<path d="M50.0003 20.5998C49.9003 20.9998 49.7003 21.1998 49.3003 21.0998C49.1003 20.9998 49.0003 20.8998 49.0003 20.6998C49.0003 20.5998 49.1003 20.5998 49.1003 20.4998C49.1003 20.2998 49.1003 20.0998 49.0003 19.9998C48.9003 19.8998 48.8003 19.7998 48.6003 19.6998C48.3003 19.5998 48.1003 19.6998 47.8003 19.7998C47.5003 19.8998 47.4003 20.0998 47.3003 20.2998C47.3003 20.3998 47.3003 20.5998 47.4003 20.6998C47.5003 20.7998 47.6003 20.8998 47.9003 21.0998C48.4003 21.4998 48.8003 21.8998 49.0003 22.1998C49.2003 22.5998 49.3003 22.9998 49.2003 23.3998C49.1003 23.7998 48.9003 24.0998 48.5003 24.2998C48.1003 24.4998 47.7003 24.5998 47.2003 24.4998C47.1003 24.7998 46.9003 25.0998 46.8003 25.3998C46.7003 25.5998 46.5003 25.5998 46.3003 25.5998C46.0003 25.4998 45.9003 25.3998 46.0003 25.0998C46.0003 24.9998 46.1003 24.6998 46.3003 24.2998C45.6003 23.8998 45.3003 23.4998 45.5003 22.8998C45.6003 22.6998 45.7003 22.4998 45.8003 22.3998C46.0003 22.2998 46.2003 22.2998 46.4003 22.2998C46.5003 22.2998 46.6003 22.3998 46.7003 22.4998C46.8003 22.5998 46.8003 22.6998 46.7003 22.7998C46.7003 22.8998 46.6003 22.8998 46.5003 22.8998C46.4003 22.8998 46.3003 22.9998 46.3003 22.9998C46.3003 23.0998 46.3003 23.1998 46.5003 23.3998C46.7003 23.4998 46.8003 23.5998 47.1003 23.6998C47.4003 23.7998 47.7003 23.7998 47.9003 23.5998C48.1003 23.3998 48.3003 23.2998 48.4003 23.0998C48.5003 22.6998 48.2003 22.2998 47.6003 21.6998C47.1003 21.2998 46.8003 20.9998 46.7003 20.8998C46.5003 20.5998 46.4003 20.2998 46.5003 19.9998C46.6003 19.6998 46.8003 19.3998 47.1003 19.1998C47.4003 18.9998 47.8003 18.7998 48.3003 18.7998C48.4003 18.3998 48.5003 18.0998 48.6003 17.9998C48.7003 17.7998 48.9003 17.7998 49.1003 17.7998C49.2003 17.7998 49.3003 17.8998 49.4003 17.9998C49.5003 18.0998 49.5003 18.1998 49.5003 18.2998C49.5003 18.3998 49.5003 18.3998 49.4003 18.5998C49.3003 18.7998 49.3003 18.8998 49.2003 18.8998C49.5003 19.0998 49.8003 19.2998 49.9003 19.4998C50.1003 19.9998 50.1003 20.2998 50.0003 20.5998Z" fill="#004071"/>
</svg>
