<svg width="62" height="57" viewBox="0 0 62 57" fill="none" xmlns="http://www.w3.org/2000/svg">
<path d="M46.9998 17.2304C44.8998 15.7304 41.0998 14.6304 36.7998 14.6304C31.4998 14.6304 25.3998 15.6304 25.3998 15.6304C25.3998 15.6304 24.7998 19.5304 24.7998 20.1304C24.7998 23.1304 30.1998 25.6304 36.7998 25.6304C39.8998 25.6304 42.7998 25.1304 44.8998 24.2304L45.4998 20.2304L46.9998 17.2304Z" fill="white" stroke="#004071" stroke-width="1.3" stroke-miterlimit="10" stroke-linecap="round"/>
<path d="M47.5999 13.1303C45.4999 11.6303 41.6999 10.5303 37.3999 10.5303C30.7999 10.5303 25.3999 13.0303 25.3999 16.0303C25.3999 19.0303 30.7999 21.5303 37.3999 21.5303C40.4999 21.5303 43.3999 21.0303 45.4999 20.1303L36.4999 16.1303L47.5999 13.1303Z" fill="white" stroke="#004071" stroke-width="1.3" stroke-miterlimit="10" stroke-linecap="round"/>
<path d="M49.7997 23.5302C52.1997 22.5302 53.6997 21.1302 53.6997 19.5302C53.6997 18.5302 52.9997 15.3302 52.8997 14.9302C52.8997 14.9302 52.8997 14.9302 52.7997 14.9302L40.1997 16.1302L40.6997 19.6302L49.7997 23.5302Z" fill="white" stroke="#004071" stroke-width="1.3" stroke-miterlimit="10" stroke-linecap="round"/>
<path d="M49.2998 20.1305C51.6998 19.1305 53.1998 17.7305 53.1998 16.1305C53.1998 15.0305 52.4998 14.0305 51.3998 13.2305L40.2998 16.1305L49.2998 20.1305Z" fill="white" stroke="#004071" stroke-width="1.3" stroke-miterlimit="10" stroke-linecap="round"/>
<path d="M36.6997 25.6305C39.7997 25.6305 42.6997 25.1305 44.7997 24.2305L45.3997 20.2305" fill="white"/>
<path d="M36.6997 25.6305C39.7997 25.6305 42.6997 25.1305 44.7997 24.2305L45.3997 20.2305" stroke="#004071" stroke-width="1.3" stroke-miterlimit="10" stroke-linecap="round"/>
<path d="M37.4 21.5303C40.5 21.5303 43.3 21.0303 45.4 20.1303C45.5 20.1303 45.5 20.0303 45.4 20.0303L36.5 16.0303" fill="white"/>
<path d="M37.4 21.5303C40.5 21.5303 43.3 21.0303 45.4 20.1303C45.5 20.1303 45.5 20.0303 45.4 20.0303L36.5 16.0303" stroke="#004071" stroke-width="1.3" stroke-miterlimit="10" stroke-linecap="round"/>
<path d="M1.3001 17.2298L8.6001 13.0298H8.7001L16.1001 17.1298C16.2001 17.1298 16.2001 17.2298 16.1001 17.3298L8.5001 21.4298H8.4001L1.3001 17.4298C1.2001 17.3298 1.2001 17.2298 1.3001 17.2298Z" fill="white" stroke="#004071" stroke-width="1.3" stroke-miterlimit="10" stroke-linecap="round"/>
<path d="M1.2 21.7297L8.2 25.7297C8.3 25.7297 8.4 25.7297 8.4 25.6297V21.5297C8.4 21.5297 8.4 21.4297 8.3 21.4297L1.2 17.4297C1.1 17.4297 1 17.4297 1 17.5297L1.2 21.7297C1.1 21.7297 1.1 21.6297 1.2 21.7297Z" fill="white"/>
<path d="M1.2 21.7297L8.2 25.7297C8.3 25.7297 8.4 25.7297 8.4 25.6297V21.5297C8.4 21.5297 8.4 21.4297 8.3 21.4297L1.2 17.4297C1.1 17.4297 1 17.4297 1 17.5297L1.2 21.7297ZM1.2 21.7297C1.1 21.6297 1.1 21.7297 1.2 21.7297Z" stroke="#004071" stroke-width="1.3" stroke-miterlimit="10" stroke-linecap="round"/>
<path d="M1.2001 23.93L8.3001 28.03C8.4001 28.03 8.5001 28.03 8.5001 27.93L8.4001 25.83C8.4001 25.83 8.4001 25.73 8.3001 25.73L1.3001 21.73C1.2001 21.73 1.1001 21.73 1.1001 21.83L1.2001 23.93C1.1001 23.83 1.1001 23.83 1.2001 23.93Z" fill="white"/>
<path d="M1.2001 23.93L8.3001 28.03C8.4001 28.03 8.5001 28.03 8.5001 27.93L8.4001 25.83C8.4001 25.83 8.4001 25.73 8.3001 25.73L1.3001 21.73C1.2001 21.73 1.1001 21.73 1.1001 21.83L1.2001 23.93ZM1.2001 23.93C1.1001 23.83 1.1001 23.83 1.2001 23.93Z" stroke="#004071" stroke-width="1.3" stroke-miterlimit="10" stroke-linecap="round"/>
<path d="M8.4002 21.5296L8.2002 25.5296C8.2002 25.6296 8.3002 25.6296 8.4002 25.6296L16.1002 21.0296L16.2002 20.9296L16.1002 17.4296C16.1002 17.3296 16.0002 17.3296 15.9002 17.3296L8.4002 21.5296Z" fill="white" stroke="#004071" stroke-width="1.3" stroke-miterlimit="10" stroke-linecap="round"/>
<path d="M8.3999 25.7298V27.8298C8.3999 27.9298 8.4999 27.9298 8.5999 27.9298L16.0999 23.5298L16.1999 23.4298V21.1298C16.1999 21.0298 16.0999 21.0298 15.9999 21.0298L8.3999 25.7298C8.3999 25.6298 8.3999 25.6298 8.3999 25.7298Z" fill="white"/>
<path d="M8.3999 25.7298V27.8298C8.3999 27.9298 8.4999 27.9298 8.5999 27.9298L16.0999 23.5298L16.1999 23.4298V21.1298C16.1999 21.0298 16.0999 21.0298 15.9999 21.0298L8.3999 25.7298ZM8.3999 25.7298C8.3999 25.6298 8.3999 25.6298 8.3999 25.7298Z" stroke="#004071" stroke-width="1.3" stroke-miterlimit="10" stroke-linecap="round"/>
<path d="M10.4998 12.93L17.7998 8.72998H17.8998L25.2998 12.83C25.3998 12.83 25.3998 12.93 25.2998 13.03L17.6998 17.13H17.5998L10.4998 13.13C10.3998 13.13 10.3998 13.03 10.4998 12.93Z" fill="white" stroke="#004071" stroke-width="1.3" stroke-miterlimit="10" stroke-linecap="round"/>
<path d="M10.3997 27.5299L17.3997 31.5299C17.4997 31.5299 17.5997 31.5299 17.5997 31.4299L17.6997 17.3299C17.6997 17.3299 17.6997 17.2299 17.5997 17.2299L10.5997 13.1299C10.4997 13.1299 10.3997 13.1299 10.3997 13.2299V27.5299C10.2997 27.4299 10.2997 27.4299 10.3997 27.5299Z" fill="white"/>
<path d="M10.3997 27.5299L17.3997 31.5299C17.4997 31.5299 17.5997 31.5299 17.5997 31.4299L17.6997 17.3299C17.6997 17.3299 17.6997 17.2299 17.5997 17.2299L10.5997 13.1299C10.4997 13.1299 10.3997 13.1299 10.3997 13.2299V27.5299ZM10.3997 27.5299C10.2997 27.4299 10.2997 27.4299 10.3997 27.5299Z" stroke="#004071" stroke-width="1.3" stroke-miterlimit="10" stroke-linecap="round"/>
<path d="M17.7 17.1298L17.5 31.3298C17.5 31.4298 17.6 31.4298 17.7 31.4298L25.4 26.8298L25.5 26.7298V13.1298C25.5 13.0298 25.4 13.0298 25.3 13.0298L17.7 17.1298Z" fill="white" stroke="#004071" stroke-width="1.3" stroke-miterlimit="10" stroke-linecap="round"/>
<path d="M17.3999 28.0301L17.5999 33.6301C17.5999 33.7301 17.6999 33.7301 17.7999 33.7301L25.2999 29.3301L25.3999 29.2301V23.4301C25.3999 23.3301 25.2999 23.3301 25.1999 23.3301L17.3999 28.0301Z" fill="white" stroke="#004071" stroke-width="1.3" stroke-miterlimit="10" stroke-linecap="round"/>
<path d="M10.3998 29.6302L17.4998 33.7302C17.5998 33.7302 17.6998 33.7302 17.6998 33.6302L17.5998 28.0302C17.5998 28.0302 17.5998 27.9302 17.4998 27.9302L10.4998 23.9302C10.3998 23.9302 10.2998 23.9302 10.2998 24.0302L10.3998 29.6302C10.2998 29.6302 10.2998 29.6302 10.3998 29.6302Z" fill="white"/>
<path d="M10.3998 29.6302L17.4998 33.7302C17.5998 33.7302 17.6998 33.7302 17.6998 33.6302L17.5998 28.0302C17.5998 28.0302 17.5998 27.9302 17.4998 27.9302L10.4998 23.9302C10.3998 23.9302 10.2998 23.9302 10.2998 24.0302L10.3998 29.6302ZM10.3998 29.6302C10.2998 29.6302 10.2998 29.6302 10.3998 29.6302Z" stroke="#004071" stroke-width="1.3" stroke-miterlimit="10" stroke-linecap="round"/>
<path d="M19.5999 27.5301L26.8999 23.3301H26.9999L34.3999 27.4301C34.4999 27.4301 34.4999 27.5301 34.3999 27.6301L26.7999 31.7301H26.6999L19.5999 27.7301C19.4999 27.7301 19.4999 27.6301 19.5999 27.5301Z" fill="white" stroke="#004071" stroke-width="1.3" stroke-miterlimit="10" stroke-linecap="round"/>
<path d="M19.4999 32.1301L26.4999 36.1301C26.5999 36.1301 26.6999 36.1301 26.6999 36.0301L26.7999 31.9301C26.7999 31.9301 26.7999 31.8301 26.6999 31.8301L19.5999 27.8301C19.4999 27.8301 19.3999 27.8301 19.3999 27.9301L19.4999 32.1301Z" fill="white" stroke="#004071" stroke-width="1.3" stroke-miterlimit="10" stroke-linecap="round"/>
<path d="M19.4999 34.2303L26.5999 38.3303C26.6999 38.3303 26.7999 38.3303 26.7999 38.2303L26.6999 36.1303C26.6999 36.1303 26.6999 36.0303 26.5999 36.0303L19.5999 32.0303C19.4999 32.0303 19.3999 32.0303 19.3999 32.1303L19.4999 34.2303Z" fill="white" stroke="#004071" stroke-width="1.3" stroke-miterlimit="10" stroke-linecap="round"/>
<path d="M26.6997 36.1302V38.2302C26.6997 38.3302 26.7997 38.3302 26.8997 38.3302L34.3997 33.9302L34.4997 33.8302V31.5302C34.4997 31.4302 34.3997 31.4302 34.2997 31.4302L26.6997 36.1302C26.6997 36.0302 26.6997 36.0302 26.6997 36.1302Z" fill="white"/>
<path d="M26.6997 36.1302V38.2302C26.6997 38.3302 26.7997 38.3302 26.8997 38.3302L34.3997 33.9302L34.4997 33.8302V31.5302C34.4997 31.4302 34.3997 31.4302 34.2997 31.4302L26.6997 36.1302ZM26.6997 36.1302C26.6997 36.0302 26.6997 36.0302 26.6997 36.1302Z" stroke="#004071" stroke-width="1.3" stroke-miterlimit="10" stroke-linecap="round"/>
<path d="M26.6997 31.6303V35.5303C26.6997 35.6303 26.7997 35.6303 26.8997 35.6303L34.3997 31.5303L34.4997 31.4303L34.3997 27.6303C34.3997 27.5303 34.2997 27.5303 34.1997 27.5303L26.6997 31.6303C26.7997 31.5303 26.6997 31.5303 26.6997 31.6303Z" fill="white"/>
<path d="M26.6997 31.6303V35.5303C26.6997 35.6303 26.7997 35.6303 26.8997 35.6303L34.3997 31.5303L34.4997 31.4303L34.3997 27.6303C34.3997 27.5303 34.2997 27.5303 34.1997 27.5303L26.6997 31.6303ZM26.6997 31.6303C26.6997 31.5303 26.7997 31.5303 26.6997 31.6303Z" stroke="#004071" stroke-width="1.3" stroke-miterlimit="10" stroke-linecap="round"/>
<path d="M33.1999 29.73L22.1999 50.73C21.2999 52.53 21.9999 54.63 23.6999 55.63C25.4999 56.53 27.5999 55.83 28.5999 54.13L36.3999 39.33L37.6999 36.73L38.2999 35.53L39.2999 33.73" fill="#A3BAC9"/>
<path d="M33.1999 29.73L22.1999 50.73C21.2999 52.53 21.9999 54.63 23.6999 55.63C25.4999 56.53 27.5999 55.83 28.5999 54.13L36.3999 39.33" stroke="#004071" stroke-width="1.3" stroke-miterlimit="10" stroke-linecap="round"/>
<path d="M37.6997 36.7298L38.2997 35.5298" stroke="#004071" stroke-width="1.3" stroke-miterlimit="10" stroke-linecap="round"/>
<path d="M60.4 13.5302C58.1 4.63018 49 -0.769817 40.1 1.53018C31.2 3.83018 25.8 12.8302 28.1 21.7302C30.4 30.6302 39.4 36.0302 48.3 33.7302C57.2 31.5302 62.6 22.4302 60.4 13.5302ZM32.4 20.6302C30.7 14.0302 34.7 7.43018 41.3 5.73018C47.9 4.03018 54.5 8.03018 56.2 14.6302C57.9 21.2302 53.9 27.8302 47.3 29.5302C40.7 31.1302 34.1 27.2302 32.4 20.6302Z" fill="#A3BAC9" stroke="#004071" stroke-width="1.3" stroke-miterlimit="10" stroke-linecap="round"/>
</svg>
