<svg width="50" height="63" viewBox="0 0 50 63" fill="none" xmlns="http://www.w3.org/2000/svg">
<path d="M34.7 56.7002H4C2.3 56.7002 1 55.4002 1 53.7002V12.2002C1 10.5002 2.3 9.2002 4 9.2002H34.7C36.4 9.2002 37.7 10.5002 37.7 12.2002V53.7002C37.7 55.3002 36.4 56.7002 34.7 56.7002Z" fill="white" stroke="#004071" stroke-width="1.3" stroke-miterlimit="10" stroke-linecap="round"/>
<path d="M11.8998 23.8001C14.7165 23.8001 16.9998 21.5168 16.9998 18.7001C16.9998 15.8834 14.7165 13.6001 11.8998 13.6001C9.08315 13.6001 6.7998 15.8834 6.7998 18.7001C6.7998 21.5168 9.08315 23.8001 11.8998 23.8001Z" fill="#A3BAC9" stroke="#004071" stroke-width="1.3" stroke-miterlimit="10" stroke-linecap="round"/>
<path d="M3.39995 31.4999C2.59995 28.9999 6.19995 23.8999 11.8999 23.8999C17.3999 23.8999 20.8999 28.9999 20.1999 31.4999H3.39995Z" fill="#A3BAC9" stroke="#004071" stroke-width="1.3" stroke-miterlimit="10" stroke-linecap="round"/>
<path d="M19.8001 1C17.5001 1 15.6001 2.9 15.6001 5.2V10.5C15.6001 11.6 16.5001 12.5 17.6001 12.5H21.9001C23.0001 12.5 23.9001 11.6 23.9001 10.5V5.2C24.0001 2.9 22.1001 1 19.8001 1ZM19.8001 7.2C18.6001 7.2 17.7001 6.2 17.7001 5.1C17.7001 4 18.7001 3 19.8001 3C20.9001 3 21.9001 4 21.9001 5.1C21.9001 6.2 21.0001 7.2 19.8001 7.2Z" fill="white" stroke="#004071" stroke-width="1.3" stroke-miterlimit="10" stroke-linecap="round"/>
<path d="M37.6999 62.1C44.493 62.1 49.9999 56.5931 49.9999 49.8C49.9999 43.0069 44.493 37.5 37.6999 37.5C30.9068 37.5 25.3999 43.0069 25.3999 49.8C25.3999 56.5931 30.9068 62.1 37.6999 62.1Z" fill="#004071"/>
<path d="M29.7002 49.7001L33.4002 54.8001L44.6002 44.6001" stroke="white" stroke-width="3" stroke-miterlimit="10" stroke-linecap="round" stroke-linejoin="round"/>
<path d="M21.1001 18H33.6001" stroke="#004071" stroke-width="1.3" stroke-miterlimit="10" stroke-linecap="round"/>
<path d="M21.1001 21.7998H33.6001" stroke="#004071" stroke-width="1.3" stroke-miterlimit="10" stroke-linecap="round"/>
<path d="M24.5 29.2998H33.6" stroke="#004071" stroke-width="1.3" stroke-miterlimit="10" stroke-linecap="round"/>
<path d="M5.7998 36H33.2998" stroke="#004071" stroke-width="1.3" stroke-miterlimit="10" stroke-linecap="round"/>
<path d="M5.7998 43.7998H25.1998" stroke="#004071" stroke-width="1.3" stroke-miterlimit="10" stroke-linecap="round"/>
<path d="M5.7998 47.7002H23.9998" stroke="#004071" stroke-width="1.3" stroke-miterlimit="10" stroke-linecap="round"/>
<path d="M21.1001 25.5H33.6001" stroke="#004071" stroke-width="1.3" stroke-miterlimit="10" stroke-linecap="round"/>
<path d="M5.7998 39.8999H25.1998" stroke="#004071" stroke-width="1.3" stroke-miterlimit="10" stroke-linecap="round"/>
</svg>
