<svg width="18" height="18" viewBox="0 0 18 18" fill="none" xmlns="http://www.w3.org/2000/svg">
<path d="M8.40817 11.7415C8.37234 11.7811 8.33894 11.8228 8.30817 11.8665C8.27664 11.913 8.25141 11.9634 8.23317 12.0165C8.20915 12.0637 8.1923 12.1143 8.18317 12.1665C8.17908 12.222 8.17908 12.2777 8.18317 12.3332C8.18036 12.4425 8.20319 12.5509 8.24984 12.6498C8.28727 12.7533 8.34698 12.8472 8.42475 12.9249C8.50251 13.0027 8.59643 13.0624 8.69984 13.0998C8.79959 13.1439 8.90745 13.1667 9.01651 13.1667C9.12557 13.1667 9.23342 13.1439 9.33317 13.0998C9.43659 13.0624 9.5305 13.0027 9.60827 12.9249C9.68604 12.8472 9.74575 12.7533 9.78317 12.6498C9.82018 12.5485 9.83716 12.441 9.83317 12.3332C9.83381 12.2235 9.81279 12.1148 9.77132 12.0132C9.72985 11.9117 9.66874 11.8194 9.59151 11.7415C9.51404 11.6634 9.42187 11.6014 9.32032 11.5591C9.21877 11.5168 9.10985 11.495 8.99984 11.495C8.88983 11.495 8.78091 11.5168 8.67936 11.5591C8.57781 11.6014 8.48564 11.6634 8.40817 11.7415ZM8.99984 0.666504C7.35166 0.666504 5.7405 1.15525 4.37009 2.07092C2.99968 2.9866 1.93158 4.28809 1.30084 5.81081C0.670115 7.33353 0.505087 9.00908 0.82663 10.6256C1.14817 12.2421 1.94185 13.727 3.10728 14.8924C4.27272 16.0578 5.75758 16.8515 7.37409 17.173C8.9906 17.4946 10.6662 17.3296 12.1889 16.6988C13.7116 16.0681 15.0131 15 15.9288 13.6296C16.8444 12.2592 17.3332 10.648 17.3332 8.99984C17.3332 7.90549 17.1176 6.82186 16.6988 5.81081C16.28 4.79976 15.6662 3.8811 14.8924 3.10728C14.1186 2.33346 13.1999 1.71963 12.1889 1.30084C11.1778 0.882052 10.0942 0.666504 8.99984 0.666504ZM8.99984 15.6665C7.6813 15.6665 6.39237 15.2755 5.29604 14.543C4.19971 13.8104 3.34523 12.7692 2.84064 11.5511C2.33606 10.3329 2.20404 8.99244 2.46127 7.69924C2.71851 6.40603 3.35345 5.21814 4.2858 4.28579C5.21815 3.35344 6.40603 2.7185 7.69924 2.46127C8.99245 2.20403 10.3329 2.33606 11.5511 2.84064C12.7692 3.34522 13.8104 4.19971 14.543 5.29604C15.2755 6.39236 15.6665 7.6813 15.6665 8.99984C15.6665 10.7679 14.9641 12.4636 13.7139 13.7139C12.4636 14.9641 10.768 15.6665 8.99984 15.6665ZM8.99984 4.83317C8.56073 4.83289 8.12929 4.94827 7.74893 5.16771C7.36858 5.38714 7.05273 5.70289 6.83317 6.08317C6.77288 6.17802 6.73239 6.28408 6.71415 6.39498C6.69591 6.50588 6.70029 6.61933 6.72703 6.72849C6.75377 6.83766 6.80231 6.94028 6.86974 7.0302C6.93717 7.12012 7.0221 7.19546 7.1194 7.25171C7.2167 7.30795 7.32438 7.34393 7.43595 7.35749C7.54752 7.37104 7.66068 7.36188 7.76862 7.33057C7.87656 7.29925 7.97705 7.24643 8.06405 7.17527C8.15104 7.10411 8.22275 7.01609 8.27484 6.9165C8.34826 6.78933 8.45398 6.68382 8.5813 6.61065C8.70861 6.53748 8.853 6.49925 8.99984 6.49984C9.22085 6.49984 9.43282 6.58764 9.5891 6.74392C9.74538 6.9002 9.83317 7.11216 9.83317 7.33317C9.83317 7.55418 9.74538 7.76615 9.5891 7.92243C9.43282 8.07871 9.22085 8.1665 8.99984 8.1665C8.77883 8.1665 8.56687 8.2543 8.41059 8.41058C8.25431 8.56686 8.16651 8.77882 8.16651 8.99984V9.83317C8.16651 10.0542 8.25431 10.2661 8.41059 10.4224C8.56687 10.5787 8.77883 10.6665 8.99984 10.6665C9.22085 10.6665 9.43282 10.5787 9.5891 10.4224C9.74538 10.2661 9.83317 10.0542 9.83317 9.83317V9.68317C10.3843 9.48319 10.8476 9.09586 11.1421 8.58889C11.4367 8.08193 11.5436 7.48758 11.4443 6.90975C11.3451 6.33191 11.0458 5.80735 10.599 5.42777C10.1522 5.04818 9.58613 4.83772 8.99984 4.83317Z" fill="#282828" fill-opacity="0.7"/>
</svg>
