<svg width="22" height="14" viewBox="0 0 22 14" fill="none" xmlns="http://www.w3.org/2000/svg">
<path d="M5.71 4.29C5.61704 4.19627 5.50644 4.12188 5.38458 4.07111C5.26272 4.02034 5.13201 3.9942 5 3.9942C4.86799 3.9942 4.73728 4.02034 4.61542 4.07111C4.49356 4.12188 4.38296 4.19627 4.29 4.29C4.19896 4.3851 4.12759 4.49725 4.08 4.62C4.00342 4.80211 3.9825 5.00282 4.01987 5.19681C4.05725 5.3908 4.15124 5.56938 4.29 5.71C4.3872 5.79833 4.49882 5.86936 4.62 5.92C4.73868 5.97598 4.86882 6.00338 5 6C5.16378 5.99918 5.32486 5.95815 5.46907 5.88051C5.61328 5.80287 5.73622 5.69099 5.82707 5.55471C5.91792 5.41843 5.97391 5.26193 5.99011 5.09895C6.00632 4.93597 5.98224 4.7715 5.92 4.62C5.87241 4.49725 5.80104 4.3851 5.71 4.29ZM9 6C9.16378 5.99918 9.32486 5.95815 9.46907 5.88051C9.61328 5.80287 9.73622 5.69099 9.82707 5.55471C9.91792 5.41843 9.97391 5.26193 9.99011 5.09895C10.0063 4.93597 9.98224 4.7715 9.92 4.62C9.87241 4.49725 9.80104 4.3851 9.71 4.29C9.59555 4.17117 9.45347 4.0825 9.29644 4.0319C9.13941 3.9813 8.9723 3.97034 8.81 4C8.74377 4.00927 8.67955 4.02955 8.62 4.06L8.44 4.15L8.29 4.27C8.10253 4.46665 7.99858 4.72831 8 5C8 5.26522 8.10536 5.51957 8.29289 5.70711C8.48043 5.89464 8.73478 6 9 6ZM5.38 8.08C5.13654 7.97998 4.86346 7.97998 4.62 8.08C4.43738 8.15502 4.28105 8.28242 4.17072 8.44614C4.06039 8.60986 4.00099 8.80257 4 9C4.00082 9.16378 4.04185 9.32486 4.11949 9.46907C4.19713 9.61328 4.30901 9.73622 4.44529 9.82707C4.58156 9.91792 4.73807 9.97391 4.90105 9.99011C5.06403 10.0063 5.2285 9.98224 5.38 9.92C5.50118 9.86936 5.6128 9.79833 5.71 9.71C5.80268 9.61656 5.87601 9.50574 5.92577 9.38391C5.97554 9.26207 6.00076 9.13161 6 9C6.00076 8.86839 5.97554 8.73793 5.92577 8.61609C5.87601 8.49426 5.80268 8.38344 5.71 8.29C5.61613 8.1974 5.50364 8.12581 5.38 8.08ZM13 8H9C8.73478 8 8.48043 8.10536 8.29289 8.29289C8.10536 8.48043 8 8.73478 8 9C8 9.26522 8.10536 9.51957 8.29289 9.70711C8.48043 9.89464 8.73478 10 9 10H13C13.2652 10 13.5196 9.89464 13.7071 9.70711C13.8946 9.51957 14 9.26522 14 9C14 8.73478 13.8946 8.48043 13.7071 8.29289C13.5196 8.10536 13.2652 8 13 8ZM13.71 4.29C13.617 4.19627 13.5064 4.12188 13.3846 4.07111C13.2627 4.02034 13.132 3.9942 13 3.9942C12.868 3.9942 12.7373 4.02034 12.6154 4.07111C12.4936 4.12188 12.383 4.19627 12.29 4.29C12.199 4.3851 12.1276 4.49725 12.08 4.62C12.0217 4.75688 11.9947 4.90505 12.0009 5.05369C12.0072 5.20233 12.0465 5.34771 12.1161 5.47923C12.1856 5.61075 12.2836 5.72509 12.403 5.81392C12.5223 5.90276 12.66 5.96384 12.8059 5.99273C12.9519 6.02161 13.1024 6.01757 13.2466 5.98089C13.3908 5.94422 13.525 5.87583 13.6394 5.78072C13.7538 5.68561 13.8455 5.56617 13.9079 5.43111C13.9703 5.29605 14.0017 5.14876 14 5C14.0034 4.86882 13.976 4.73868 13.92 4.62C13.8724 4.49725 13.801 4.3851 13.71 4.29ZM17.56 8.17C17.5043 8.13215 17.4437 8.10189 17.38 8.08C17.1365 7.97998 16.8635 7.97998 16.62 8.08C16.4988 8.13064 16.3872 8.20167 16.29 8.29C16.1073 8.48163 16.0037 8.73523 16 9C16 9.26522 16.1054 9.51957 16.2929 9.70711C16.4804 9.89464 16.7348 10 17 10C17.2652 10 17.5196 9.89464 17.7071 9.70711C17.8946 9.51957 18 9.26522 18 9C17.9963 8.73523 17.8927 8.48163 17.71 8.29L17.56 8.17ZM19 0H3C2.20435 0 1.44129 0.316071 0.87868 0.87868C0.31607 1.44129 0 2.20435 0 3V11C0 11.7956 0.31607 12.5587 0.87868 13.1213C1.44129 13.6839 2.20435 14 3 14H19C19.7956 14 20.5587 13.6839 21.1213 13.1213C21.6839 12.5587 22 11.7956 22 11V3C22 2.20435 21.6839 1.44129 21.1213 0.87868C20.5587 0.316071 19.7956 0 19 0ZM20 11C20 11.2652 19.8946 11.5196 19.7071 11.7071C19.5196 11.8946 19.2652 12 19 12H3C2.73478 12 2.48043 11.8946 2.29289 11.7071C2.10536 11.5196 2 11.2652 2 11V3C2 2.73478 2.10536 2.48043 2.29289 2.29289C2.48043 2.10536 2.73478 2 3 2H19C19.2652 2 19.5196 2.10536 19.7071 2.29289C19.8946 2.48043 20 2.73478 20 3V11ZM17.71 4.29C17.5701 4.14897 17.3914 4.05279 17.1967 4.01372C17.0019 3.97465 16.8 3.99446 16.6165 4.07063C16.4331 4.1468 16.2765 4.27587 16.1667 4.44139C16.0569 4.60691 15.9988 4.80138 16 5C15.9983 5.14876 16.0297 5.29605 16.0921 5.43111C16.1545 5.56617 16.2462 5.68561 16.3606 5.78072C16.475 5.87583 16.6092 5.94422 16.7534 5.98089C16.8976 6.01757 17.0481 6.02161 17.1941 5.99273C17.34 5.96384 17.4777 5.90276 17.597 5.81392C17.7164 5.72509 17.8144 5.61075 17.8839 5.47923C17.9535 5.34771 17.9928 5.20233 17.9991 5.05369C18.0053 4.90505 17.9783 4.75688 17.92 4.62C17.8724 4.49725 17.801 4.3851 17.71 4.29Z" fill="#282828" fill-opacity="0.7"/>
</svg>
