<svg width="1512" height="452" viewBox="0 0 1512 452" fill="none" xmlns="http://www.w3.org/2000/svg">
<g clip-path="url(#clip0_108_481)">
<rect width="1512" height="452" fill="#003E73"/>
<rect width="1512" height="454" fill="#23366E" fill-opacity="0.1"/>
<g clip-path="url(#clip1_108_481)">
<path d="M21.5 -0.5L27 5V49.5H9V34.5" stroke="#0078CC" stroke-width="2"/>
<path d="M1143.5 129L1166 151.5V191.5L1155 202.5" stroke="#0078CC" stroke-width="2"/>
<path d="M1409.5 26L1430 46.5V125" stroke="#0078CC" stroke-width="2"/>
<path d="M1426.5 4V17L1450 40.5L1486.5 4V-1" stroke="#0078CC" stroke-width="2"/>
<path d="M1345 0L1362 17V123H1383.5V25L1409.5 -1" stroke="#0078CC" stroke-width="2"/>
<path d="M1298 175.5V187.5L1320.5 210L1361 169.5V153.5" stroke="#0078CC" stroke-width="2"/>
<path d="M1320 103.5V181L1341 160V30" stroke="#0078CC" stroke-width="2"/>
<path d="M1319.5 0V63.5L1297 86V134" stroke="#0078CC" stroke-width="2"/>
<path d="M1280.5 -2L1296.5 14V60L1252.5 104V189.5L1273 169V116" stroke="#0078CC" stroke-width="2"/>
<path d="M1251.5 -1L1270 17.5V49.5L1251.5 68" stroke="#0078CC" stroke-width="2"/>
<path d="M1232.5 -0.5V26.5L1246 41" stroke="#0078CC" stroke-width="2"/>
<path d="M1206.5 60.5L1190 77V144.5L1218.5 173L1226 165.5" stroke="#0078CC" stroke-width="2"/>
<path d="M1210 122V76.5H1229V131L1212 148" stroke="#0078CC" stroke-width="2"/>
<path d="M1189 -0.5V26" stroke="#0078CC" stroke-width="2"/>
<path d="M1144.5 -1.5V8L1102.5 50V93.5L1120 111" stroke="#0078CC" stroke-width="2"/>
<path d="M1166.5 -1.5V25L1145 46.5V75.5" stroke="#0078CC" stroke-width="2"/>
<path d="M1123 60.5V90L1147.5 114.5H1166.5V69L1208 27.5V-1.5" stroke="#0078CC" stroke-width="2"/>
<path d="M1119 180.5L1104 165.5V130.5H1117.5L1144.5 157.5V185L1131 198.5" stroke="#0078CC" stroke-width="2"/>
<path d="M1036 165L1055 146H1080V178.5" stroke="#0078CC" stroke-width="2"/>
<path d="M896.5 192L923 165.5L941 183.5V225" stroke="#0078CC" stroke-width="2"/>
<path d="M968 0V62.5L986.5 81" stroke="#0078CC" stroke-width="2"/>
<path d="M989 -1V44" stroke="#0078CC" stroke-width="2"/>
<path d="M1014 -0.5V81.5L988.5 107V136L967.5 157" stroke="#0078CC" stroke-width="2"/>
<path d="M1034 -0.5V91L1055.5 112.5" stroke="#0078CC" stroke-width="2"/>
<path d="M1018.5 107.5L1038.5 127.5H1082V38.5L1101.5 19V-0.5" stroke="#0078CC" stroke-width="2"/>
<path d="M1054 -0.5V79" stroke="#0078CC" stroke-width="2"/>
<path d="M1012 133V178L1031 197" stroke="#0078CC" stroke-width="2"/>
<path d="M924 42V115.098L943 133" stroke="#0078CC" stroke-width="2"/>
<path d="M918.5 -2.5L947 26V101.5L959 113.5" stroke="#0078CC" stroke-width="2"/>
<path d="M856 214.5V206L896.5 165.5V85L887.5 76" stroke="#0078CC" stroke-width="2"/>
<path d="M812 189.5V216" stroke="#0078CC" stroke-width="2"/>
<path d="M890 -1L896 5V51.5H877V33.5" stroke="#0078CC" stroke-width="2"/>
<path d="M852.5 86L834 104.5V164" stroke="#0078CC" stroke-width="2"/>
<path d="M839 67H854L876.5 89.5V155L835 196.5" stroke="#0078CC" stroke-width="2"/>
<path d="M712.5 0V25L691.5 46" stroke="#0078CC" stroke-width="2"/>
<path d="M734.5 0V34.5L691 78V167.5L710 148.5V82" stroke="#0078CC" stroke-width="2"/>
<path d="M631 149.5L648.5 167V209" stroke="#0078CC" stroke-width="2"/>
<path d="M678 206.5V173.5L662 157.5" stroke="#0078CC" stroke-width="2"/>
<path d="M648 99.5V56H669V105.5L653.5 121" stroke="#0078CC" stroke-width="2"/>
<path d="M626 88L610.5 103.5" stroke="#0078CC" stroke-width="2"/>
<path d="M668.5 -0.5V8L682 21.5" stroke="#0078CC" stroke-width="2"/>
<path d="M644.5 38.5L587 96V121" stroke="#0078CC" stroke-width="2"/>
<path d="M590 57L643.5 3.5V-2" stroke="#0078CC" stroke-width="2"/>
<path d="M479.5 0L494 14.5V121.5H517.5V23L542.5 -2" stroke="#0078CC" stroke-width="2"/>
<path d="M343 189V218L361 236V194.5" stroke="#0078CC" stroke-width="2"/>
<path d="M1486 146V175L1504 193V151.5" stroke="#0078CC" stroke-width="2"/>
<path d="M451 102V182L476 157V28" stroke="#0078CC" stroke-width="2"/>
<path d="M428 176.21V187.303L451.685 211L492 170.664V151" stroke="#0078CC" stroke-width="2"/>
<path d="M338 60L320 78V143L341 164H359.5" stroke="#0078CC" stroke-width="2"/>
<path d="M276.5 184V153.5L253 130H234.5V167L249 181.5" stroke="#0078CC" stroke-width="2"/>
<path d="M276 -0.5V8L234.5 49.5V93L252 110.5" stroke="#0078CC" stroke-width="2"/>
<path d="M169 163.5L188 144.5H211V178" stroke="#0078CC" stroke-width="2"/>
<path d="M235 0V18L213 40V125.5H169.5L152 108" stroke="#0078CC" stroke-width="2"/>
<path d="M144.5 134V171" stroke="#0078CC" stroke-width="2"/>
<path d="M185 -0.5V77" stroke="#0078CC" stroke-width="2"/>
<path d="M166.5 -1V89L187 109.5" stroke="#0078CC" stroke-width="2"/>
<path d="M51.5 137.5L88.5 174.5" stroke="#0078CC" stroke-width="2"/>
<path d="M146 -0.5V82.5L121 107.5V134.5L100 155.5" stroke="#0078CC" stroke-width="2"/>
<path d="M120 -0.5V43.5" stroke="#0078CC" stroke-width="2"/>
<path d="M57 41.5V115L75.5 133.5" stroke="#0078CC" stroke-width="2"/>
<path d="M53.5 -0.5L78.5 24.5V99L91.5 112" stroke="#0078CC" stroke-width="2"/>
<path d="M99.5 0V64L117 81.5" stroke="#0078CC" stroke-width="2"/>
<path d="M299 -1V28.3226L277 50.6774V78" stroke="#0078CC" stroke-width="2"/>
<path d="M255 60V87.5L279.355 112H298.243V69.5L339 28.5V0" stroke="#0078CC" stroke-width="2"/>
<path d="M321 -1V23" stroke="#0078CC" stroke-width="2"/>
<path d="M363 -0.5V28.5L376 41.5" stroke="#0078CC" stroke-width="2"/>
<path d="M382 -1L402 19V47.5L382 67.5" stroke="#0078CC" stroke-width="2"/>
<path d="M276.5 130L300 153.5V183.5" stroke="#0078CC" stroke-width="2"/>
<path d="M412.5 -1L427.5 14V59.5L384 103V191.5L405 170.5V113.5" stroke="#0078CC" stroke-width="2"/>
<path d="M450 0V65L427 88V135" stroke="#0078CC" stroke-width="2"/>
<path d="M540.5 25L561 45.5V124" stroke="#0078CC" stroke-width="2"/>
<path d="M560 3.5V16L584.5 40.5L624 1" stroke="#0078CC" stroke-width="2"/>
<path d="M587.5 -1L595.5 8L604.5 -1" stroke="#0078CC" stroke-width="2"/>
<path d="M540 65V139.753L565 164.336V213" stroke="#0078CC" stroke-width="2"/>
<path d="M537 163.5L518.5 145V210.5" stroke="#0078CC" stroke-width="2"/>
<path d="M540 211.5V191" stroke="#0078CC" stroke-width="2"/>
<path d="M755 0V42.5L734 63.5V111" stroke="#0078CC" stroke-width="2"/>
<path d="M733 151V164L753 184" stroke="#0078CC" stroke-width="2"/>
<path d="M1405 154V167L1425 187" stroke="#0078CC" stroke-width="2"/>
<path d="M756 83.5V159.5L783.5 187L806 164.5V126" stroke="#0078CC" stroke-width="2"/>
<path d="M807.5 89.5L785 67V151" stroke="#0078CC" stroke-width="2"/>
<path d="M832 -2V11.5L793 50.5L777 34.5" stroke="#0078CC" stroke-width="2"/>
<path d="M833 38.5L813.5 58" stroke="#0078CC" stroke-width="2"/>
<path d="M854 -1.5V50.5" stroke="#0078CC" stroke-width="2"/>
<path d="M868 -1L874 5" stroke="#0078CC" stroke-width="2"/>
<path d="M918.5 135L967.5 184L990.5 161" stroke="#0078CC" stroke-width="2"/>
<path d="M1459 58.5L1511.5 6V-1" stroke="#0078CC" stroke-width="2"/>
<path d="M1455.5 121.5V91L1509.5 37" stroke="#0078CC" stroke-width="2"/>
<path d="M1478.5 101.5L1492.5 87.5" stroke="#0078CC" stroke-width="2"/>
<path d="M1320 108C1322.76 108 1325 105.761 1325 103C1325 100.239 1322.76 98 1320 98C1317.24 98 1315 100.239 1315 103C1315 105.761 1317.24 108 1320 108Z" fill="#0078CC"/>
<path d="M1298 182C1300.76 182 1303 179.761 1303 177C1303 174.239 1300.76 172 1298 172C1295.24 172 1293 174.239 1293 177C1293 179.761 1295.24 182 1298 182Z" fill="#0078CC"/>
<path d="M1297 139C1299.76 139 1302 136.761 1302 134C1302 131.239 1299.76 129 1297 129C1294.24 129 1292 131.239 1292 134C1292 136.761 1294.24 139 1297 139Z" fill="#0078CC"/>
<path d="M1273 122C1275.76 122 1278 119.761 1278 117C1278 114.239 1275.76 112 1273 112C1270.24 112 1268 114.239 1268 117C1268 119.761 1270.24 122 1273 122Z" fill="#0078CC"/>
<path d="M1212 153C1214.76 153 1217 150.761 1217 148C1217 145.239 1214.76 143 1212 143C1209.24 143 1207 145.239 1207 148C1207 150.761 1209.24 153 1212 153Z" fill="#0078CC"/>
<path d="M1210 126C1212.76 126 1215 123.761 1215 121C1215 118.239 1212.76 116 1210 116C1207.24 116 1205 118.239 1205 121C1205 123.761 1207.24 126 1210 126Z" fill="#0078CC"/>
<path d="M1227 169C1229.76 169 1232 166.761 1232 164C1232 161.239 1229.76 159 1227 159C1224.24 159 1222 161.239 1222 164C1222 166.761 1224.24 169 1227 169Z" fill="#0078CC"/>
<path d="M1252 72C1254.76 72 1257 69.7614 1257 67C1257 64.2386 1254.76 62 1252 62C1249.24 62 1247 64.2386 1247 67C1247 69.7614 1249.24 72 1252 72Z" fill="#0078CC"/>
<path d="M1246 46C1248.76 46 1251 43.7614 1251 41C1251 38.2386 1248.76 36 1246 36C1243.24 36 1241 38.2386 1241 41C1241 43.7614 1243.24 46 1246 46Z" fill="#0078CC"/>
<path d="M1207 64C1209.76 64 1212 61.7614 1212 59C1212 56.2386 1209.76 54 1207 54C1204.24 54 1202 56.2386 1202 59C1202 61.7614 1204.24 64 1207 64Z" fill="#0078CC"/>
<path d="M1341 34C1343.76 34 1346 31.7614 1346 29C1346 26.2386 1343.76 24 1341 24C1338.24 24 1336 26.2386 1336 29C1336 31.7614 1338.24 34 1341 34Z" fill="#0078CC"/>
<path d="M1346 5C1348.76 5 1351 2.76142 1351 0C1351 -2.76142 1348.76 -5 1346 -5C1343.24 -5 1341 -2.76142 1341 0C1341 2.76142 1343.24 5 1346 5Z" fill="#0078CC"/>
<path d="M1378 5C1380.76 5 1383 2.76142 1383 0C1383 -2.76142 1380.76 -5 1378 -5C1375.24 -5 1373 -2.76142 1373 0C1373 2.76142 1375.24 5 1378 5Z" fill="#0078CC"/>
<path d="M1427 9C1429.76 9 1432 6.76142 1432 4C1432 1.23858 1429.76 -1 1427 -1C1424.24 -1 1422 1.23858 1422 4C1422 6.76142 1424.24 9 1427 9Z" fill="#0078CC"/>
<path d="M1409 30C1411.76 30 1414 27.7614 1414 25C1414 22.2386 1411.76 20 1409 20C1406.24 20 1404 22.2386 1404 25C1404 27.7614 1406.24 30 1409 30Z" fill="#0078CC"/>
<path d="M1459 64C1461.76 64 1464 61.7614 1464 59C1464 56.2386 1461.76 54 1459 54C1456.24 54 1454 56.2386 1454 59C1454 61.7614 1456.24 64 1459 64Z" fill="#0078CC"/>
<path d="M1456 125C1458.76 125 1461 122.761 1461 120C1461 117.239 1458.76 115 1456 115C1453.24 115 1451 117.239 1451 120C1451 122.761 1453.24 125 1456 125Z" fill="#0078CC"/>
<path d="M1430 133C1432.76 133 1435 130.761 1435 128C1435 125.239 1432.76 123 1430 123C1427.24 123 1425 125.239 1425 128C1425 130.761 1427.24 133 1430 133Z" fill="#0078CC"/>
<path d="M1493 92C1495.76 92 1498 89.7614 1498 87C1498 84.2386 1495.76 82 1493 82C1490.24 82 1488 84.2386 1488 87C1488 89.7614 1490.24 92 1493 92Z" fill="#0078CC"/>
<path d="M1478 107C1480.76 107 1483 104.761 1483 102C1483 99.2386 1480.76 97 1478 97C1475.24 97 1473 99.2386 1473 102C1473 104.761 1475.24 107 1478 107Z" fill="#0078CC"/>
<path d="M1361 158C1363.76 158 1366 155.761 1366 153C1366 150.239 1363.76 148 1361 148C1358.24 148 1356 150.239 1356 153C1356 155.761 1358.24 158 1361 158Z" fill="#0078CC"/>
<path d="M1189 30C1191.76 30 1194 27.7614 1194 25C1194 22.2386 1191.76 20 1189 20C1186.24 20 1184 22.2386 1184 25C1184 27.7614 1186.24 30 1189 30Z" fill="#0078CC"/>
<path d="M1145 82C1147.76 82 1150 79.7614 1150 77C1150 74.2386 1147.76 72 1145 72C1142.24 72 1140 74.2386 1140 77C1140 79.7614 1142.24 82 1145 82Z" fill="#0078CC"/>
<path d="M1123 67C1125.76 67 1128 64.7614 1128 62C1128 59.2386 1125.76 57 1123 57C1120.24 57 1118 59.2386 1118 62C1118 64.7614 1120.24 67 1123 67Z" fill="#0078CC"/>
<path d="M1121 117C1123.76 117 1126 114.761 1126 112C1126 109.239 1123.76 107 1121 107C1118.24 107 1116 109.239 1116 112C1116 114.761 1118.24 117 1121 117Z" fill="#0078CC"/>
<path d="M1118 185C1120.76 185 1123 182.761 1123 180C1123 177.239 1120.76 175 1118 175C1115.24 175 1113 177.239 1113 180C1113 182.761 1115.24 185 1118 185Z" fill="#0078CC"/>
<path d="M1130 205C1132.76 205 1135 202.761 1135 200C1135 197.239 1132.76 195 1130 195C1127.24 195 1125 197.239 1125 200C1125 202.761 1127.24 205 1130 205Z" fill="#0078CC"/>
<path d="M1155 207C1157.76 207 1160 204.761 1160 202C1160 199.239 1157.76 197 1155 197C1152.24 197 1150 199.239 1150 202C1150 204.761 1152.24 207 1155 207Z" fill="#0078CC"/>
<path d="M1143 133C1145.76 133 1148 130.761 1148 128C1148 125.239 1145.76 123 1143 123C1140.24 123 1138 125.239 1138 128C1138 130.761 1140.24 133 1143 133Z" fill="#0078CC"/>
<path d="M1080 184C1082.76 184 1085 181.761 1085 179C1085 176.239 1082.76 174 1080 174C1077.24 174 1075 176.239 1075 179C1075 181.761 1077.24 184 1080 184Z" fill="#0078CC"/>
<path d="M1035 171C1037.76 171 1040 168.761 1040 166C1040 163.239 1037.76 161 1035 161C1032.24 161 1030 163.239 1030 166C1030 168.761 1032.24 171 1035 171Z" fill="#0078CC"/>
<path d="M1012 138C1014.76 138 1017 135.761 1017 133C1017 130.239 1014.76 128 1012 128C1009.24 128 1007 130.239 1007 133C1007 135.761 1009.24 138 1012 138Z" fill="#0078CC"/>
<path d="M969 161C971.761 161 974 158.761 974 156C974 153.239 971.761 151 969 151C966.239 151 964 153.239 964 156C964 158.761 966.239 161 969 161Z" fill="#0078CC"/>
<path d="M944 138C946.761 138 949 135.761 949 133C949 130.239 946.761 128 944 128C941.239 128 939 130.239 939 133C939 135.761 941.239 138 944 138Z" fill="#0078CC"/>
<path d="M919 140C921.761 140 924 137.761 924 135C924 132.239 921.761 130 919 130C916.239 130 914 132.239 914 135C914 137.761 916.239 140 919 140Z" fill="#0078CC"/>
<path d="M895 198C897.761 198 900 195.761 900 193C900 190.239 897.761 188 895 188C892.239 188 890 190.239 890 193C890 195.761 892.239 198 895 198Z" fill="#0078CC"/>
<path d="M834 202C836.761 202 839 199.761 839 197C839 194.239 836.761 192 834 192C831.239 192 829 194.239 829 197C829 199.761 831.239 202 834 202Z" fill="#0078CC"/>
<path d="M941 231C943.761 231 946 228.761 946 226C946 223.239 943.761 221 941 221C938.239 221 936 223.239 936 226C936 228.761 938.239 231 941 231Z" fill="#0078CC"/>
<path d="M885 79C887.761 79 890 76.7614 890 74C890 71.2386 887.761 69 885 69C882.239 69 880 71.2386 880 74C880 76.7614 882.239 79 885 79Z" fill="#0078CC"/>
<path d="M877 38C879.761 38 882 35.7614 882 33C882 30.2386 879.761 28 877 28C874.239 28 872 30.2386 872 33C872 35.7614 874.239 38 877 38Z" fill="#0078CC"/>
<path d="M854 54C856.761 54 859 51.7614 859 49C859 46.2386 856.761 44 854 44C851.239 44 849 46.2386 849 49C849 51.7614 851.239 54 854 54Z" fill="#0078CC"/>
<path d="M835 42C837.761 42 840 39.7614 840 37C840 34.2386 837.761 32 835 32C832.239 32 830 34.2386 830 37C830 39.7614 832.239 42 835 42Z" fill="#0078CC"/>
<path d="M812 64C814.761 64 817 61.7614 817 59C817 56.2386 814.761 54 812 54C809.239 54 807 56.2386 807 59C807 61.7614 809.239 64 812 64Z" fill="#0078CC"/>
<path d="M776 38C778.761 38 781 35.7614 781 33C781 30.2386 778.761 28 776 28C773.239 28 771 30.2386 771 33C771 35.7614 773.239 38 776 38Z" fill="#0078CC"/>
<path d="M806 94C808.761 94 811 91.7614 811 89C811 86.2386 808.761 84 806 84C803.239 84 801 86.2386 801 89C801 91.7614 803.239 94 806 94Z" fill="#0078CC"/>
<path d="M806 131C808.761 131 811 128.761 811 126C811 123.239 808.761 121 806 121C803.239 121 801 123.239 801 126C801 128.761 803.239 131 806 131Z" fill="#0078CC"/>
<path d="M785 159C787.761 159 790 156.761 790 154C790 151.239 787.761 149 785 149C782.239 149 780 151.239 780 154C780 156.761 782.239 159 785 159Z" fill="#0078CC"/>
<path d="M756 86C758.761 86 761 83.7614 761 81C761 78.2386 758.761 76 756 76C753.239 76 751 78.2386 751 81C751 83.7614 753.239 86 756 86Z" fill="#0078CC"/>
<path d="M710 86C712.761 86 715 83.7614 715 81C715 78.2386 712.761 76 710 76C707.239 76 705 78.2386 705 81C705 83.7614 707.239 86 710 86Z" fill="#0078CC"/>
<path d="M692 50C694.761 50 697 47.7614 697 45C697 42.2386 694.761 40 692 40C689.239 40 687 42.2386 687 45C687 47.7614 689.239 50 692 50Z" fill="#0078CC"/>
<path d="M683 27C685.761 27 688 24.7614 688 22C688 19.2386 685.761 17 683 17C680.239 17 678 19.2386 678 22C678 24.7614 680.239 27 683 27Z" fill="#0078CC"/>
<path d="M646 42C648.761 42 651 39.7614 651 37C651 34.2386 648.761 32 646 32C643.239 32 641 34.2386 641 37C641 39.7614 643.239 42 646 42Z" fill="#0078CC"/>
<path d="M590 62C592.761 62 595 59.7614 595 57C595 54.2386 592.761 52 590 52C587.239 52 585 54.2386 585 57C585 59.7614 587.239 62 590 62Z" fill="#0078CC"/>
<path d="M560 10C562.761 10 565 7.76142 565 5C565 2.23858 562.761 0 560 0C557.239 0 555 2.23858 555 5C555 7.76142 557.239 10 560 10Z" fill="#0078CC"/>
<path d="M541 30C543.761 30 546 27.7614 546 25C546 22.2386 543.761 20 541 20C538.239 20 536 22.2386 536 25C536 27.7614 538.239 30 541 30Z" fill="#0078CC"/>
<path d="M540 71C542.761 71 545 68.7614 545 66C545 63.2386 542.761 61 540 61C537.239 61 535 63.2386 535 66C535 68.7614 537.239 71 540 71Z" fill="#0078CC"/>
<path d="M537 169C539.761 169 542 166.761 542 164C542 161.239 539.761 159 537 159C534.239 159 532 161.239 532 164C532 166.761 534.239 169 537 169Z" fill="#0078CC"/>
<path d="M540 198C542.761 198 545 195.761 545 193C545 190.239 542.761 188 540 188C537.239 188 535 190.239 535 193C535 195.761 537.239 198 540 198Z" fill="#0078CC"/>
<path d="M492 153C494.761 153 497 150.761 497 148C497 145.239 494.761 143 492 143C489.239 143 487 145.239 487 148C487 150.761 489.239 153 492 153Z" fill="#0078CC"/>
<path d="M451 105C453.761 105 456 102.761 456 100C456 97.2386 453.761 95 451 95C448.239 95 446 97.2386 446 100C446 102.761 448.239 105 451 105Z" fill="#0078CC"/>
<path d="M476 31C478.761 31 481 28.7614 481 26C481 23.2386 478.761 21 476 21C473.239 21 471 23.2386 471 26C471 28.7614 473.239 31 476 31Z" fill="#0078CC"/>
<path d="M427 144C429.761 144 432 141.761 432 139C432 136.239 429.761 134 427 134C424.239 134 422 136.239 422 139C422 141.761 424.239 144 427 144Z" fill="#0078CC"/>
<path d="M382 72C384.761 72 387 69.7614 387 67C387 64.2386 384.761 62 382 62C379.239 62 377 64.2386 377 67C377 69.7614 379.239 72 382 72Z" fill="#0078CC"/>
<path d="M377 47C379.761 47 382 44.7614 382 42C382 39.2386 379.761 37 377 37C374.239 37 372 39.2386 372 42C372 44.7614 374.239 47 377 47Z" fill="#0078CC"/>
<path d="M405 116C407.761 116 410 113.761 410 111C410 108.239 407.761 106 405 106C402.239 106 400 108.239 400 111C400 113.761 402.239 116 405 116Z" fill="#0078CC"/>
<path d="M428 179C430.761 179 433 176.761 433 174C433 171.239 430.761 169 428 169C425.239 169 423 171.239 423 174C423 176.761 425.239 179 428 179Z" fill="#0078CC"/>
<path d="M361 199C363.761 199 366 196.761 366 194C366 191.239 363.761 189 361 189C358.239 189 356 191.239 356 194C356 196.761 358.239 199 361 199Z" fill="#0078CC"/>
<path d="M343 192C345.761 192 348 189.761 348 187C348 184.239 345.761 182 343 182C340.239 182 338 184.239 338 187C338 189.761 340.239 192 343 192Z" fill="#0078CC"/>
<path d="M1486 149C1488.76 149 1491 146.761 1491 144C1491 141.239 1488.76 139 1486 139C1483.24 139 1481 141.239 1481 144C1481 146.761 1483.24 149 1486 149Z" fill="#0078CC"/>
<path d="M360 169C362.761 169 365 166.761 365 164C365 161.239 362.761 159 360 159C357.239 159 355 161.239 355 164C355 166.761 357.239 169 360 169Z" fill="#0078CC"/>
<path d="M345 149C347.761 149 350 146.761 350 144C350 141.239 347.761 139 345 139C342.239 139 340 141.239 340 144C340 146.761 342.239 149 345 149Z" fill="#0078CC"/>
<path d="M341 127C343.761 127 346 124.761 346 122C346 119.239 343.761 117 341 117C338.239 117 336 119.239 336 122C336 124.761 338.239 127 341 127Z" fill="#0078CC"/>
<path d="M339 64C341.761 64 344 61.7614 344 59C344 56.2386 341.761 54 339 54C336.239 54 334 56.2386 334 59C334 61.7614 336.239 64 339 64Z" fill="#0078CC"/>
<path d="M321 28C323.761 28 326 25.7614 326 23C326 20.2386 323.761 18 321 18C318.239 18 316 20.2386 316 23C316 25.7614 318.239 28 321 28Z" fill="#0078CC"/>
<path d="M277 85C279.761 85 282 82.7614 282 80C282 77.2386 279.761 75 277 75C274.239 75 272 77.2386 272 80C272 82.7614 274.239 85 277 85Z" fill="#0078CC"/>
<path d="M255 63C257.761 63 260 60.7614 260 58C260 55.2386 257.761 53 255 53C252.239 53 250 55.2386 250 58C250 60.7614 252.239 63 255 63Z" fill="#0078CC"/>
<path d="M253 117C255.761 117 258 114.761 258 112C258 109.239 255.761 107 253 107C250.239 107 248 109.239 248 112C248 114.761 250.239 117 253 117Z" fill="#0078CC"/>
<path d="M187 115C189.761 115 192 112.761 192 110C192 107.239 189.761 105 187 105C184.239 105 182 107.239 182 110C182 112.761 184.239 115 187 115Z" fill="#0078CC"/>
<path d="M151 112C153.761 112 156 109.761 156 107C156 104.239 153.761 102 151 102C148.239 102 146 104.239 146 107C146 109.761 148.239 112 151 112Z" fill="#0078CC"/>
<path d="M185 83C187.761 83 190 80.7614 190 78C190 75.2386 187.761 73 185 73C182.239 73 180 75.2386 180 78C180 80.7614 182.239 83 185 83Z" fill="#0078CC"/>
<path d="M120 49C122.761 49 125 46.7614 125 44C125 41.2386 122.761 39 120 39C117.239 39 115 41.2386 115 44C115 46.7614 117.239 49 120 49Z" fill="#0078CC"/>
<path d="M117 87C119.761 87 122 84.7614 122 82C122 79.2386 119.761 77 117 77C114.239 77 112 79.2386 112 82C112 84.7614 114.239 87 117 87Z" fill="#0078CC"/>
<path d="M93 118C95.7614 118 98 115.761 98 113C98 110.239 95.7614 108 93 108C90.2386 108 88 110.239 88 113C88 115.761 90.2386 118 93 118Z" fill="#0078CC"/>
<path d="M76 139C78.7614 139 81 136.761 81 134C81 131.239 78.7614 129 76 129C73.2386 129 71 131.239 71 134C71 136.761 73.2386 139 76 139Z" fill="#0078CC"/>
<path d="M57 44C59.7614 44 62 41.7614 62 39C62 36.2386 59.7614 34 57 34C54.2386 34 52 36.2386 52 39C52 41.7614 54.2386 44 57 44Z" fill="#0078CC"/>
<path d="M9 37C11.7614 37 14 34.7614 14 32C14 29.2386 11.7614 27 9 27C6.23858 27 4 29.2386 4 32C4 34.7614 6.23858 37 9 37Z" fill="#0078CC"/>
<path d="M49 140C51.7614 140 54 137.761 54 135C54 132.239 51.7614 130 49 130C46.2386 130 44 132.239 44 135C44 137.761 46.2386 140 49 140Z" fill="#0078CC"/>
<path d="M145 138C147.761 138 150 135.761 150 133C150 130.239 147.761 128 145 128C142.239 128 140 130.239 140 133C140 135.761 142.239 138 145 138Z" fill="#0078CC"/>
<path d="M167 171C169.761 171 172 168.761 172 166C172 163.239 169.761 161 167 161C164.239 161 162 163.239 162 166C162 168.761 164.239 171 167 171Z" fill="#0078CC"/>
<path d="M211 184C213.761 184 216 181.761 216 179C216 176.239 213.761 174 211 174C208.239 174 206 176.239 206 179C206 181.761 208.239 184 211 184Z" fill="#0078CC"/>
<path d="M100 161C102.761 161 105 158.761 105 156C105 153.239 102.761 151 100 151C97.2386 151 95 153.239 95 156C95 158.761 97.2386 161 100 161Z" fill="#0078CC"/>
<path d="M254 4C256.761 4 259 1.76142 259 -1C259 -3.76142 256.761 -6 254 -6C251.239 -6 249 -3.76142 249 -1C249 1.76142 251.239 4 254 4Z" fill="#0078CC"/>
<path d="M209 7C211.761 7 214 4.76142 214 2C214 -0.761424 211.761 -3 209 -3C206.239 -3 204 -0.761424 204 2C204 4.76142 206.239 7 209 7Z" fill="#0078CC"/>
<path d="M275 133C277.761 133 280 130.761 280 128C280 125.239 277.761 123 275 123C272.239 123 270 125.239 270 128C270 130.761 272.239 133 275 133Z" fill="#0078CC"/>
<path d="M248 184C250.761 184 253 181.761 253 179C253 176.239 250.761 174 248 174C245.239 174 243 176.239 243 179C243 181.761 245.239 184 248 184Z" fill="#0078CC"/>
<path d="M510 3C512.761 3 515 0.761424 515 -2C515 -4.76142 512.761 -7 510 -7C507.239 -7 505 -4.76142 505 -2C505 0.761424 507.239 3 510 3Z" fill="#0078CC"/>
<path d="M623 7C625.761 7 628 4.76142 628 2C628 -0.761424 625.761 -3 623 -3C620.239 -3 618 -0.761424 618 2C618 4.76142 620.239 7 623 7Z" fill="#0078CC"/>
<path d="M648 106C650.761 106 653 103.761 653 101C653 98.2386 650.761 96 648 96C645.239 96 643 98.2386 643 101C643 103.761 645.239 106 648 106Z" fill="#0078CC"/>
<path d="M587 127C589.761 127 592 124.761 592 122C592 119.239 589.761 117 587 117C584.239 117 582 119.239 582 122C582 124.761 584.239 127 587 127Z" fill="#0078CC"/>
<path d="M561 131C563.761 131 566 128.761 566 126C566 123.239 563.761 121 561 121C558.239 121 556 123.239 556 126C556 128.761 558.239 131 561 131Z" fill="#0078CC"/>
<path d="M626 93C628.761 93 631 90.7614 631 88C631 85.2386 628.761 83 626 83C623.239 83 621 85.2386 621 88C621 90.7614 623.239 93 626 93Z" fill="#0078CC"/>
<path d="M609 110C611.761 110 614 107.761 614 105C614 102.239 611.761 100 609 100C606.239 100 604 102.239 604 105C604 107.761 606.239 110 609 110Z" fill="#0078CC"/>
<path d="M653 126C655.761 126 658 123.761 658 121C658 118.239 655.761 116 653 116C650.239 116 648 118.239 648 121C648 123.761 650.239 126 653 126Z" fill="#0078CC"/>
<path d="M631 154C633.761 154 636 151.761 636 149C636 146.239 633.761 144 631 144C628.239 144 626 146.239 626 149C626 151.761 628.239 154 631 154Z" fill="#0078CC"/>
<path d="M661 161C663.761 161 666 158.761 666 156C666 153.239 663.761 151 661 151C658.239 151 656 153.239 656 156C656 158.761 658.239 161 661 161Z" fill="#0078CC"/>
<path d="M734 117C736.761 117 739 114.761 739 112C739 109.239 736.761 107 734 107C731.239 107 729 109.239 729 112C729 114.761 731.239 117 734 117Z" fill="#0078CC"/>
<path d="M734 156C736.761 156 739 153.761 739 151C739 148.239 736.761 146 734 146C731.239 146 729 148.239 729 151C729 153.761 731.239 156 734 156Z" fill="#0078CC"/>
<path d="M1406 159C1408.76 159 1411 156.761 1411 154C1411 151.239 1408.76 149 1406 149C1403.24 149 1401 151.239 1401 154C1401 156.761 1403.24 159 1406 159Z" fill="#0078CC"/>
<path d="M753 189C755.761 189 758 186.761 758 184C758 181.239 755.761 179 753 179C750.239 179 748 181.239 748 184C748 186.761 750.239 189 753 189Z" fill="#0078CC"/>
<path d="M1425 192C1427.76 192 1430 189.761 1430 187C1430 184.239 1427.76 182 1425 182C1422.24 182 1420 184.239 1420 187C1420 189.761 1422.24 192 1425 192Z" fill="#0078CC"/>
<path d="M787 3C789.761 3 792 0.761424 792 -2C792 -4.76142 789.761 -7 787 -7C784.239 -7 782 -4.76142 782 -2C782 0.761424 784.239 3 787 3Z" fill="#0078CC"/>
<path d="M837 72C839.761 72 842 69.7614 842 67C842 64.2386 839.761 62 837 62C834.239 62 832 64.2386 832 67C832 69.7614 834.239 72 837 72Z" fill="#0078CC"/>
<path d="M852 91C854.761 91 857 88.7614 857 86C857 83.2386 854.761 81 852 81C849.239 81 847 83.2386 847 86C847 88.7614 849.239 91 852 91Z" fill="#0078CC"/>
<path d="M855 110C857.761 110 860 107.761 860 105C860 102.239 857.761 100 855 100C852.239 100 850 102.239 850 105C850 107.761 852.239 110 855 110Z" fill="#0078CC"/>
<path d="M855 158C857.761 158 860 155.761 860 153C860 150.239 857.761 148 855 148C852.239 148 850 150.239 850 153C850 155.761 852.239 158 855 158Z" fill="#0078CC"/>
<path d="M834 171C836.761 171 839 168.761 839 166C839 163.239 836.761 161 834 161C831.239 161 829 163.239 829 166C829 168.761 831.239 171 834 171Z" fill="#0078CC"/>
<path d="M812 194C814.761 194 817 191.761 817 189C817 186.239 814.761 184 812 184C809.239 184 807 186.239 807 189C807 191.761 809.239 194 812 194Z" fill="#0078CC"/>
<path d="M875 11C877.761 11 880 8.76142 880 6C880 3.23858 877.761 1 875 1C872.239 1 870 3.23858 870 6C870 8.76142 872.239 11 875 11Z" fill="#0078CC"/>
<path d="M960 120C962.761 120 965 117.761 965 115C965 112.239 962.761 110 960 110C957.239 110 955 112.239 955 115C955 117.761 957.239 120 960 120Z" fill="#0078CC"/>
<path d="M992 165C994.761 165 997 162.761 997 160C997 157.239 994.761 155 992 155C989.239 155 987 157.239 987 160C987 162.761 989.239 165 992 165Z" fill="#0078CC"/>
<path d="M1054 84C1056.76 84 1059 81.7614 1059 79C1059 76.2386 1056.76 74 1054 74C1051.24 74 1049 76.2386 1049 79C1049 81.7614 1051.24 84 1054 84Z" fill="#0078CC"/>
<path d="M1055 118C1057.76 118 1060 115.761 1060 113C1060 110.239 1057.76 108 1055 108C1052.24 108 1050 110.239 1050 113C1050 115.761 1052.24 118 1055 118Z" fill="#0078CC"/>
<path d="M1018 111C1020.76 111 1023 108.761 1023 106C1023 103.239 1020.76 101 1018 101C1015.24 101 1013 103.239 1013 106C1013 108.761 1015.24 111 1018 111Z" fill="#0078CC"/>
<path d="M987 86C989.761 86 992 83.7614 992 81C992 78.2386 989.761 76 987 76C984.239 76 982 78.2386 982 81C982 83.7614 984.239 86 987 86Z" fill="#0078CC"/>
<path d="M924 47C926.761 47 929 44.7614 929 42C929 39.2386 926.761 37 924 37C921.239 37 919 39.2386 919 42C919 44.7614 921.239 47 924 47Z" fill="#0078CC"/>
<path d="M989 49C991.761 49 994 46.7614 994 44C994 41.2386 991.761 39 989 39C986.239 39 984 41.2386 984 44C984 46.7614 986.239 49 989 49Z" fill="#0078CC"/>
<path d="M1032 203C1034.76 203 1037 200.761 1037 198C1037 195.239 1034.76 193 1032 193C1029.24 193 1027 195.239 1027 198C1027 200.761 1029.24 203 1032 203Z" fill="#0078CC"/>
<path d="M855 106V151" stroke="#0078CC" stroke-width="2"/>
</g>
<rect width="1512" height="575.743" fill="url(#paint0_linear_108_481)"/>
</g>
<defs>
<linearGradient id="paint0_linear_108_481" x1="756" y1="-529.105" x2="756" y2="540.362" gradientUnits="userSpaceOnUse">
<stop stop-color="#23366E" stop-opacity="0"/>
<stop offset="0.66702" stop-color="#23366E"/>
<stop offset="1" stop-color="#132457" stop-opacity="0.54"/>
</linearGradient>
<clipPath id="clip0_108_481">
<rect width="1512" height="452" fill="white"/>
</clipPath>
<clipPath id="clip1_108_481">
<rect width="1504" height="229" fill="white" transform="translate(4)"/>
</clipPath>
</defs>
</svg>
