<svg width="25" height="24" viewBox="0 0 25 24" fill="none" xmlns="http://www.w3.org/2000/svg">
<path d="M24.4727 1.76471V22.2353C24.4727 22.7033 24.2867 23.1522 23.9558 23.4831C23.6248 23.8141 23.176 24 22.708 24H2.23736C1.76933 24 1.32047 23.8141 0.989527 23.4831C0.65858 23.1522 0.472656 22.7033 0.472656 22.2353L0.472656 1.76471C0.472656 1.29668 0.65858 0.847817 0.989527 0.51687C1.32047 0.185924 1.76933 0 2.23736 0L22.708 0C23.176 0 23.6248 0.185924 23.9558 0.51687C24.2867 0.847817 24.4727 1.29668 24.4727 1.76471ZM7.53148 10.9412C7.53148 9.96656 6.74139 9.17647 5.76677 9.17647C4.79215 9.17647 4.00207 9.96656 4.00207 10.9412V18.7059C4.00207 19.6805 4.79215 20.4706 5.76677 20.4706C6.74139 20.4706 7.53148 19.6805 7.53148 18.7059V10.9412ZM7.84913 5.29412C7.85099 5.02715 7.80024 4.76242 7.69979 4.51506C7.59935 4.2677 7.45116 4.04255 7.26369 3.85246C7.07622 3.66237 6.85315 3.51107 6.60721 3.4072C6.36127 3.30332 6.09728 3.24891 5.8303 3.24706H5.76677C5.22386 3.24706 4.70318 3.46273 4.31929 3.84663C3.93539 4.23053 3.71972 4.7512 3.71972 5.29412C3.71972 5.83703 3.93539 6.35771 4.31929 6.74161C4.70318 7.12551 5.22386 7.34118 5.76677 7.34118C6.03376 7.34774 6.29943 7.30164 6.5486 7.2055C6.79776 7.10936 7.02554 6.96507 7.21892 6.78086C7.4123 6.59666 7.5675 6.37616 7.67563 6.13196C7.78376 5.88776 7.84272 5.62464 7.84913 5.35765V5.29412ZM20.9432 13.6094C20.9432 10.2141 18.7832 8.89412 16.6374 8.89412C15.9348 8.85894 15.2352 9.00859 14.6085 9.32814C13.9921 9.64243 13.4673 10.1103 13.0847 10.6863C13.0727 10.7043 13.0525 10.7153 13.0309 10.7153C12.9955 10.7153 12.9668 10.6866 12.9668 10.6512V9.94588C12.9668 9.52095 12.6223 9.17647 12.1974 9.17647H11.308C10.3918 9.17647 9.64913 9.91915 9.64913 10.8353V18.7059C9.64913 19.6805 10.4392 20.4706 11.4138 20.4706C12.3885 20.4706 13.1785 19.6805 13.1785 18.7059V14.4635C13.1275 13.8483 13.3213 13.2378 13.7178 12.7646C14.1143 12.2915 14.6815 11.9939 15.2962 11.9365H15.4303C16.5527 11.9365 17.3856 12.6424 17.3856 14.4212V18.7023C17.3856 19.6789 18.1773 20.4706 19.1539 20.4706C20.1277 20.4706 20.9183 19.6833 20.9223 18.7095L20.9432 13.6094Z" fill="white"/>
</svg>
