<svg width="24" height="24" viewBox="0 0 24 24" fill="none" xmlns="http://www.w3.org/2000/svg">
<path fill-rule="evenodd" clip-rule="evenodd" d="M24 12C24 18.6274 18.6274 24 12 24C5.37258 24 0 18.6274 0 12C0 5.37258 5.37258 0 12 0C18.6274 0 24 5.37258 24 12ZM12.43 8.85894C11.2628 9.34441 8.93011 10.3492 5.43187 11.8733C4.86381 12.0992 4.56624 12.3202 4.53915 12.5363C4.49336 12.9015 4.95069 13.0453 5.57345 13.2411C5.65816 13.2678 5.74593 13.2954 5.83592 13.3246C6.44862 13.5238 7.2728 13.7568 7.70127 13.7661C8.08992 13.7744 8.52371 13.6142 9.00262 13.2854C12.2711 11.079 13.9584 9.96383 14.0643 9.93978C14.139 9.92282 14.2426 9.9015 14.3127 9.96386C14.3829 10.0262 14.376 10.1443 14.3686 10.176C14.3233 10.3692 12.5281 12.0381 11.5991 12.9018C11.3095 13.171 11.1041 13.362 11.0621 13.4057C10.968 13.5034 10.8721 13.5958 10.78 13.6846C10.2107 14.2334 9.78389 14.6448 10.8036 15.3168C11.2936 15.6397 11.6857 15.9068 12.0769 16.1732C12.5041 16.4641 12.9303 16.7543 13.4816 17.1157C13.6221 17.2078 13.7562 17.3034 13.8869 17.3966C14.384 17.751 14.8307 18.0694 15.3826 18.0187C15.7032 17.9892 16.0344 17.6876 16.2027 16.7884C16.6002 14.6632 17.3816 10.0585 17.5622 8.16099C17.578 7.99474 17.5581 7.78198 17.5421 7.68859C17.5261 7.59519 17.4927 7.46212 17.3713 7.36361C17.2276 7.24695 17.0056 7.22235 16.9063 7.2241C16.455 7.23205 15.7625 7.47283 12.43 8.85894Z" fill="white"/>
</svg>
