<svg width="26" height="20" viewBox="0 0 26 20" fill="none" xmlns="http://www.w3.org/2000/svg">
<path fill-rule="evenodd" clip-rule="evenodd" d="M24.6957 3.38543C24.9392 3.10454 24.6404 2.70031 24.2843 2.80696C23.9011 2.92174 23.6281 2.34356 23.8826 2.03489C24.0089 1.88171 24.1263 1.72096 24.2341 1.55343C24.4822 1.16779 24.0446 0.783432 23.6232 0.964354C23.1562 1.16488 22.6711 1.33141 22.1713 1.46114C21.8105 1.55479 21.4376 1.42271 21.1521 1.18299C20.2734 0.444995 19.1376 0 17.9018 0C15.1138 0 12.8532 2.26059 12.8532 5.04859C12.8532 5.6302 12.4053 6.17057 11.8287 6.09495C9.0312 5.72816 6.48798 4.55642 4.43792 2.8197C3.4563 1.98812 1.89481 2.17574 1.89481 3.46225C1.89481 4.63441 2.29353 5.71434 2.96381 6.57191C3.24937 6.93726 2.9997 7.51844 2.56442 7.35855C2.33773 7.27527 2.11862 7.1763 1.90839 7.06305C1.88344 7.04961 1.85298 7.06757 1.85298 7.09591C1.85298 9.06923 2.98563 10.7779 4.63477 11.6093C4.93408 11.7602 4.90809 12.2249 4.5729 12.2249C4.14187 12.2249 3.79203 12.6334 3.99898 13.0115C4.22294 13.4207 4.50203 13.7955 4.82623 14.126C5.74531 15.0629 6.12796 17.0519 4.8659 17.4122C3.97722 17.6658 3.03883 17.8017 2.0687 17.8017C1.77496 17.8017 1.6469 18.2016 1.90656 18.339C3.90604 19.3966 6.18321 19.9991 8.60275 19.9991C17.8887 19.9991 22.9668 12.3061 22.9668 5.63506C22.9668 5.5825 22.9666 5.52999 22.9661 5.47755C22.9631 5.16844 23.1051 4.87522 23.3466 4.68221C23.8348 4.29196 24.2867 3.85733 24.6957 3.38543Z" fill="white"/>
</svg>
