<svg width="25" height="16" viewBox="0 0 25 16" fill="none" xmlns="http://www.w3.org/2000/svg">
<path fill-rule="evenodd" clip-rule="evenodd" d="M23.1641 1.64839C23.5368 1.98097 23.8053 2.39488 23.943 2.8489C24.7357 5.69643 24.5525 10.1937 23.9584 13.1511C23.8207 13.6051 23.5522 14.019 23.1795 14.3516C22.8068 14.6842 22.343 14.9238 21.8343 15.0467C19.9719 15.5 12.4759 15.5 12.4759 15.5C12.4759 15.5 4.97996 15.5 3.11752 15.0467C2.60877 14.9238 2.14497 14.6842 1.77229 14.3516C1.39962 14.019 1.13108 13.6051 0.99341 13.1511C0.1961 10.3159 0.414668 5.81594 0.978019 2.86264C1.11568 2.40862 1.38422 1.99471 1.7569 1.66212C2.12957 1.32954 2.59338 1.08989 3.10213 0.967036C4.96457 0.513733 12.4605 0.5 12.4605 0.5C12.4605 0.5 19.9565 0.5 21.8189 0.953295C22.3276 1.07615 22.7915 1.31581 23.1641 1.64839ZM16.2931 8L10.0747 11.2143V4.78571L16.2931 8Z" fill="white"/>
</svg>
