<svg width="123" height="26" viewBox="0 0 123 26" fill="none" xmlns="http://www.w3.org/2000/svg">
<g clip-path="url(#clip0_40_5826)">
<path fill-rule="evenodd" clip-rule="evenodd" d="M42.4501 24.8439C38.1195 25.2247 36.0052 21.1264 35.6751 17.181C35.2245 11.7845 38.0147 9.65217 40.7079 9.4148C44.825 9.05539 47.082 13.0196 47.4239 17.1126C47.8588 22.3588 45.2874 24.5917 42.4501 24.8439ZM32.3584 17.2829C32.3584 22.1242 35.8074 25.9999 41.6196 25.9999C46.9038 25.9999 50.7367 22.2368 50.7367 17.0562C50.7367 12.3598 47.6584 8.25879 41.6196 8.25879C36.1795 8.25879 32.3584 12.1787 32.3584 17.2829Z" fill="#0028A0"/>
<path fill-rule="evenodd" clip-rule="evenodd" d="M113.453 3.78354C113.453 1.78802 112.11 0.0996094 110.562 0.0996094C109.107 0.0996094 108.765 1.09603 108.765 1.68074C108.765 2.39821 109.26 2.71336 109.773 2.7536C110.493 2.79651 111.649 3.44291 111.649 4.90602C111.649 6.47508 110.194 7.5533 108.801 8.20372C108.618 8.4706 108.765 8.86219 109.065 9.00971C111.424 8.28553 113.453 6.4335 113.453 3.78354Z" fill="#0028A0"/>
<path fill-rule="evenodd" clip-rule="evenodd" d="M119.841 16.2426L117.518 15.0128C116.018 14.2068 115.019 13.3593 115.019 11.9914C115.019 10.6825 115.836 9.36688 118.047 9.36688C120.261 9.36688 121.233 11.3302 121.546 12.6726C121.722 12.9382 122.396 12.8993 122.523 12.5989C122.546 10.948 122.285 9.48356 121.985 8.83179C120.714 8.60783 119.81 8.25781 118.493 8.25781C114.717 8.25781 112.598 10.2131 112.598 13.0186C112.598 15.1711 114.146 16.6677 115.947 17.6225L117.631 18.5117C119.775 19.6248 120.261 20.8934 120.261 22.1232C120.261 23.8867 119.026 24.8912 117.112 24.8912C114.597 24.8912 112.952 22.1648 112.646 20.7781C112.381 20.4281 111.821 20.467 111.672 20.8612C111.672 22.8916 112.119 24.2756 112.46 24.8094C112.984 25.1889 114.491 25.9989 116.77 25.9989C120.486 25.9989 122.887 24.1187 122.887 21.1254C122.887 18.5506 121.195 16.9346 119.841 16.2426Z" fill="#0028A0"/>
<path fill-rule="evenodd" clip-rule="evenodd" d="M80.7155 24.5401C77.8507 24.5401 77.4839 23.309 77.4839 20.8615V11.7141C77.4839 10.8625 77.4839 10.373 77.7001 10.2134C78.0066 9.95323 78.7205 9.79766 79.9623 9.79766C84.1947 9.79766 87.4184 12.2559 87.4184 16.9778C87.4184 21.6568 85.2099 24.5401 80.7155 24.5401ZM85.5845 9.52945C83.8227 8.90987 81.9809 8.68457 79.8811 8.68457C76.8499 8.68457 74.7435 8.75967 72.6411 8.90987C72.3071 9.02386 72.2652 9.75609 72.6005 9.87276L73.7244 10.0243C74.5929 10.137 74.627 10.7914 74.627 13.2871V21.4369C74.627 24.0801 74.4776 24.2317 72.8651 24.5012L72.1499 24.6152C71.8918 24.8097 71.9298 25.4668 72.2219 25.5754C73.6917 25.503 74.8588 25.4668 76.0587 25.4668C76.6233 25.4668 77.3346 25.503 78.0747 25.5405C78.8685 25.6223 79.7396 25.6572 80.5623 25.6572C82.4342 25.6572 84.5327 25.3595 86.2238 24.4623C89.2301 22.8919 90.7627 20.0877 90.7627 17.0556C90.7627 13.5191 88.9969 10.7163 85.5845 9.52945Z" fill="#0028A0"/>
<path fill-rule="evenodd" clip-rule="evenodd" d="M106.873 8.68555C105.811 8.76065 105.024 8.79417 104.193 8.79417C103.338 8.79417 102.478 8.76065 101.356 8.68555C100.976 8.83307 100.939 9.44996 101.273 9.63905L102.063 9.75707C102.972 9.87374 102.89 10.2144 102.328 11.2899L100.828 14.1008C100.194 15.3225 99.6266 16.2438 99.0254 17.2832C98.466 16.2841 97.8988 15.2461 97.3434 14.1008L95.9496 11.3704C95.3431 10.1715 95.4676 9.9542 96.2863 9.75707L96.8155 9.63905C97.1862 9.44996 97.0788 8.83307 96.7736 8.68555C95.575 8.76065 94.7157 8.79417 93.5865 8.79417C92.2386 8.79417 91.3701 8.76065 90.1335 8.68555C89.8388 8.79417 89.7641 9.41107 90.0196 9.63905L90.9981 9.82814C91.9688 10.0253 92.3526 10.374 93.1346 11.9055L95.871 17.0914C96.8155 18.8563 96.9216 19.1634 96.9216 20.3609V21.8093C96.9216 24.0811 96.7736 24.3144 95.1611 24.5022L94.2271 24.6162C93.9585 24.8106 93.9939 25.4678 94.3004 25.5764C95.9889 25.504 97.1561 25.4678 98.3573 25.4678C99.51 25.4678 100.753 25.504 102.398 25.5764C102.704 25.4678 102.742 24.8106 102.478 24.6162L101.539 24.5022C99.9279 24.3144 99.7707 24.0811 99.7707 21.8093V19.7373C99.7707 18.6283 99.8519 18.2461 101.204 16.0574L103.528 12.2099C104.691 10.2962 104.877 10.0628 106.045 9.82814L106.941 9.63905C107.248 9.44996 107.165 8.79417 106.873 8.68555Z" fill="#0028A0"/>
<path fill-rule="evenodd" clip-rule="evenodd" d="M62.594 24.8429C58.2634 25.2238 56.1478 21.1254 55.819 17.18C55.3684 11.7835 58.1586 9.65119 60.8518 9.41382C64.9689 9.05441 67.2233 13.0186 67.5652 17.1116C68.0027 22.3579 65.4326 24.5908 62.594 24.8429ZM61.7622 8.25781C56.326 8.25781 52.501 12.1778 52.501 17.2819C52.501 22.1232 55.9487 25.9989 61.7622 25.9989C67.0477 25.9989 70.8793 22.2358 70.8793 17.0553C70.8793 12.3588 67.8049 8.25781 61.7622 8.25781Z" fill="#0028A0"/>
<path fill-rule="evenodd" clip-rule="evenodd" d="M30.6405 24.5014C28.8799 24.3137 28.9153 23.3092 28.8026 21.3982C28.4987 15.8609 28.462 8.7599 28.3874 4.68571C28.3507 2.00088 28.6507 1.31023 31.0099 1.03263L31.805 0.958868C31.9949 0.803304 31.9949 0.152882 31.7709 0C30.5985 0.0764412 29.3672 0.108627 28.428 0.108627C27.6761 0.108627 26.8927 0.108627 25.6116 0C25.5357 1.76754 24.489 3.88241 22.7625 7.37054L19.2349 14.7049C18.2996 16.6682 17.3591 18.6704 16.3465 20.4675H16.2731C15.3654 18.7764 14.5454 17.0115 13.6834 15.2118L9.40519 6.33658C8.24721 3.88241 7.30275 1.49664 7.4547 0C6.21551 0.108627 5.20555 0.108627 4.33969 0.108627C3.40309 0.108627 2.50448 0.0764412 1.37794 0C1.07404 0.152882 1.03736 0.728203 1.22861 0.958868L1.82463 1.03263C4.11307 1.4202 4.42222 1.9164 4.33969 4.33838C4.26502 6.44654 4.11307 9.71206 3.92444 12.8998C3.70568 16.7071 3.51967 18.8166 3.29175 21.3566C3.06513 24.0401 2.53854 24.3137 0.965311 24.5014L0.140056 24.6154C-0.0931118 24.8099 -0.0132061 25.3919 0.218652 25.5756C1.49583 25.5032 2.84113 25.467 4.03841 25.467C5.46361 25.467 6.93073 25.5032 8.20529 25.5756C8.46859 25.467 8.50789 24.8488 8.24721 24.6154L6.81939 24.5014C5.35096 24.3901 5.1322 23.7746 5.1322 20.9315C5.1322 17.67 5.28022 14.2422 5.39287 11.9047C5.51077 9.67585 5.62211 7.44564 5.76489 5.06524H5.84218C6.66612 6.83412 7.4547 8.83232 8.24721 10.5958L11.615 18.0133C12.4796 19.8935 14.2781 23.6633 14.9252 25.6923C14.996 25.8117 15.1872 25.8479 15.2593 25.8479C15.4125 25.8479 15.5592 25.8117 15.6287 25.6923C16.3085 23.9261 18.0009 20.3226 19.6829 16.9351L23.0219 10.2136C23.7738 8.72101 25.1938 5.64592 25.461 5.22483H25.5357L25.6496 21.2386C25.6496 23.6981 25.6496 24.3137 23.8131 24.5014L22.7324 24.6154C22.5019 24.8488 22.5385 25.3919 22.8045 25.5756C24.3358 25.5032 26.0269 25.467 27.3355 25.467C28.6887 25.467 30.2304 25.5032 31.7709 25.5756C32.029 25.4241 32.0657 24.8488 31.8456 24.6154L30.6405 24.5014Z" fill="#0028A0"/>
</g>
<defs>
<clipPath id="clip0_40_5826">
<rect width="123" height="26" fill="white"/>
</clipPath>
</defs>
</svg>
