<svg width="124" height="72" viewBox="0 0 124 72" fill="none" xmlns="http://www.w3.org/2000/svg">
<g clip-path="url(#clip0_44_6063)">
<path fill-rule="evenodd" clip-rule="evenodd" d="M38.8064 9.64062L50.1323 15.0766L22.6335 70.5274L9.3418 64.1482C16.4809 47.0014 32.0611 26.476 38.8064 9.64062Z" fill="black"/>
<path fill-rule="evenodd" clip-rule="evenodd" d="M28.6111 4.74707L37.8582 9.18587C29.6432 26.7359 19.508 39.1703 12.451 56.0129L5.09668 52.4831L28.6111 4.74707Z" fill="#595651"/>
<path fill-rule="evenodd" clip-rule="evenodd" d="M19.1543 10.834H40.6136V31.0354H33.0332V21.6538H31.361V41.1694H33.0332V31.7878H40.6136V52.3006H19.1543V10.834Z" fill="white"/>
<path fill-rule="evenodd" clip-rule="evenodd" d="M22.6792 12.4258H38.8302V28.6348H35.4311V19.6294H30.3289V28.6348V32.5372V41.5426H35.4311V32.5372H38.8302V49.0468H22.6792V12.4258Z" fill="#DC7D43"/>
<path fill-rule="evenodd" clip-rule="evenodd" d="M114.282 26.455L114.791 27.2722L114.864 27.5188L114.866 27.742L114.811 27.9382L114.711 28.1038L114.581 28.228L114.437 28.3018L114.293 28.327L114.156 28.3036L114.02 28.2316L113.894 28.111L113.795 27.949L113.741 27.751V27.5242L113.81 27.2704L114.282 26.455ZM111.011 26.374L111.002 27.2308L111.033 27.697L111.097 28.1398L111.193 28.5592L111.321 28.9534L111.478 29.3206L111.664 29.6608L111.875 29.9704L112.112 30.2494L112.371 30.4978L112.652 30.712L112.953 30.8902L113.268 31.0306L113.598 31.1332L113.941 31.1944L114.291 31.216L114.641 31.1944L114.984 31.1332L115.314 31.0306L115.632 30.8902L115.931 30.712L116.212 30.4978L116.47 30.2494L116.708 29.9704L116.919 29.6608L117.105 29.3206L117.262 28.9534L117.39 28.5592L117.486 28.1398L117.55 27.697L117.581 27.2308L117.572 26.374H114.328H114.231H111.011ZM109.094 44.0572L108.925 43.843L108.865 43.7566L108.81 43.6648L108.761 43.5694L108.715 43.4668L108.675 43.3606L108.638 43.249L108.607 43.1302L108.58 43.0042L108.556 42.8728L108.536 42.736L108.522 42.5938L108.509 42.4444L108.5 42.2896L108.494 42.1294L108.493 41.962V34.186L108.494 34.0168L108.5 33.8566L108.509 33.7018L108.522 33.5524L108.536 33.4102L108.556 33.2734L108.58 33.142L108.607 33.0178L108.638 32.899L108.675 32.7874L108.715 32.6812L108.761 32.5786L108.81 32.4832L108.865 32.3932L108.925 32.3068L109.094 32.0944L109.264 32.3068L109.324 32.3932L109.379 32.4832L109.428 32.5786L109.474 32.6794L109.514 32.7874L109.55 32.9008L109.583 33.0196L109.61 33.1438L109.634 33.2752L109.654 33.412L109.671 33.5542L109.681 33.7036L109.691 33.8584L109.696 34.0204L109.698 34.1878V41.9638L109.696 42.1312L109.691 42.2914L109.681 42.4462L109.671 42.5956L109.654 42.7378L109.634 42.8746L109.61 43.006L109.583 43.1302L109.55 43.249L109.514 43.3624L109.474 43.4704L109.428 43.5712L109.379 43.6666L109.324 43.7584L109.264 43.8448L109.094 44.0572ZM93.6271 32.017L93.8551 32.3032L93.9153 32.3896L93.97 32.4814L94.0192 32.5768L94.0648 32.6776L94.1049 32.7856L94.1414 32.899L94.1742 33.0178L94.2015 33.142L94.2252 33.2734L94.2453 33.4102L94.2617 33.5524L94.2727 33.7018L94.2818 33.8566L94.2873 34.0186L94.2891 34.186V36.1102H92.9688V34.1842L92.9707 34.015L92.9761 33.8548L92.9852 33.7L92.998 33.5506L93.0126 33.4084L93.0327 33.2716L93.0564 33.1402L93.0837 33.016L93.1147 32.8972L93.1512 32.7856L93.1913 32.6794L93.2369 32.5768L93.2861 32.4814L93.3408 32.3914L93.401 32.305L93.6271 32.017ZM98.6984 44.0572L98.5288 43.843L98.4686 43.7566L98.4139 43.6648L98.3647 43.5694L98.3191 43.4668L98.279 43.3606L98.2425 43.249L98.2115 43.1302L98.1841 43.0042L98.1604 42.8728L98.1404 42.736L98.1258 42.5938L98.113 42.4444L98.1039 42.2896L98.0984 42.1294L98.0966 41.962V34.186L98.0984 34.0168L98.1039 33.8566L98.113 33.7018L98.1258 33.5524L98.1404 33.4102L98.1604 33.2734L98.1841 33.142L98.2115 33.0178L98.2425 32.899L98.279 32.7874L98.3191 32.6812L98.3647 32.5786L98.4139 32.4832L98.4686 32.3932L98.5288 32.3068L98.6984 32.0944L98.868 32.3068L98.9281 32.3932L98.9828 32.4832L99.0321 32.5786L99.0777 32.6794L99.1178 32.7874L99.1543 32.9008L99.1871 33.0196L99.2144 33.1438L99.2381 33.2752L99.2582 33.412L99.2746 33.5542L99.2855 33.7036L99.2947 33.8584L99.3001 34.0204L99.302 34.1878V41.9638L99.3001 42.1312L99.2947 42.2914L99.2855 42.4462L99.2746 42.5956L99.2582 42.7378L99.2381 42.8746L99.2144 43.006L99.1871 43.1302L99.1543 43.249L99.1178 43.3624L99.0777 43.4704L99.0321 43.5712L98.9828 43.6666L98.9281 43.7584L98.868 43.8448L98.6984 44.0572ZM93.6271 44.131L93.3974 43.843L93.3372 43.7566L93.2825 43.6648L93.2333 43.5694L93.1877 43.4668L93.1475 43.3606L93.1111 43.249L93.0801 43.1302L93.0527 43.0042L93.029 42.8728L93.009 42.736L92.9944 42.5938L92.9816 42.4444L92.9725 42.2896L92.967 42.1294L92.9652 41.962V39.172H94.2854V41.962L94.2836 42.1294L94.2781 42.2896L94.269 42.4444L94.2581 42.5938L94.2417 42.736L94.2216 42.8728L94.1979 43.0042L94.1705 43.1284L94.1377 43.2472L94.1012 43.3606L94.0611 43.4686L94.0155 43.5694L93.9663 43.6648L93.9116 43.7566L93.8514 43.843L93.6271 44.131ZM88.6215 43.9726L88.5194 43.8448L88.4592 43.7584L88.4045 43.6666L88.3553 43.5712L88.3097 43.4686L88.2696 43.3624L88.2331 43.2508L88.2021 43.132L88.1748 43.006L88.1511 42.8746L88.131 42.7378L88.1164 42.5956L88.1037 42.4462L88.0945 42.2914L88.0891 42.1312L88.0872 41.9638V34.1878L88.0891 34.0186L88.0945 33.8584L88.1037 33.7036L88.1164 33.5542L88.131 33.412L88.1511 33.2752L88.1748 33.1438L88.2021 33.0196L88.2331 32.9008L88.2696 32.7892L88.3097 32.683L88.3553 32.5804L88.4045 32.485L88.4592 32.395L88.5194 32.3086L88.6215 32.1808L88.7237 32.3086L88.7838 32.395L88.8385 32.485L88.8878 32.5804L88.9334 32.6812L88.9735 32.7892L89.01 32.9026L89.0428 33.0214L89.0701 33.1456L89.0938 33.277L89.1139 33.4138L89.1303 33.556L89.1413 33.7054L89.1504 33.8602L89.1558 34.0222L89.1577 34.1896V41.9656L89.1558 42.133L89.1504 42.2932L89.1413 42.448L89.1303 42.5974L89.1139 42.7396L89.0938 42.8764L89.0701 43.0078L89.0428 43.132L89.01 43.2508L88.9735 43.3642L88.9334 43.4722L88.8878 43.573L88.8385 43.6684L88.7838 43.7602L88.7237 43.8466L88.6215 43.9726ZM84.0937 32.7856L84.1302 32.899L84.163 33.0178L84.1904 33.142L84.2141 33.2734L84.2341 33.4102L84.2505 33.5524L84.2615 33.7018L84.2706 33.8566L84.2761 34.0186L84.2779 34.186V36.6934L84.2378 36.7132L84.1028 36.7708L83.9643 36.823L83.8293 36.8662L83.7035 36.8986L83.5941 36.9184L83.512 36.9238L83.4591 36.9202L83.399 36.9022L83.3297 36.8608L83.2421 36.769L83.14 36.589L83.0434 36.2902L82.9723 35.851L82.9449 35.2462V34.1878L82.9467 34.0186L82.9522 33.8584L82.9613 33.7036L82.9741 33.5542L82.9887 33.412L83.0087 33.2752L83.0324 33.1438L83.0598 33.0196L83.0908 32.9008L83.1273 32.7892L83.1674 32.683L83.213 32.5804L83.2622 32.485L83.3169 32.395L83.3771 32.3086L83.6141 32.0116L83.8494 32.3086L83.9095 32.395L83.9643 32.485L84.0135 32.5804L84.0591 32.6812L84.0937 32.7856ZM68.6028 44.0572L68.4333 43.843L68.3731 43.7566L68.3184 43.6648L68.2691 43.5694L68.2235 43.4668L68.1834 43.3606L68.147 43.249L68.116 43.1302L68.0886 43.0042L68.0649 42.8728L68.0448 42.736L68.0303 42.5938L68.0175 42.4444L68.0102 42.2896L68.0047 42.1294L68.0029 41.962V34.186L68.0047 34.0348L68.0084 33.8872L68.0157 33.7432L68.0248 33.6028L68.0375 33.466L68.054 33.3328L68.0758 33.2032L68.1014 33.0772L68.1324 32.9548L68.167 32.8378L68.2071 32.7244L68.2527 32.6146L68.3038 32.5084L68.3603 32.4058L68.4241 32.3068L68.5901 32.0782L68.7724 32.3068L68.8326 32.3932L68.8873 32.4832L68.9365 32.5786L68.9821 32.6794L69.0223 32.7874L69.0587 32.9008L69.0915 33.0196L69.1189 33.1438L69.1426 33.2752L69.1627 33.412L69.1791 33.5542L69.19 33.7036L69.1991 33.8584L69.2046 34.0204L69.2064 34.1878V41.9638L69.2046 42.1312L69.1991 42.2914L69.19 42.4462L69.1791 42.5956L69.1627 42.7378L69.1426 42.8746L69.1189 43.006L69.0915 43.1302L69.0587 43.249L69.0223 43.3624L68.9821 43.4704L68.9365 43.5712L68.8873 43.6666L68.8326 43.7584L68.7724 43.8448L68.6028 44.0572ZM53.4329 37.7716L53.4438 37.2406L53.473 36.7708L53.5204 36.3568L53.5824 35.9968L53.6572 35.6872L53.7411 35.4244L53.8322 35.2066L53.9271 35.0302L54.0219 34.8916L54.1149 34.7854L54.2043 34.7062L54.29 34.6504L54.372 34.6126L54.4522 34.5874L54.5307 34.573L54.5963 34.5694L54.8042 34.591L54.972 34.6486L55.1233 34.7404L55.2637 34.8718L55.395 35.0446L55.5154 35.257L55.6211 35.5036L55.7123 35.779L55.7871 36.0742L55.8473 36.3856L55.8947 36.706L55.9293 37.0282L55.953 37.3468L55.9676 37.6564L55.9749 37.9516L55.9767 38.2252L55.9749 38.5114L55.9658 38.8084L55.9512 39.1108L55.9275 39.415L55.8928 39.7156L55.8473 40.009L55.7889 40.2898L55.7196 40.5526L55.6357 40.792L55.5391 41.0026L55.4315 41.1808L55.3148 41.3248L55.1908 41.4328L55.0577 41.5084L54.9081 41.5552L54.7367 41.5714L54.538 41.548L54.3738 41.4832L54.2243 41.377L54.0821 41.224L53.9508 41.0224L53.8322 40.7776L53.7301 40.4986L53.6463 40.1926L53.577 39.8668L53.5241 39.532L53.4858 39.1954L53.4584 38.866L53.4402 38.551L53.4311 38.2576L53.4274 37.993L53.4329 37.7716ZM49.454 38.1244L49.4612 38.5528L49.4813 38.9668L49.516 39.3646L49.5634 39.748L49.6235 40.117L49.6965 40.4716L49.7804 40.8118L49.877 41.1376L49.9846 41.4472L50.1031 41.7442L50.2326 42.0268L50.3712 42.295L50.5207 42.5488L50.6794 42.79L50.8471 43.0168L51.024 43.2292L51.2082 43.4272L51.3997 43.6126L51.6003 43.7836L51.8063 43.942L52.0178 44.086L52.2348 44.2174L52.4573 44.3344L52.6853 44.4388L52.9168 44.5288L53.1521 44.608L53.391 44.6728L53.6317 44.7268L53.8742 44.7682L54.1185 44.797L54.3629 44.8132L54.6091 44.8186L54.8771 44.8114L55.1434 44.7898L55.4078 44.7538L55.6685 44.7052L55.9257 44.6404L56.1791 44.563L56.4271 44.4712L56.6715 44.365L56.9104 44.2444L57.142 44.1112L57.3681 43.9636L57.5869 43.8034L57.7984 43.6288L58.0027 43.4416L58.1978 43.2418L58.3856 43.0294L58.5643 42.8026L58.7339 42.565L58.8944 42.313L59.0439 42.0502L59.1843 41.7748L59.3047 41.5048L59.3995 44.4244L59.6694 44.5846L59.7697 44.6368L59.8772 44.6854L59.994 44.7286L60.1161 44.7646L60.2456 44.7934L60.3824 44.8114L60.5282 44.8186L60.7781 44.806L61.0206 44.7664L61.2504 44.7016L61.4692 44.6116L61.6734 44.4964L61.8631 44.3596L62.0363 44.203L62.1968 44.0284L62.3408 43.8358L62.4721 43.6288L62.5907 43.4074L62.6982 43.1716L62.7967 42.9232L62.8843 42.6622L62.9645 42.3886L63.0374 42.1024L63.1013 41.8036L63.1596 41.494L63.2107 41.1736L63.2563 40.8424L63.2945 40.5004L63.3292 40.1494L63.3584 39.7894L63.3839 39.4204L63.4058 39.0424L63.424 38.6554L63.4386 38.2612L63.4495 37.8598L63.4587 37.4512L63.466 37.0372L63.4714 36.6178L63.4751 36.193L63.4878 34.6432H64.1881V41.9584L64.1862 42.1258L64.1808 42.286L64.1717 42.4408L64.1607 42.5902L64.1443 42.7324L64.1243 42.8692L64.1005 43.0006L64.0732 43.1248L64.0404 43.2436L64.0039 43.357L63.9638 43.465L63.9182 43.5658L63.869 43.6612L63.8143 43.753L63.7541 43.8394L63.187 44.5576H68.1998H69.0004H72.6474L74.5822 38.8984V41.9584L74.5804 42.1258L74.5749 42.286L74.5658 42.4408L74.5548 42.5902L74.5384 42.7324L74.5184 42.8692L74.4947 43.0006L74.4673 43.1248L74.4345 43.2436L74.398 43.357L74.3579 43.465L74.3123 43.5658L74.2631 43.6612L74.2084 43.753L74.1482 43.8394L73.5811 44.5558H79.3927L78.8237 43.8376L78.7635 43.7512L78.7088 43.6594L78.6596 43.564L78.614 43.4614L78.5739 43.3552L78.5374 43.2436L78.5064 43.1248L78.4791 42.9988L78.4554 42.8674L78.4353 42.7306L78.4207 42.5884L78.4116 42.4444L78.4025 42.2896L78.397 42.1294L78.3952 41.962V34.186L78.397 34.0168L78.4025 33.8566L78.4116 33.7018L78.4244 33.5524L78.439 33.4102L78.459 33.2734L78.4827 33.142L78.5101 33.0178L78.5411 32.899L78.5775 32.7874L78.6177 32.6812L78.6633 32.5786L78.7125 32.4832L78.7617 32.4022L78.8091 32.4832L78.8584 32.5786L78.904 32.6794L78.9441 32.7874L78.9805 32.9008L79.0134 33.0196L79.0407 33.1438L79.0644 33.2752L79.0845 33.412L79.1009 33.5542L79.1118 33.7036L79.121 33.8584L79.1264 34.0204L79.1283 34.1878V35.9194L79.1428 36.454L79.1866 36.9562L79.2577 37.4206L79.3562 37.849L79.4802 38.2432L79.6297 38.6032L79.803 38.929L79.9999 39.2206L80.2187 39.4762L80.4576 39.6976L80.7147 39.883L80.9883 40.0342L81.2745 40.1494L81.57 40.2304L81.8708 40.2772L82.1735 40.2934L82.3632 40.2862L82.5474 40.2682L82.7279 40.2412L82.9066 40.2052L83.0817 40.162L83.2531 40.1116L83.4208 40.0558L83.5868 39.9964L83.7509 39.9334L83.9114 39.8686L84.07 39.802L84.225 39.7336L84.2761 39.7102V41.9638L84.2743 42.0898L84.2706 42.2176L84.2633 42.349L84.2542 42.4822L84.2396 42.6154L84.2214 42.7486L84.1977 42.8818L84.1703 43.0132L84.1357 43.141L84.0955 43.267L84.0481 43.3876L83.9953 43.5046L83.9351 43.6162L83.8676 43.7224L83.7928 43.8214L83.1327 44.5684H88.1547H89.0884H93.2861H93.9681H98.299H99.0977H102.747L104.681 38.9092V41.9692L104.68 42.1366L104.674 42.2968L104.665 42.4516L104.654 42.601L104.638 42.7432L104.618 42.88L104.594 43.0114L104.566 43.1356L104.534 43.2544L104.497 43.3678L104.457 43.4758L104.411 43.5766L104.362 43.672L104.308 43.7638L104.247 43.8502L103.68 44.5666H108.693H109.492H113.141L115.075 38.9074V41.9674L115.074 42.1348L115.068 42.295L115.059 42.4498L115.048 42.5992L115.032 42.7414L115.012 42.8782L114.988 43.0096L114.961 43.1338L114.928 43.2526L114.891 43.366L114.851 43.474L114.806 43.5748L114.756 43.6702L114.702 43.762L114.641 43.8484L114.074 44.5648H119.886L119.317 43.8466L119.257 43.7602L119.202 43.6684L119.153 43.573L119.107 43.4704L119.067 43.3642L119.031 43.2526L119 43.1338L118.972 43.0078L118.949 42.8764L118.929 42.7396L118.914 42.5974L118.901 42.448L118.892 42.2932L118.887 42.133L118.885 41.9656V34.1896L118.887 34.0204L118.892 33.8602L118.901 33.7054L118.914 33.556L118.929 33.4138L118.949 33.277L118.972 33.1456L119 33.0214L119.031 32.9026L119.067 32.791L119.107 32.6848L119.153 32.5822L119.202 32.4868L119.257 32.3968L119.317 32.3104L119.89 31.5922H115.455L113.502 37.2658V34.1914L113.504 34.0222L113.509 33.862L113.518 33.7072L113.531 33.5578L113.546 33.4156L113.566 33.2788L113.589 33.1474L113.617 33.0232L113.648 32.9044L113.684 32.7928L113.724 32.6866L113.77 32.584L113.819 32.4886L113.874 32.3986L113.934 32.3122L114.507 31.594H109.494H108.689H105.059L103.106 37.2676V34.1932L103.108 34.024L103.113 33.8638L103.122 33.709L103.135 33.5596L103.15 33.4174L103.17 33.2806L103.193 33.1492L103.221 33.025L103.252 32.9062L103.288 32.7946L103.328 32.6884L103.374 32.5858L103.423 32.4904L103.478 32.4004L103.538 32.314L104.111 31.5958H99.0977H98.2936H93.9681H93.2807H89.0884H88.1493H83.9405H83.2713H79.4H78.1253H74.9651L73.0121 37.2694V34.195L73.014 34.0258L73.0194 33.8656L73.0285 33.7108L73.0413 33.5614L73.0559 33.4192L73.076 33.2824L73.0997 33.151L73.127 33.0268L73.158 32.908L73.1945 32.7964L73.2346 32.6902L73.2802 32.5876L73.3294 32.4922L73.3841 32.4022L73.4443 32.3158L74.0169 31.5976H68.9438H68.1998H59.921L60.572 32.386L60.676 32.539L60.7671 32.701L60.8474 32.872L60.9148 33.052L60.9714 33.2392L61.0188 33.4336L61.0571 33.6334L61.0863 33.8368L61.1081 34.0438L61.1245 34.2526L61.1355 34.4632L61.141 34.6738L61.1446 34.8826V35.0896V35.2912L61.1428 35.9104L61.1391 36.5098L61.13 37.0876L61.1173 37.6384L61.0954 38.1604L61.0662 38.65L61.0261 39.1036L60.975 39.5176L60.9112 39.8866L60.8346 40.207L60.7471 40.4716L60.6522 40.6768L60.5574 40.8172L60.4717 40.8982L60.3951 40.936L60.2912 40.9522L60.2383 40.9486L60.18 40.9378L60.1289 40.9216L60.0833 40.9018L60.0432 40.8784L60.0067 40.8532L59.9757 40.828L59.6457 40.5364L59.7204 40.2358L59.7915 39.8902L59.8517 39.532L59.8991 39.163L59.9338 38.7832L59.9538 38.3908L59.9611 37.9876L59.9557 37.6348L59.9393 37.2892L59.9119 36.9508L59.8754 36.6178L59.828 36.292L59.7697 35.9752L59.7004 35.6638L59.622 35.3614L59.5326 35.0662L59.4323 34.78L59.3229 34.5028L59.2025 34.2346L59.0713 33.9754L58.9308 33.727L58.7795 33.4876L58.619 33.259L58.4476 33.0412L58.2671 32.8342L58.0756 32.638L57.875 32.4544L57.6635 32.2834L57.4428 32.1268L57.2131 31.9828L56.9742 31.8532L56.7262 31.7362L56.4709 31.6354L56.2065 31.549L55.9348 31.477L55.6558 31.4212L55.3695 31.3816L55.0759 31.3564L54.7768 31.3492L54.4796 31.3564L54.1897 31.3798L53.9052 31.4194L53.6262 31.4752L53.3545 31.5454L53.0901 31.6318L52.833 31.7326L52.5831 31.8478L52.3406 31.9774L52.1072 32.1214L51.8811 32.278L51.6641 32.449L51.4562 32.6326L51.2574 32.8288L51.0696 33.0376L50.8909 33.2572L50.7213 33.4876L50.5627 33.7306L50.4131 33.9844L50.2745 34.249L50.1469 34.5226L50.0284 34.807L49.9208 35.1004L49.8241 35.4046L49.7384 35.716L49.6637 36.0382L49.5998 36.3676L49.547 36.706L49.5068 37.0534L49.4777 37.408L49.4594 37.7716L49.454 38.1244ZM42.84 34.8124L42.9804 34.7296L43.1026 34.6792L43.2047 34.654L43.3014 34.6468H43.7518V41.962L43.75 42.1294L43.7445 42.2896L43.7354 42.4444L43.7244 42.5938L43.708 42.736L43.688 42.8728L43.6643 43.0042L43.6369 43.1284L43.6041 43.2472L43.5676 43.3606L43.5275 43.4686L43.4819 43.5694L43.4327 43.6648L43.378 43.7566L43.3178 43.843L42.7507 44.5594H48.5641L47.9933 43.8412L47.9331 43.7548L47.8784 43.663L47.8292 43.5676L47.7836 43.465L47.7435 43.3588L47.707 43.2472L47.676 43.1284L47.6487 43.0024L47.625 42.871L47.6049 42.7342L47.5903 42.592L47.5775 42.4426L47.5684 42.2878L47.563 42.1276L47.5611 41.9602V34.645H48.0207L48.121 34.6486L48.2048 34.6612L48.2778 34.6864L48.3507 34.7296L48.431 34.8052L48.5221 34.9348L48.617 35.1364L49.2479 37.1344L50.0667 30.8146L49.2351 31.5724L49.2205 31.5832H49.2169L49.1932 31.585H49.1531H42.6668H42.6394L42.634 31.5796L42.045 30.9874L41.166 37.2838L42.3404 35.3416L42.5154 35.1112L42.6832 34.9366L42.84 34.8124Z" fill="black"/>
<path fill-rule="evenodd" clip-rule="evenodd" d="M111.4 26.7607C111.281 29.2771 112.662 30.8287 114.294 30.8287C115.926 30.8287 117.304 29.2789 117.188 26.7607H114.934C115.69 27.7021 115.034 28.7191 114.294 28.7191C113.57 28.7191 112.931 27.7273 113.654 26.7607H111.4ZM113.116 39.5983V34.1839C113.116 33.2425 113.25 32.5063 113.705 31.9717H109.499C109.954 32.5063 110.089 33.2425 110.089 34.1839V41.9635C110.089 42.9049 109.954 43.6411 109.499 44.1757H112.864L115.472 36.5491V41.9635C115.472 42.9049 115.337 43.6411 114.883 44.1757H119.088C118.634 43.6411 118.499 42.9049 118.499 41.9635V34.1839C118.499 33.2425 118.634 32.5063 119.088 31.9717H115.74L113.116 39.5983ZM102.718 39.5983V34.1839C102.718 33.2425 102.853 32.5063 103.307 31.9717H99.1017C99.5558 32.5063 99.6907 33.2425 99.6907 34.1839V41.9635C99.6907 42.9049 99.5558 43.6411 99.1017 44.1757H102.466L105.074 36.5491V41.9635C105.074 42.9049 104.939 43.6411 104.485 44.1757H108.69C108.236 43.6411 108.101 42.9049 108.101 41.9635V34.1839C108.101 33.2425 108.236 32.5063 108.69 31.9717H105.342L102.718 39.5983ZM88.9574 31.9717C89.4115 32.5063 89.5464 33.2425 89.5464 34.1839V41.9635C89.5464 42.9049 89.4115 43.6411 88.9574 44.1757H93.1625C92.7084 43.6411 92.5735 42.9049 92.5735 41.9635V38.7865H94.676V41.9635C94.676 42.9049 94.5411 43.6411 94.087 44.1757H98.2921C97.838 43.6411 97.7031 42.9049 97.7031 41.9635V34.1839C97.7031 33.2425 97.838 32.5063 98.2921 31.9717H94.087C94.5411 32.5063 94.676 33.2425 94.676 34.1839V36.4969H92.5735V34.1839C92.5735 33.2425 92.7084 32.5063 93.1625 31.9717H88.9574ZM84.0795 31.9717C84.5336 32.5063 84.6685 33.2425 84.6685 34.1839V36.9289C84.3494 37.1071 83.8443 37.3105 83.5069 37.3105C83.2206 37.3105 82.5477 37.1575 82.5477 35.2513V34.1839C82.5477 33.2425 82.6827 32.5063 83.1367 31.9717H78.9317C79.3857 32.5063 79.5207 33.2425 79.5207 34.1839V35.9119C79.5207 38.7847 80.7479 39.9025 82.1794 39.9025C83.0383 39.9025 83.8789 39.4453 84.6685 39.1141V41.9617C84.6685 42.6475 84.5846 43.5637 83.9956 44.1739H88.2846C87.8305 43.6393 87.6956 42.9031 87.6956 41.9617V34.1821C87.6956 33.2407 87.8305 32.5045 88.2846 31.9699H84.0795V31.9717ZM72.6223 39.5983V34.1839C72.6223 33.2425 72.7572 32.5063 73.2113 31.9717H69.0062C69.4603 32.5063 69.5952 33.2425 69.5952 34.1839V41.9635C69.5952 42.9049 69.4603 43.6411 69.0062 44.1757H72.3706L74.9783 36.5491V41.9635C74.9783 42.9049 74.8433 43.6411 74.3893 44.1757H78.5943C78.1403 43.6411 78.0053 42.9049 78.0053 41.9635V34.1839C78.0053 33.2425 78.1403 32.5063 78.5943 31.9717H75.2463L72.6223 39.5983ZM60.7456 31.9717C61.5534 32.8609 61.537 34.2091 61.537 35.2765C61.537 38.6317 61.486 41.3263 60.308 41.3263C59.9688 41.3263 59.7664 41.1481 59.6825 41.0725L59.7828 44.2045C59.987 44.3323 60.2223 44.4331 60.525 44.4331C62.8299 44.4331 63.0487 40.7431 63.0816 36.1927L63.098 34.2613H64.5787V41.9635C64.5787 42.9049 64.4437 43.6411 63.9897 44.1757H68.1947C67.7407 43.6411 67.6057 42.9049 67.6057 41.9635V34.1839C67.6057 33.3451 67.706 32.5819 68.1783 31.9717H60.7456ZM53.0412 37.7677C53.0412 34.7167 53.984 34.1839 54.6058 34.1839C56.2032 34.1839 56.3728 36.8029 56.3728 38.2267C56.3728 39.7513 56.1886 41.9635 54.7407 41.9635C53.0923 41.9635 53.0412 38.8873 53.0412 37.7677ZM49.8446 38.1241C49.8446 42.6493 52.1823 44.4331 54.6058 44.4331C57.2627 44.4331 59.5676 42.1921 59.5676 37.9711C59.5676 34.3099 57.7842 31.7179 54.7736 31.7179C51.814 31.7179 49.8446 34.2595 49.8446 38.1241ZM49.5419 31.8187C49.3905 31.9717 49.2902 31.9717 49.1553 31.9717H42.6617C42.5267 31.9717 42.4429 31.9465 42.3243 31.8187L41.8174 35.4547C42.3426 34.4881 42.9297 34.2595 43.2835 34.2595H44.1406V41.9617C44.1406 42.9031 44.0056 43.6393 43.5516 44.1739H47.7566C47.3026 43.6393 47.1676 42.9031 47.1676 41.9617V34.2595H48.0265C48.3639 34.2595 48.8343 34.3351 49.086 35.3269L49.5419 31.8187Z" fill="#595651"/>
<path fill-rule="evenodd" clip-rule="evenodd" d="M24.9512 6.78961L21.2622 4.97701L21.6342 4.24081L23.0858 4.95361L23.8115 3.51361L22.36 2.80081L22.7302 2.06641L26.4192 3.87901L26.049 4.61341L24.4352 3.82141L23.7094 5.26141L25.3232 6.05341L24.9512 6.78961ZM21.4154 9.23221C21.833 9.43741 22.1977 9.49681 22.5095 9.41401C22.8214 9.32941 23.0511 9.14041 23.1988 8.84701C23.3465 8.55361 23.3611 8.26201 23.2408 7.96681C23.1222 7.67521 22.8487 7.42321 22.4202 7.21261C21.9971 7.00561 21.6361 6.94081 21.3352 7.02181C21.0343 7.10281 20.8082 7.29541 20.655 7.59781C20.5018 7.90201 20.4836 8.19721 20.6021 8.48701C20.7207 8.77501 20.9905 9.02341 21.4154 9.23221ZM21.058 10.0026C20.6824 9.81721 20.3942 9.60841 20.1955 9.37081C20.0496 9.19621 19.9384 9.00001 19.8599 8.78401C19.7834 8.56801 19.7524 8.35561 19.7651 8.15041C19.7815 7.87501 19.8654 7.59061 20.0149 7.29361C20.2848 6.75721 20.6696 6.40981 21.1711 6.25501C21.6707 6.09841 22.2214 6.16681 22.8214 6.46201C23.4177 6.75541 23.8024 7.14421 23.9775 7.62841C24.1525 8.11261 24.1051 8.62381 23.8352 9.15661C23.5617 9.69841 23.1769 10.0476 22.6828 10.2024C22.1868 10.3572 21.6452 10.2906 21.058 10.0026ZM21.8658 12.9096L18.8005 11.403L18.2552 12.483L17.6316 12.177L19.0904 9.28261L19.7141 9.58861L19.1707 10.6668L22.236 12.1734L21.8658 12.9096ZM19.7414 17.1234L16.0524 15.3108L17.4146 12.6108L18.0382 12.9168L17.0481 14.8806L17.865 15.282L18.7859 13.4532L19.4077 13.7592L18.4868 15.588L19.4916 16.0812L20.5164 14.0472L21.1382 14.3532L19.7414 17.1234ZM17.6553 19.7262L18.0164 19.0098C18.1312 18.7812 18.2005 18.6156 18.2261 18.5112C18.2498 18.4068 18.2388 18.3006 18.1932 18.1926C18.1477 18.0846 18.0656 18.0018 17.9489 17.9424C17.7775 17.8578 17.6225 17.8578 17.4839 17.9388C17.3453 18.0198 17.2031 18.207 17.0572 18.4968L16.6797 19.2438L17.6553 19.7262ZM14.2161 18.9522L15.5892 16.2288L16.2092 16.533L15.2063 18.5202L16.0615 18.9414L16.5575 17.9586C16.6943 17.6868 16.842 17.478 16.9988 17.3322C17.1557 17.1864 17.3581 17.0946 17.6024 17.0568C17.8468 17.019 18.0911 17.0604 18.3355 17.1792C18.5853 17.3016 18.7677 17.4708 18.8807 17.6868C18.9938 17.901 19.043 18.1062 19.0266 18.3024C19.0102 18.4968 18.9245 18.7452 18.7731 19.0476L17.9069 20.7666L14.2161 18.9522ZM14.4641 27.5886L11.3988 26.082L10.8535 27.162L10.2299 26.856L11.6887 23.9616L12.3124 24.2676L11.7689 25.3458L14.8343 26.8524L14.4641 27.5886ZM12.2248 30.4974L12.5859 29.781C12.7026 29.5488 12.7719 29.3832 12.7956 29.2824C12.8175 29.1816 12.8065 29.0754 12.7628 28.9656C12.7172 28.8558 12.6369 28.7712 12.5184 28.7136C12.3488 28.6308 12.1938 28.629 12.0552 28.7118C11.9167 28.7928 11.7744 28.9782 11.6267 29.268L11.2492 30.015L12.2248 30.4974ZM8.78383 29.7252L9.154 28.9908L10.6292 29.7162L11.1252 28.7334C11.3587 28.269 11.6377 27.9882 11.9622 27.8874C12.2868 27.7866 12.6023 27.8118 12.9105 27.963C13.1621 28.0872 13.3445 28.2546 13.4575 28.467C13.5706 28.6794 13.618 28.881 13.5979 29.0736C13.5797 29.2662 13.494 29.5146 13.339 29.8188L12.4728 31.5378L8.78383 29.7252ZM7.108 33.048L8.39359 30.4974L12.0826 32.31L11.7124 33.0444L8.64706 31.5378L8.09453 32.634L9.67006 33.408C10.1205 33.6294 10.4287 33.8004 10.5928 33.9174C10.7569 34.0344 10.859 34.1766 10.9009 34.3404C10.9429 34.5042 10.9009 34.7094 10.7769 34.9542C10.7332 35.0406 10.6475 35.1936 10.5162 35.4114L9.93995 35.1288L10.0257 34.9668C10.1041 34.812 10.1351 34.6986 10.1187 34.6248C10.1041 34.551 10.0129 34.4736 9.84877 34.3926L9.21418 34.083L7.108 33.048ZM8.29512 36.2106L6.67218 36.0396L7.79365 37.2042L8.29512 36.2106ZM10.4378 35.5734L10.0348 36.3744L9.03548 36.2808L8.30059 37.737L8.98806 38.4498L8.59418 39.2292L5.62001 35.9982L6.01206 35.2206L10.4378 35.5734ZM6.33118 41.1156L4.68271 40.3056C4.52589 40.6152 4.48395 40.8744 4.55506 41.0796C4.62618 41.2866 4.80306 41.4594 5.08753 41.598C5.62183 41.8608 6.03577 41.7006 6.33118 41.1156ZM6.69406 40.3956C6.79071 40.203 6.84177 40.0212 6.84542 39.852C6.84906 39.681 6.81077 39.5406 6.73053 39.429C6.64848 39.3174 6.50077 39.2076 6.28924 39.1032C5.75495 38.8404 5.341 39.0024 5.04559 39.5874L6.69406 40.3956ZM7.31589 40.7016L7.74624 40.9122L7.38336 41.6322L6.95301 41.4216C6.63754 41.9922 6.28559 42.3306 5.89536 42.4386C5.50512 42.5448 5.10759 42.4998 4.70277 42.3C4.27606 42.0912 3.99706 41.7978 3.86759 41.4216C3.7363 41.0454 3.80012 40.5702 4.06089 40.0014L3.69618 39.8214L4.05906 39.1014L4.42377 39.2814C4.73742 38.7144 5.08753 38.3742 5.47595 38.2662C5.86436 38.1564 6.26371 38.2014 6.67218 38.403C7.07883 38.6028 7.35418 38.8872 7.50189 39.2598C7.64777 39.6288 7.58577 40.1094 7.31589 40.7016ZM4.62253 43.7508L5.20971 43.1514C5.55801 43.4592 5.76406 43.7868 5.83336 44.1378C5.90083 44.487 5.83518 44.8578 5.63824 45.2484C5.39389 45.7308 5.02736 46.0476 4.53501 46.1934C4.04265 46.3392 3.50653 46.2708 2.92665 45.9864C2.31212 45.684 1.91459 45.2934 1.73224 44.8128C1.54989 44.334 1.58818 43.839 1.8453 43.3278C2.06959 42.8832 2.38506 42.5862 2.79353 42.4386C3.03424 42.3504 3.32418 42.3378 3.66153 42.399L3.47006 43.2144C3.25671 43.1622 3.05977 43.1784 2.88106 43.2612C2.70053 43.344 2.56195 43.4826 2.46348 43.677C2.32671 43.947 2.31395 44.2152 2.427 44.478C2.53824 44.7426 2.81359 44.982 3.25306 45.198C3.71989 45.4266 4.09371 45.5076 4.37453 45.4392C4.65718 45.3708 4.86324 45.2052 4.99636 44.9406C5.09483 44.7444 5.11671 44.5464 5.06201 44.343C5.00912 44.1432 4.86142 43.9452 4.62253 43.7508ZM2.52912 47.6478L0.906181 47.4768L2.02765 48.6414L2.52912 47.6478ZM4.67177 47.0106L4.26877 47.8116L3.26948 47.718L2.53459 49.1742L3.22206 49.887L2.82818 50.6664L-0.145996 47.4336L0.246063 46.656L4.67177 47.0106Z" fill="black"/>
<path d="M14.4395 21.3299L13.582 23.0879L15.363 23.9343L16.2205 22.1763L14.4395 21.3299Z" fill="black"/>
<path d="M14.4395 21.3299L13.582 23.0879L15.363 23.9343L16.2205 22.1763L14.4395 21.3299Z" stroke="black" stroke-width="0.216" stroke-miterlimit="22.9256"/>
</g>
<defs>
<clipPath id="clip0_44_6063">
<rect width="124" height="72" fill="white"/>
</clipPath>
</defs>
</svg>
