<svg width="69" height="61" viewBox="0 0 69 61" fill="none" xmlns="http://www.w3.org/2000/svg">
<path d="M69 0H0V61H69V0Z" fill="#E40C25"/>
<path d="M24.0306 22.1465L17.2499 13.5186H13.3442L24.0306 27.0375H27.0683V13.5186H24.0306V22.1465Z" fill="white"/>
<path d="M33.9035 13.5186H30.8657V27.0375H33.9035V13.5186Z" fill="white"/>
<path d="M42.8539 13.5186H37.7549V27.0375H42.8539C47.7903 27.0375 50.3398 24.015 50.3398 20.278C50.3398 16.5411 47.736 13.5186 42.8539 13.5186ZM42.8539 24.0699H40.8469V16.4861H42.8539C45.6205 16.4861 47.0308 18.1897 47.0308 20.278C47.0308 22.3663 45.5662 24.0699 42.8539 24.0699Z" fill="white"/>
<path d="M55.6559 13.5186H52.6182V27.0375H55.6559V13.5186Z" fill="white"/>
<path d="M12.6934 52.6465L14.9174 47.4258H15.4599L17.6839 52.6465H17.033L16.382 51.0528H14.0495L13.3985 52.6465H12.6934ZM15.1886 48.2501L14.2665 50.4483H16.1108L15.1886 48.2501Z" fill="white"/>
<path d="M18.2808 52.6469V49.3496H18.8232H19.5284C20.4506 49.3496 20.9388 49.6244 20.9388 50.2289C20.9388 50.3938 20.8845 50.5586 20.776 50.7235C20.6676 50.8883 20.4506 50.9433 20.2878 50.9983C20.776 51.1082 21.0473 51.3829 21.0473 51.7676C21.0473 52.4271 20.5591 52.7568 19.5284 52.7568H18.8775L18.2808 52.6469ZM19.5284 49.7343C19.3657 49.7343 19.1487 49.7343 18.8775 49.7343V50.7235H19.6369C19.7996 50.7235 19.9624 50.6685 20.1251 50.5586C20.2336 50.4487 20.2878 50.3388 20.2878 50.1739C20.2878 49.8992 20.0709 49.7343 19.5284 49.7343ZM19.5826 51.1631H18.8775V52.2073C19.2572 52.2073 19.4742 52.2073 19.5284 52.2073C20.0709 52.2073 20.3963 52.0424 20.3963 51.6577C20.3963 51.273 20.1251 51.1631 19.5826 51.1631Z" fill="white"/>
<path d="M21.5352 49.8992V49.3496H24.5729V49.9541H23.3253V52.7019H22.7286V49.9541L21.5352 49.8992Z" fill="white"/>
<path d="M25.3324 52.2071C24.6815 51.4927 24.6815 50.3936 25.3324 49.6792C26.0376 49.0197 27.1768 49.0197 27.882 49.6792C28.5329 50.3936 28.5329 51.4927 27.882 52.2071C27.1225 52.8666 26.0376 52.8666 25.3324 52.2071ZM25.4409 50.9431C25.4409 51.2729 25.5494 51.5476 25.7664 51.8224C26.2004 52.262 26.9598 52.262 27.3938 51.8224C27.8277 51.3278 27.8277 50.6134 27.3938 50.1188C26.9598 49.6792 26.2004 49.6792 25.7664 50.1188C25.5494 50.3386 25.4409 50.6684 25.4409 50.9431Z" fill="white"/>
<path d="M28.6416 53.4712V52.0974H29.0756C29.2383 51.8775 29.3468 51.6028 29.401 51.3829C29.5095 50.9983 29.5638 50.6136 29.5638 50.2289L29.618 49.3496H31.8963V52.1523H32.4388V53.5262H31.8963V52.7019H29.2383V53.5262L28.6416 53.4712ZM30.1062 50.3938C30.052 50.7235 29.9977 51.1082 29.9435 51.4379C29.8892 51.6577 29.7808 51.8775 29.6723 52.0974H31.2996V49.8442H30.1605L30.1062 50.3938Z" fill="white"/>
<path d="M33.6319 52.6469H33.0352V49.3496H33.6319V51.8226L35.5304 49.3496H36.1271V52.7019H35.5304V50.2289L33.6319 52.6469Z" fill="white"/>
<path d="M39.5992 52.6469V51.2181H37.7549V52.6469H37.1582V49.3496H37.7549V50.7235H39.5992V49.3496H40.1959V52.7019L39.5992 52.6469Z" fill="white"/>
<path d="M41.4432 50.0088L41.2805 49.5142C41.606 49.2944 41.9857 49.1845 42.3654 49.1845C42.7451 49.1295 43.0706 49.2944 43.3418 49.5142C43.5588 49.789 43.6673 50.1737 43.6131 50.5584V52.5917H43.0706V52.207C42.7994 52.5367 42.4197 52.7016 42.0399 52.7016C41.4975 52.7016 41.0635 52.3169 41.0093 51.7674C41.0093 51.7124 41.0093 51.7124 41.0093 51.6575C41.0093 51.3277 41.1178 51.0529 41.3347 50.8881C41.606 50.6683 41.9314 50.6133 42.2569 50.6133C42.5281 50.6133 42.8536 50.6683 43.0706 50.8331C43.0706 50.5584 43.0164 50.2836 42.9079 50.0088C42.7451 49.789 42.5281 49.734 42.3112 49.734C42.0399 49.734 41.7145 49.8439 41.4432 50.0088ZM42.2569 52.152C42.5824 52.152 42.9079 51.9872 43.1248 51.7124V51.2728C42.9079 51.1079 42.6366 51.0529 42.3654 51.0529C42.2027 51.0529 42.0399 51.1079 41.8772 51.2178C41.7687 51.3277 41.6602 51.4376 41.6602 51.6025C41.6602 51.7674 41.7145 51.8773 41.823 51.9872C41.9314 52.0971 42.0942 52.152 42.2569 52.152Z" fill="white"/>
<path d="M47.1933 51.7129L47.4645 52.1525C47.3018 52.3174 47.139 52.4822 46.922 52.5922C46.7051 52.7021 46.4338 52.757 46.2168 52.757C45.7286 52.757 45.2947 52.5922 44.915 52.2624C44.5895 51.9327 44.4268 51.4381 44.4268 50.9985C44.4268 50.5588 44.5895 50.0642 44.915 49.7345C45.2404 49.4048 45.6744 49.2399 46.1084 49.2399C46.5966 49.185 47.0305 49.3498 47.4102 49.6795L47.139 50.1741C46.8678 49.9543 46.5423 49.7895 46.2168 49.8444C45.8914 49.8444 45.6202 49.9543 45.4032 50.1741C45.1862 50.394 45.0777 50.7237 45.0777 50.9985C45.0777 51.3282 45.1862 51.6579 45.4032 51.8777C45.6202 52.0976 45.9456 52.2075 46.2711 52.2075C46.5966 52.1525 46.9763 51.9877 47.1933 51.7129Z" fill="white"/>
<path d="M47.79 49.8992V49.3496H50.8278V49.9541H49.6344V52.7019H49.0377V49.9541L47.79 49.8992Z" fill="white"/>
<path d="M51.533 48.0302C51.533 47.9203 51.5873 47.8104 51.6415 47.7554C51.6958 47.7005 51.8043 47.6455 51.9128 47.6455C52.0212 47.6455 52.0755 47.7005 52.184 47.7554C52.2382 47.8104 52.2925 47.9203 52.2925 48.0302C52.2925 48.25 52.1297 48.4149 51.967 48.4149C51.8585 48.4149 51.75 48.4149 51.6958 48.305C51.533 48.25 51.4788 48.1401 51.533 48.0302ZM51.5873 52.6464V49.3491H52.184V52.7014L51.5873 52.6464Z" fill="white"/>
<path d="M54.8418 49.2949H55.8725V52.6472H55.2758V51.5481H54.6248L53.8111 52.6472H53.106L54.0824 51.3832C53.8654 51.3283 53.7027 51.2183 53.5942 51.0535C53.4314 50.8886 53.3772 50.6138 53.3772 50.394C53.3772 50.0643 53.4857 49.7895 53.7027 49.5697C54.0824 49.4048 54.4621 49.2949 54.8418 49.2949ZM53.9739 50.449C53.9739 50.6138 54.0281 50.7238 54.1366 50.8337C54.2451 50.9436 54.4078 50.9985 54.5706 50.9985H55.2215V49.8994H54.6791C54.4621 49.8994 54.2994 49.9544 54.1366 50.0643C54.0824 50.1192 53.9739 50.2841 53.9739 50.449Z" fill="white"/>
<path d="M69 40.2266H0V40.941H69V40.2266Z" fill="white"/>
</svg>
