<svg width="95" height="76" viewBox="0 0 95 76" fill="none" xmlns="http://www.w3.org/2000/svg">
<path d="M43.0852 64.9095C41.5523 64.922 40.0791 65.4968 38.9528 66.5218C37.8264 67.5469 37.1276 68.9488 36.9924 70.4542C36.9375 71.1711 37.035 71.8915 37.2791 72.569C37.5231 73.2466 37.9082 73.8662 38.4096 74.3884C38.911 74.9105 39.5175 75.3236 40.1903 75.6009C40.8632 75.8782 41.5874 76.0138 42.3166 75.9988C43.85 75.9884 45.3244 75.4143 46.4512 74.3889C47.578 73.3634 48.2763 71.9603 48.4093 70.4542C48.4657 69.7369 48.3691 69.016 48.1257 68.3378C47.8821 67.6596 47.4972 67.0392 46.9954 66.5168C46.4938 65.9944 45.8867 65.5814 45.2131 65.3046C44.5396 65.0277 43.8147 64.8931 43.0852 64.9095ZM47.5657 70.4542C47.4375 71.7483 46.825 72.949 45.8476 73.8221C44.8702 74.6951 43.598 75.1779 42.279 75.1763C41.6596 75.185 41.0449 75.0671 40.4738 74.8302C39.9028 74.5932 39.3877 74.2422 38.9609 73.7994C38.1995 72.995 37.7801 71.9333 37.7892 70.833C37.7892 70.7314 37.7892 70.6204 37.7892 70.5188C37.9076 69.2226 38.5104 68.016 39.4804 67.1332C40.4502 66.2503 41.7183 65.7542 43.0383 65.7412C43.6602 65.7314 44.2775 65.8495 44.8504 66.0882C45.4234 66.3269 45.9395 66.6808 46.3659 67.1274C46.7869 67.5615 47.1111 68.0776 47.3177 68.6425C47.5243 69.2076 47.6088 69.8089 47.5657 70.408V70.4542Z" fill="#76AA26"/>
<path d="M35.1182 37.9625C35.1182 37.9625 29.0724 2.27331 28.8662 0.998041L70.6902 8.317L57.3332 37.8885H58.2705L71.9088 7.71633L27.8257 0L34.2934 37.9625H35.1182Z" fill="#76AA26"/>
<path d="M47.6962 59.3278L46.7589 61.3794H39.129C39.129 61.0653 37.2543 50.1885 37.2543 50.1885L36.748 52.4433L38.3978 62.2111H47.3025L48.7085 59.0784L47.6962 59.3278Z" fill="#76AA26"/>
<path d="M46.1223 38.6279C46.4999 38.694 46.8891 38.6444 47.2373 38.4856C47.5854 38.3268 47.8758 38.0666 48.0691 37.7399C48.2625 37.4134 48.3496 37.0361 48.3187 36.6592C48.2878 36.2823 48.1403 35.9237 47.8962 35.632C47.6521 35.3403 47.323 35.1294 46.9536 35.0278C46.5841 34.9263 46.1918 34.9389 45.8299 35.064C45.4679 35.1891 45.1535 35.4207 44.9293 35.7275C44.705 36.0344 44.5816 36.4015 44.5757 36.7796C44.5338 37.2266 44.6729 37.6717 44.9626 38.018C45.2524 38.3642 45.6692 38.5834 46.1223 38.6279Z" fill="#76AA26"/>
<path d="M52.4116 33.3511L50.1245 32.6858C48.9734 35.3688 48.0089 38.126 47.2375 40.9381C46.0096 41.6774 44.2474 41.5573 43.7506 40.781C43.7459 40.6979 43.7459 40.6146 43.7506 40.5315C43.7506 37.5189 43.5163 34.5433 43.5632 31.5307C42.1759 31.5307 41.8104 31.2627 41.0135 31.2627C40.8636 40.0602 40.8261 49.135 41.3885 57.9232H44.388C44.1256 53.7371 44.0693 49.5139 43.9756 45.263V45.0966H46.6563C46.6563 45.2814 46.6563 45.4662 46.6563 45.651C46.7393 49.8236 47.3278 53.9716 48.4092 58.0064L51.2962 57.2949C49.1965 48.5251 48.7373 42.5091 52.4116 33.3511Z" fill="#76AA26"/>
<path d="M57.8767 10.2665L41.9419 7.49414L36.2241 19.2489L38.2019 30.8741L54.1367 33.6465L59.8544 21.8918L57.8767 10.2665ZM54.1273 32.5283C54.1273 32.3805 54.0523 32.0847 53.9868 31.6874L56.5831 26.3737L59.1514 21.0323C59.1514 21.2449 59.217 21.4205 59.2358 21.5498L57.0612 26.383C55.8239 28.9889 54.4648 31.863 54.1086 32.5283H54.1273ZM57.9423 13.6117L55.3458 19.0547L52.7401 24.4885C52.6745 24.1097 52.6182 23.7585 52.562 23.4443L55.2052 18.4818L57.8861 13.4269C57.8954 13.4547 57.9047 13.5286 57.9235 13.6117H57.9423ZM58.1672 14.9333L55.5802 20.4132L52.9744 25.8747C52.9181 25.5051 52.8526 25.1447 52.7963 24.8028L55.4021 19.7571L58.0641 14.656C58.111 14.7854 58.1297 14.8409 58.1485 14.9333H58.1672ZM58.3922 16.2547L55.8145 21.7994L53.2369 27.344C53.1713 26.9836 53.1056 26.614 53.0493 26.2536L55.6832 21.1433L58.3359 16.0052L58.3922 16.2547ZM58.5984 17.5577L56.0301 23.1024L53.4524 28.647C53.3868 28.2774 53.3306 27.9078 53.265 27.5289L55.8896 22.3631L58.5328 17.1696C58.5516 17.3266 58.5797 17.4561 58.5984 17.5577ZM58.8234 18.8792L56.2738 24.4239L53.6867 30.0425C53.6305 29.682 53.5649 29.3032 53.4993 28.9058L56.1144 23.6846L58.7484 18.4818C58.7765 18.6297 58.7953 18.7683 58.8234 18.9069V18.8792ZM59.0484 20.2007L56.5082 25.7915L53.9305 31.4564C53.8743 31.1144 53.7992 30.717 53.7336 30.2827L56.3394 25.0523L58.9546 19.7664C58.9921 19.9265 59.0234 20.0805 59.0484 20.2284V20.2007ZM57.6985 12.2903L55.0927 17.7056L52.4964 23.1024C52.4026 22.5017 52.3276 22.1136 52.3182 22.0581L54.9802 17.1326L57.6704 12.1239L57.6985 12.2903ZM42.2793 8.07633L57.2768 10.673L51.9058 21.707L36.9083 19.101L42.2793 8.07633Z" fill="#76AA26"/>
<path d="M61.9634 53.0259H59.1514V41.7426H57.3517V42.6666C57.3086 44.6661 57.1585 46.6618 56.9018 48.6457C56.7818 49.9757 56.2143 51.228 55.2896 52.2035C54.5483 52.7725 53.6325 53.0757 52.6931 53.063H52.0464V50.6879H52.3839C52.6733 50.6689 52.9543 50.5839 53.2048 50.4396C53.4553 50.2952 53.6684 50.0956 53.8273 49.8563C54.1647 49.385 54.3335 48.6087 54.5022 46.5202C54.5866 45.5961 54.6991 42.7684 54.7272 41.9643L54.7835 39.2383H61.9634V53.0259Z" fill="#76AA26"/>
<path d="M70.1083 48.9781C70.1394 49.1999 70.1215 49.4256 70.0558 49.6399C69.9902 49.8543 69.8782 50.052 69.7277 50.2197C69.5773 50.3873 69.3918 50.5209 69.184 50.6112C68.9763 50.7016 68.7512 50.7466 68.5242 50.7432C68.2952 50.75 68.0688 50.694 67.8702 50.5813C67.6716 50.4688 67.5086 50.304 67.3994 50.1055C67.2 49.7633 67.1024 49.3725 67.1182 48.9781C67.0911 48.4516 67.2575 47.9332 67.5868 47.5181C67.7912 47.3121 68.0392 47.1532 68.3129 47.0525C68.5868 46.952 68.8797 46.9121 69.1709 46.9358C69.4851 46.9396 69.7985 46.9674 70.1083 47.019V48.9781ZM70.1083 53.0349H72.9203V43.378C72.9588 42.7866 72.8757 42.1935 72.6759 41.6346C72.4763 41.0756 72.164 40.5621 71.758 40.1251C70.9389 39.3847 69.86 38.9871 68.7492 39.0162C67.5866 38.9774 66.4541 39.3849 65.5903 40.1528C65.2063 40.5482 64.9057 41.0148 64.7061 41.5256C64.5067 42.0364 64.4121 42.5813 64.428 43.1285H67.1182C67.1314 42.7887 67.2602 42.4632 67.4837 42.2044C67.6237 42.0437 67.7979 41.9156 67.994 41.8294C68.1901 41.7431 68.4032 41.7007 68.6179 41.7053C68.8262 41.6992 69.0336 41.7355 69.2272 41.8117C69.4206 41.888 69.5961 42.0029 69.7428 42.1489C69.8789 42.3095 69.9812 42.4951 70.044 42.6949C70.1068 42.8949 70.1286 43.105 70.1083 43.3133V44.755C69.5813 44.7136 69.0526 44.6981 68.5242 44.7087C67.915 44.6669 67.3038 44.7523 66.7303 44.9592C66.157 45.1663 65.6344 45.4903 65.1966 45.9101C64.5225 46.9303 64.2156 48.1442 64.3249 49.357C64.2674 49.9254 64.3275 50.4993 64.5015 51.0441C64.6755 51.5889 64.9598 52.0933 65.3372 52.5266C65.9353 53.0246 66.7018 53.282 67.4837 53.2475C68.077 53.2725 68.6595 53.0854 69.1241 52.7208C69.489 52.4186 69.8051 52.0633 70.0615 51.6673H70.1176L70.1083 53.0349Z" fill="#76AA26"/>
<path d="M83.2595 34.0908C83.2912 34.5296 83.2329 34.9702 83.0879 35.3862C82.943 35.8022 82.7144 36.1851 82.4159 36.512C81.9616 37.0096 81.36 37.3535 80.6964 37.495C80.0327 37.6366 79.3407 37.5687 78.7184 37.3008C78.0962 37.0329 77.5751 36.5787 77.2293 36.0025C76.8836 35.4264 76.7305 34.7575 76.7919 34.0908V33.7305H78.8821V34.1925C78.8898 34.4001 78.9276 34.6054 78.9946 34.8024C79.0744 34.9949 79.2177 35.1554 79.4015 35.2577C79.5851 35.36 79.7985 35.3981 80.007 35.3661C80.2159 35.3909 80.4274 35.3496 80.611 35.2484C80.7946 35.1471 80.9409 34.9909 81.0287 34.8024C81.1085 34.6073 81.159 34.4019 81.1787 34.1925V33.7305H83.2595V34.0908ZM78.3291 39.2381V46.9359L81.7973 40.9293V39.2381H84.6093V53.0259H81.7973V45.328L78.3291 51.3255V53.0259H75.5171V39.2381H78.3291Z" fill="#76AA26"/>
<path d="M92.1367 41.7426V53.0259H89.3247V41.7426H86.5127V39.2383H94.9487V41.7426H92.1367Z" fill="#76AA26"/>
<path d="M32.0534 39.0811L34.3499 47.703H34.4623L36.2246 39.0811H39.0366L35.2029 54.8371C35.0498 55.9243 34.5994 56.9497 33.8999 57.8035C33.5122 58.1236 33.0643 58.3651 32.5818 58.5141C32.0992 58.6632 31.5916 58.7169 31.0879 58.6722H30.3475L30.2912 56.0662H30.8348C31.0873 56.0788 31.3388 56.0287 31.5665 55.9206C31.7941 55.8124 31.9905 55.6496 32.1378 55.447C32.3966 55.0378 32.5718 54.5826 32.6533 54.107L33.1032 52.2589L28.9883 39.0811H32.0534Z" fill="#76AA26"/>
<path d="M6.76929 37.8507C6.77328 37.3969 6.64114 36.9517 6.38896 36.5694C6.22115 36.3401 5.99631 36.1558 5.73534 36.0333C5.47436 35.9108 5.1857 35.8542 4.89614 35.8688C4.61265 35.8595 4.3306 35.9118 4.07066 36.0219C3.8107 36.1319 3.57945 36.297 3.39382 36.5048C2.99983 37.071 2.81855 37.7512 2.88037 38.4315V48.0553C2.80899 48.6565 2.939 49.2642 3.25119 49.7882C3.42437 50.0211 3.65565 50.2075 3.92339 50.33C4.19114 50.4525 4.48658 50.5072 4.78204 50.4888C5.08416 50.5028 5.38564 50.4503 5.66391 50.3355C5.94218 50.2205 6.19004 50.0461 6.38896 49.8252C6.69763 49.3496 6.84093 48.7907 6.79781 48.2304V47.539H9.65034V48.3411C9.73603 49.6393 9.3037 50.9198 8.44277 51.9177C7.94011 52.3839 7.34129 52.7415 6.68573 52.9672C6.03018 53.1928 5.33277 53.2813 4.63941 53.2266C3.96237 53.2572 3.28689 53.1397 2.66307 52.8829C2.03924 52.626 1.48305 52.2362 1.03574 51.7425C0.252907 50.7379 -0.107325 49.4826 0.0278505 48.2304V38.0904C-0.0411316 37.3862 0.0556728 36.676 0.310967 36.0133C0.566261 35.3507 0.973384 34.7528 1.50165 34.2649C2.42304 33.5238 3.58489 33.1222 4.78204 33.131C6.05994 33.129 7.29567 33.5742 8.26211 34.3847C9.10685 35.264 9.56403 36.4282 9.53623 37.6295V38.9662H6.76929V37.8507Z" fill="#76AA26"/>
<path d="M16.0163 41.5413V52.819H13.2144V41.5413H10.4126V39.0586H18.8928V41.5413H16.0163Z" fill="#76AA26"/>
<path d="M25.5926 48.6601C25.6263 49.1565 25.477 49.6483 25.1719 50.0456C24.893 50.2945 24.5296 50.4324 24.1527 50.4324C23.7758 50.4324 23.4123 50.2945 23.1335 50.0456C22.8284 49.6483 22.6791 49.1565 22.7128 48.6601V43.4759C22.6791 42.9794 22.8284 42.4878 23.1335 42.0904C23.4123 41.8414 23.7758 41.7035 24.1527 41.7035C24.5296 41.7035 24.893 41.8414 25.1719 42.0904C25.477 42.4878 25.6263 42.9794 25.5926 43.4759V48.6601ZM19.8795 48.4857C19.8141 49.1603 19.9046 49.8406 20.1442 50.476C20.3838 51.1114 20.7664 51.6858 21.2634 52.156C22.0873 52.7915 23.1048 53.137 24.1527 53.137C25.2006 53.137 26.2181 52.7915 27.042 52.156C27.539 51.6858 27.9216 51.1114 28.1612 50.476C28.4007 49.8406 28.4912 49.1603 28.4259 48.4857V43.6044C28.4906 42.9299 28.3998 42.2498 28.1602 41.6144C27.9207 40.9791 27.5384 40.4047 27.042 39.9341C26.2181 39.2986 25.2006 38.9531 24.1527 38.9531C23.1048 38.9531 22.0873 39.2986 21.2634 39.9341C20.7669 40.4047 20.3847 40.9791 20.1452 41.6144C19.9056 42.2498 19.8148 42.9299 19.8795 43.6044V48.4857Z" fill="#76AA26"/>
<path d="M23.1335 50.0456C23.4123 50.2945 23.7758 50.4324 24.1527 50.4324V53.137C23.1048 53.137 22.0873 52.7915 21.2634 52.156C20.7664 51.6858 20.3838 51.1114 20.1442 50.476C19.9046 49.8406 19.8141 49.1603 19.8795 48.4857V43.6044C19.8148 42.9299 19.9056 42.2498 20.1452 41.6144C20.3847 40.9791 20.7669 40.4047 21.2634 39.9341C22.0873 39.2986 23.1048 38.9531 24.1527 38.9531V41.7035C23.7758 41.7035 23.4123 41.8414 23.1335 42.0904C22.8284 42.4878 22.6791 42.9794 22.7128 43.4759V48.6601C22.6791 49.1565 22.8284 49.6483 23.1335 50.0456Z" fill="#76AA26"/>
</svg>
