<svg width="92" height="48" viewBox="0 0 92 48" fill="none" xmlns="http://www.w3.org/2000/svg">
<g clip-path="url(#clip0_44_6164)">
<mask id="mask0_44_6164" style="mask-type:luminance" maskUnits="userSpaceOnUse" x="0" y="0" width="92" height="36">
<path d="M92 0.0869141H0V35.1607H92V0.0869141Z" fill="white"/>
</mask>
<g mask="url(#mask0_44_6164)">
<path d="M83.2604 14.2932C83.2136 14.2857 83.1658 14.2882 83.12 14.3006C83.0743 14.3131 83.0316 14.3351 82.9947 14.3652C82.9578 14.3954 82.9276 14.433 82.9059 14.4758C82.8843 14.5185 82.8717 14.5654 82.869 14.6134C82.869 14.6134 82.3719 15.7959 81.4934 16.2522C81.0932 16.4602 80.9242 16.5699 80.0134 16.5434H75.4305C72.9527 16.3644 72.6967 13.7347 72.6967 13.7347C72.6967 13.4145 72.6632 12.9884 72.6632 12.8056V9.82038C72.7303 7.13141 74.7868 6.5137 74.7868 6.5137C75.1059 6.43997 75.4328 6.40778 75.7598 6.41789H80.3439C82.4229 6.48722 82.9709 8.78791 82.9709 8.78791C83.001 8.8688 83.0535 8.93916 83.122 8.99058C83.1906 9.042 83.2723 9.0723 83.3573 9.07786H91.683C91.7682 9.07719 91.8496 9.04232 91.9094 8.98089C91.9693 8.91946 92.0027 8.83647 92.0024 8.75009V7.8462C91.8781 1.59591 86.28 0.0818718 85.1181 0.110867C84.805 0.110867 84.3726 0.0869141 84.1924 0.0869141H71.2466C67.3049 0.104563 65.0694 3.05322 64.2754 5.0753C64.0224 5.70466 63.8656 6.36955 63.8106 7.04695C63.7945 7.41254 63.7646 7.99874 63.7646 8.18154V15.1151C64.1225 21.7297 69.779 22.8391 70.629 22.8681C70.9148 22.8782 71.3932 22.8958 71.5709 22.8958H84.5142C90.4267 22.5756 91.9527 17.3187 91.9775 15.637C91.9775 15.1491 91.9937 14.96 91.9937 14.7798V14.631C91.9943 14.5878 91.9866 14.5449 91.9709 14.5047C91.9552 14.4645 91.9319 14.4279 91.9022 14.3969C91.8725 14.3658 91.8372 14.341 91.7981 14.3239C91.759 14.3068 91.7169 14.2976 91.6743 14.2969L83.2604 14.2932Z" fill="#373F5F"/>
</g>
<path d="M32.7359 0.677896C32.8266 0.519054 32.7545 0.39551 32.5781 0.39551H0.358957C0.274142 0.395174 0.192651 0.428948 0.132329 0.489436C0.0720071 0.549923 0.0377686 0.632196 0.0371118 0.718238V7.00635C0.0369482 7.04933 0.0451522 7.09192 0.0612531 7.13168C0.077354 7.17144 0.101035 7.20759 0.130937 7.23804C0.16084 7.26849 0.196375 7.29266 0.235504 7.30914C0.274633 7.32563 0.316587 7.33412 0.358957 7.33412H8.25965C8.30192 7.33428 8.34374 7.34289 8.38272 7.35945C8.42171 7.37601 8.4571 7.4002 8.48687 7.43064C8.51664 7.46108 8.54021 7.49716 8.55623 7.53684C8.57225 7.57652 8.58042 7.61901 8.58025 7.66188V22.2287C8.58058 22.3155 8.61473 22.3987 8.67524 22.4601C8.73576 22.5215 8.81775 22.5561 8.90334 22.5564H21.3397C21.4253 22.5561 21.5072 22.5215 21.5678 22.4601C21.6283 22.3987 21.6624 22.3155 21.6628 22.2287V7.66693C21.6624 7.62411 21.6704 7.58165 21.6863 7.54198C21.7022 7.50231 21.7257 7.46621 21.7553 7.43576C21.785 7.40531 21.8203 7.3811 21.8592 7.36452C21.8981 7.34794 21.9399 7.33932 21.9821 7.33916H28.5047C28.6016 7.3328 28.6957 7.30405 28.7799 7.25511C28.8641 7.20616 28.9362 7.13832 28.9906 7.05678L32.7359 0.677896Z" fill="#373F5F"/>
<path d="M37.9353 0.400401C37.7325 0.410165 37.5406 0.496495 37.3972 0.642445C37.3972 0.642445 31.6811 6.40487 31.6998 14.415C31.706 19.3631 33.7004 22.2979 33.7004 22.2979C33.8333 22.4508 34.0205 22.5442 34.2211 22.5576H42.3691C42.5455 22.5576 42.5977 22.4441 42.4859 22.3054C42.4859 22.3054 39.8577 18.908 39.9049 14.289C39.9434 10.1465 42.3541 7.54449 42.3541 7.54449C42.4176 7.46776 42.4959 7.40502 42.5841 7.36015C42.6724 7.31527 42.7688 7.28919 42.8673 7.28354H47.9883C48.0305 7.28354 48.0723 7.29199 48.1112 7.30842C48.1502 7.32484 48.1856 7.34891 48.2154 7.37925C48.2452 7.40958 48.2688 7.44559 48.2848 7.48519C48.3008 7.5248 48.309 7.56723 48.3089 7.61005V22.2336C48.3089 22.2766 48.3172 22.3192 48.3335 22.359C48.3497 22.3988 48.3735 22.4349 48.4035 22.4653C48.4335 22.4958 48.4691 22.5199 48.5083 22.5364C48.5475 22.5529 48.5895 22.5613 48.6319 22.5613H60.2171C60.2597 22.5615 60.3019 22.5532 60.3413 22.5368C60.3807 22.5204 60.4165 22.4963 60.4468 22.4659C60.477 22.4354 60.501 22.3992 60.5175 22.3594C60.5339 22.3195 60.5425 22.2768 60.5426 22.2336V0.723126C60.5413 0.636635 60.5064 0.554175 60.4454 0.493722C60.3844 0.433269 60.3023 0.399725 60.2171 0.400401H37.9353Z" fill="#373F5F"/>
<path d="M39.9048 14.2931C39.904 15.1635 39.9893 16.0318 40.1595 16.885H56.7947L58.9805 13.3955H39.9433C39.9197 13.6855 39.9048 13.9855 39.9048 14.2918" fill="#C64D4F"/>
<path d="M40.4904 10.8213C40.2507 11.5138 40.0816 12.2294 39.9858 12.9568H59.2567L60.595 10.8213H40.4904Z" fill="#C64D4F"/>
<path d="M2.1761e-05 26.1556C1.92288e-05 26.0694 0.0335846 25.9868 0.0934055 25.9256C0.153226 25.8645 0.234452 25.8298 0.319379 25.8291H91.6397C91.7248 25.8298 91.8063 25.8644 91.8665 25.9255C91.9267 25.9866 91.9608 26.0692 91.9615 26.1556V34.8326C91.9617 34.8756 91.9535 34.9182 91.9374 34.958C91.9213 34.9977 91.8976 35.0339 91.8677 35.0643C91.8378 35.0948 91.8022 35.119 91.7631 35.1354C91.724 35.1519 91.682 35.1604 91.6397 35.1604H0.319379C0.277125 35.1604 0.23529 35.1519 0.196298 35.1354C0.157307 35.1189 0.121934 35.0947 0.0922299 35.0642C0.0625255 35.0337 0.0390812 34.9975 0.023253 34.9578C0.0074247 34.918 -0.000471479 34.8755 2.1761e-05 34.8326V26.1556Z" fill="#373F5F"/>
<path d="M8.49985 28.7149H7.1168V33.5179H6.20346V28.7149H4.81543V27.9434H8.6179L8.49985 28.7149Z" fill="white"/>
<path d="M14.9773 31.2778C14.7288 30.4369 14.5076 29.6389 14.3262 28.8636C14.095 29.6994 13.8552 30.5025 13.6303 31.2778H14.9773ZM15.6285 33.5179L15.1824 32.0518H13.4054L12.963 33.5192H12.0161L13.8155 27.9434H14.8692L16.6238 33.5179H15.6285Z" fill="white"/>
<path d="M23.1852 33.5983C22.8536 33.6085 22.5241 33.5411 22.2224 33.4012C21.9207 33.2612 21.6548 33.0526 21.4455 32.7914C21.033 32.2872 20.8143 31.6052 20.8143 30.8273C20.7986 30.2428 20.9267 29.6636 21.1871 29.1419C21.3744 28.7592 21.6629 28.4368 22.0203 28.2109C22.3778 27.9849 22.7901 27.8642 23.2113 27.8623C23.7469 27.8623 24.2526 28.0224 24.5782 28.2985L24.1557 28.9011C23.8873 28.692 23.5572 28.581 23.2188 28.5859C22.9931 28.5842 22.7713 28.6461 22.5782 28.7648C22.3851 28.8834 22.2283 29.0541 22.1253 29.2578C21.9339 29.5944 21.8382 30.0621 21.8382 30.7164C21.8382 31.3707 21.909 31.7703 22.0519 32.0855C22.1539 32.3266 22.3253 32.5308 22.5438 32.6712C22.7623 32.8116 23.0175 32.8816 23.2759 32.8721C23.6353 32.8832 23.9859 32.7578 24.2589 32.5204L24.6888 33.1066C24.2575 33.4397 23.7271 33.6135 23.1852 33.5995" fill="white"/>
<path d="M33.3187 28.5059L33.0701 28.5714C32.9552 28.5852 32.847 28.6335 32.7595 28.7101C32.6761 28.8151 32.6186 28.9387 32.5917 29.0707L32.45 29.6493C32.3966 29.885 32.3481 30.117 32.1257 30.3275C32.014 30.4302 31.8818 30.5072 31.738 30.5532V30.5696C31.8636 30.6135 31.98 30.6811 32.081 30.7688C32.2565 30.9434 32.3775 31.1665 32.4289 31.4104L32.6774 32.3042C32.7024 32.4492 32.7655 32.5847 32.8601 32.6963C32.9573 32.7778 33.0717 32.8356 33.1944 32.8652L33.433 32.9371L33.2652 33.5951L32.9645 33.5586C32.7023 33.5346 32.3432 33.4855 32.0947 33.2472C31.8884 33.0341 31.8461 32.7555 31.8014 32.5211L31.6187 31.6638C31.579 31.4987 31.5168 31.2579 31.3627 31.1192C31.2104 30.9957 31.018 30.9345 30.8234 30.9478H30.3003V33.5195H29.3882V27.9436H30.3003V30.1914H30.903C31.1044 30.2093 31.3046 30.1454 31.4597 30.0136C31.6013 29.8687 31.6398 29.648 31.6796 29.4905L31.8312 28.8097C31.8662 28.5751 31.9681 28.3559 32.1245 28.1794C32.3121 27.9915 32.5147 27.9676 32.8328 27.921L33.1571 27.873L33.3323 28.5034L33.3187 28.5059Z" fill="white"/>
<path d="M39.9433 28.5711C38.9964 28.5711 38.646 29.3275 38.646 30.6587C38.646 32.0921 39.0064 32.8888 39.9657 32.8888C40.7833 32.8888 41.2083 32.2761 41.2083 30.7772C41.2083 29.422 40.9312 28.5711 39.9495 28.5711M39.9719 33.5985C38.4074 33.5985 37.6357 32.3719 37.6357 30.7243C37.6357 28.8938 38.5565 27.8613 39.9321 27.8613C41.4805 27.8613 42.2248 29.1081 42.2248 30.7293C42.2248 32.4703 41.3972 33.5985 39.9707 33.5985" fill="white"/>
<path d="M51.5345 33.5181L51.2785 30.0627C51.2574 29.7072 51.24 29.2634 51.24 29.097C51.2015 29.2798 51.1294 29.6328 51.0263 29.9883L50.0235 33.5181H49.2468L48.3335 30.1408C48.2303 29.7715 48.1247 29.271 48.0924 29.0869C48.0924 29.2722 48.0626 29.8068 48.0414 30.1484L47.7929 33.5181H46.897L47.394 27.9435H48.6093L49.4506 31.0951C49.5343 31.4082 49.6019 31.7255 49.6532 32.0457C49.6805 31.8767 49.7513 31.496 49.8557 31.1115L50.7255 27.9385H51.9408L52.428 33.5131L51.5345 33.5181Z" fill="white"/>
<path d="M59.0475 32.7565C59.4613 32.7565 59.7011 32.6304 59.8266 32.5044C59.9091 32.4161 59.973 32.3116 60.0142 32.1973C60.0555 32.0831 60.0732 31.9615 60.0665 31.84C60.0746 31.7186 60.0574 31.5968 60.0161 31.4826C59.9748 31.3683 59.9102 31.2642 59.8266 31.1769C59.6092 30.9727 59.296 30.9336 59.0475 30.9336H58.2709V32.7515L59.0475 32.7565ZM60.6629 27.9446L60.5387 28.701H58.2671V30.1772H59.0264C59.4414 30.1772 60.1448 30.1772 60.6344 30.6613C61.0208 31.0483 61.078 31.5702 61.078 31.8867C61.0888 32.088 61.0601 32.2895 60.9936 32.4795C60.927 32.6695 60.8239 32.8442 60.6903 32.9935C60.2342 33.4738 59.5197 33.5116 58.9891 33.5116H57.3525V27.9434L60.6629 27.9446Z" fill="white"/>
<path d="M68.2332 31.2778C67.9847 30.4369 67.7635 29.6389 67.5833 28.8636C67.351 29.6994 67.1148 30.5025 66.8812 31.2778H68.2332ZM68.8806 33.5179L68.4358 32.0505H66.6576L66.2127 33.5179H65.2695L67.0726 27.9434H68.1288L69.8834 33.5179H68.8806Z" fill="white"/>
<path d="M77.1022 33.5179V30.9374H75.2283V33.5179H74.3149V27.9434H75.2283V30.1823H77.1022V27.9434H78.013V33.5179H77.1022Z" fill="white"/>
<path d="M87.0431 28.5059L86.7871 28.5714C86.6734 28.5852 86.5664 28.6335 86.4802 28.7101C86.3943 28.8134 86.3365 28.9377 86.3125 29.0707L86.1658 29.6493C86.1124 29.885 86.0639 30.117 85.839 30.3275C85.7293 30.4316 85.5975 30.5088 85.4538 30.5532V30.5696C85.5803 30.6132 85.6976 30.6808 85.7992 30.7688C85.9758 30.9422 86.0963 31.166 86.1447 31.4104L86.3932 32.3042C86.4174 32.4497 86.4811 32.5855 86.5771 32.6963C86.6737 32.7788 86.7883 32.8367 86.9114 32.8652L87.1488 32.9371L86.981 33.5951L86.6803 33.5586C86.4181 33.5346 86.0527 33.4855 85.8104 33.2472C85.6042 33.0341 85.5619 32.7555 85.5147 32.5211L85.3333 31.6638C85.2935 31.4987 85.2314 31.2579 85.0847 31.1192C84.932 30.9956 84.7391 30.9345 84.5442 30.9478H84.0198V33.5195H83.1064V27.9436H84.0198V30.1914H84.6212C84.7212 30.2004 84.8219 30.1894 84.9176 30.1589C85.0134 30.1284 85.1023 30.079 85.1792 30.0136C85.2984 29.8629 85.3748 29.682 85.4004 29.4905L85.5544 28.8097C85.5866 28.5742 85.6889 28.3542 85.8477 28.1794C86.0304 27.9915 86.2354 27.9676 86.551 27.921L86.8803 27.873L87.0556 28.5034L87.0431 28.5059Z" fill="white"/>
<path d="M7.79869 43.0362C7.80134 43.3268 7.75942 43.616 7.67442 43.8935C7.60058 44.138 7.48074 44.3658 7.32151 44.5641C7.16926 44.7503 6.97774 44.8993 6.76109 45.0003C6.50951 45.1106 6.23727 45.1639 5.96331 45.1566H5.28607V47.7284C5.28634 47.748 5.28209 47.7674 5.27365 47.7851C5.26515 47.8029 5.25121 47.8175 5.23388 47.8267C5.21032 47.8389 5.18524 47.8478 5.15932 47.8532C5.11839 47.8611 5.07672 47.8645 5.03506 47.8632C4.99589 47.8639 4.95675 47.8605 4.91825 47.8532C4.89147 47.848 4.86554 47.8391 4.84121 47.8267C4.82347 47.8177 4.80909 47.8031 4.8002 47.7851C4.79176 47.7674 4.78751 47.748 4.78777 47.7284V41.4302C4.78335 41.385 4.78789 41.3395 4.80112 41.2962C4.81435 41.2529 4.83601 41.2127 4.86482 41.178C4.90409 41.1364 4.95728 41.1113 5.01393 41.1074H6.0739C6.17647 41.1071 6.27896 41.113 6.38084 41.1251C6.49914 41.1414 6.61592 41.1676 6.73002 41.2032C6.87846 41.251 7.01673 41.3267 7.1376 41.4264C7.27777 41.5372 7.39729 41.6725 7.49051 41.826C7.59152 41.9938 7.66693 42.1761 7.71419 42.3668C7.77062 42.5853 7.79902 42.8103 7.79869 43.0362ZM7.27802 43.093C7.28501 42.8396 7.23972 42.5875 7.14506 42.353C7.07589 42.177 6.96439 42.0214 6.82073 41.9004C6.70422 41.807 6.5675 41.7431 6.42184 41.7138C6.2924 41.6887 6.16096 41.6756 6.02917 41.6747H5.28359V44.5944H5.99313C6.18994 44.6007 6.38566 44.5624 6.56599 44.4822C6.71766 44.4098 6.85108 44.3033 6.95618 44.1708C7.06571 44.0296 7.14717 43.8682 7.19601 43.6955C7.25323 43.4979 7.28128 43.2927 7.27926 43.0867L7.27802 43.093Z" fill="#373F5F"/>
<path d="M12.8689 47.6122C12.8831 47.6526 12.8907 47.6952 12.8912 47.7382C12.8917 47.7662 12.8815 47.7933 12.8627 47.8139C12.84 47.8336 12.8117 47.8455 12.7819 47.8479C12.7357 47.8536 12.6892 47.8561 12.6427 47.8555C12.5975 47.8562 12.5522 47.8537 12.5073 47.8479C12.4801 47.8444 12.4536 47.8363 12.429 47.8239C12.4112 47.8146 12.3965 47.8001 12.3867 47.7824C12.3763 47.7626 12.3675 47.7419 12.3606 47.7206L11.8636 45.9279H9.56967L9.09375 47.7105C9.08931 47.7323 9.08133 47.7531 9.07014 47.7723C9.05864 47.7902 9.04336 47.8052 9.0254 47.8164C9.00119 47.8306 8.97469 47.8405 8.94712 47.8454C8.9061 47.8527 8.86449 47.8561 8.82285 47.8555C8.77543 47.8563 8.72803 47.8529 8.68119 47.8454C8.65049 47.8418 8.62152 47.8291 8.59793 47.8088C8.58864 47.7992 8.58133 47.7877 8.57642 47.7752C8.57152 47.7626 8.56911 47.7492 8.56935 47.7357C8.56969 47.6927 8.57725 47.6501 8.59172 47.6096L10.4184 41.2144C10.4253 41.1885 10.4376 41.1644 10.4544 41.1438C10.4713 41.1242 10.4927 41.1091 10.5166 41.0997C10.5466 41.0884 10.5779 41.0807 10.6098 41.077C10.651 41.0714 10.6925 41.0689 10.734 41.0694C10.7756 41.069 10.8171 41.0715 10.8583 41.077C10.8901 41.0808 10.9214 41.0884 10.9515 41.0997C10.9753 41.1087 10.9963 41.1239 11.0124 41.1438C11.0283 41.1648 11.0401 41.1888 11.0472 41.2144L12.8689 47.6122ZM10.703 41.7829L9.71507 45.3985H11.7107L10.703 41.7829Z" fill="#373F5F"/>
<path d="M16.6948 45.9758C16.6972 46.235 16.6586 46.4929 16.5804 46.7397C16.508 46.9674 16.389 47.1771 16.2313 47.3549C16.0693 47.5344 15.8697 47.6748 15.6472 47.7659C15.3853 47.8696 15.1057 47.9197 14.8246 47.9134C14.6656 47.9154 14.5069 47.8972 14.3524 47.8592C14.2287 47.8299 14.1083 47.7877 13.9933 47.7331C13.9132 47.6945 13.8363 47.6494 13.7634 47.5982C13.7238 47.5706 13.6868 47.5394 13.6528 47.5049C13.6343 47.4846 13.6188 47.4616 13.6068 47.4368C13.5953 47.4112 13.5874 47.384 13.5832 47.3562C13.5832 47.3246 13.5733 47.2881 13.5695 47.244C13.5658 47.1998 13.5695 47.1507 13.5695 47.0965C13.5661 47.0361 13.5728 46.9755 13.5894 46.9175C13.5931 46.9038 13.601 46.8916 13.6119 46.8828C13.6229 46.8739 13.6363 46.8689 13.6503 46.8683C13.7015 46.8773 13.7488 46.9019 13.7857 46.9389C13.8437 46.986 13.9195 47.0406 14.0132 47.1028C14.1225 47.1726 14.2403 47.2277 14.3636 47.2667C14.527 47.3171 14.6973 47.3409 14.8681 47.3373C15.0505 47.3394 15.2318 47.3069 15.4024 47.2414C15.558 47.1825 15.6996 47.0909 15.818 46.9728C15.9364 46.8546 16.0289 46.7125 16.0896 46.5556C16.1559 46.3847 16.1888 46.2023 16.1865 46.0186C16.1886 45.8244 16.158 45.6313 16.0958 45.4475C16.0394 45.2813 15.9487 45.1292 15.8299 45.0013C15.7087 44.8736 15.5616 44.7742 15.3987 44.7101C15.2127 44.6382 15.0149 44.6031 14.8159 44.6067H14.1747C14.1514 44.6078 14.1282 44.6026 14.1076 44.5916C14.0886 44.5796 14.0731 44.5626 14.0629 44.5424C14.0494 44.5155 14.0406 44.4865 14.0368 44.4567C14.0308 44.4149 14.0278 44.3728 14.0281 44.3306C14.0279 44.2905 14.0308 44.2505 14.0368 44.2108C14.0409 44.1802 14.0497 44.1504 14.0629 44.1226C14.073 44.1006 14.0889 44.0818 14.1088 44.0684C14.1282 44.0562 14.1507 44.0501 14.1735 44.0507H14.7587C14.9338 44.0525 15.1079 44.0235 15.2732 43.965C15.4247 43.912 15.563 43.8259 15.6783 43.7129C15.7944 43.5957 15.8847 43.4547 15.943 43.2994C16.0091 43.1184 16.0412 42.9264 16.0374 42.7334C16.0391 42.5759 16.0173 42.419 15.9728 42.2682C15.934 42.1362 15.868 42.0141 15.7789 41.9102C15.6907 41.8102 15.581 41.7321 15.4583 41.682C15.3163 41.6255 15.1647 41.5981 15.0122 41.6013C14.8515 41.5984 14.6914 41.6231 14.5388 41.6744C14.4171 41.7166 14.2998 41.7706 14.1884 41.8358C14.1025 41.8864 14.0195 41.9419 13.9398 42.0022C13.8973 42.0426 13.8443 42.0697 13.787 42.0803C13.773 42.0813 13.7592 42.0768 13.7485 42.0677C13.7366 42.0554 13.7281 42.0402 13.7236 42.0236C13.7159 41.9965 13.7114 41.9686 13.7099 41.9404C13.7099 41.906 13.7099 41.8639 13.7099 41.8144C13.7099 41.7799 13.7099 41.7463 13.7099 41.7135C13.7125 41.6822 13.7166 41.6511 13.7224 41.6202C13.7272 41.5926 13.7347 41.5656 13.7447 41.5395C13.7552 41.5132 13.7695 41.4886 13.787 41.4664C13.8297 41.4222 13.8777 41.3837 13.9299 41.3517C14.0197 41.293 14.115 41.2436 14.2145 41.2042C14.3403 41.152 14.4699 41.1098 14.6022 41.0781C14.7515 41.041 14.9045 41.0212 15.0582 41.0189C15.2803 41.0143 15.5009 41.0573 15.7056 41.1449C15.883 41.2228 16.041 41.34 16.1679 41.4878C16.2947 41.6395 16.3887 41.8164 16.4438 42.0072C16.5061 42.2212 16.5367 42.4434 16.5345 42.6666C16.5375 42.8797 16.5094 43.0921 16.4512 43.2969C16.4027 43.4666 16.3272 43.6272 16.2275 43.7721C16.1402 43.8993 16.0302 44.0087 15.9032 44.0949C15.7874 44.1735 15.658 44.2291 15.5217 44.2588V44.2688C15.6848 44.2971 15.8401 44.3598 15.9778 44.4529C16.1234 44.5506 16.2499 44.675 16.3506 44.8197C16.4597 44.9786 16.5436 45.1539 16.5991 45.3391C16.6628 45.5451 16.6951 45.7598 16.6948 45.9758Z" fill="#373F5F"/>
<path d="M22.2322 44.3859C22.2371 44.8755 22.1891 45.3642 22.0893 45.8432C22.0101 46.2362 21.8646 46.6123 21.6594 46.9551C21.3699 47.3942 20.9317 47.7104 20.4278 47.8435C19.9239 47.9766 19.3894 47.9176 18.9256 47.6775C18.6432 47.5161 18.4069 47.2833 18.2396 47.0018C18.0464 46.6707 17.9126 46.3074 17.8445 45.9289C17.7563 45.4582 17.7147 44.9797 17.7202 44.5006C17.7159 44.019 17.7634 43.5384 17.8619 43.0673C17.9401 42.678 18.0857 42.3058 18.2918 41.968C18.4719 41.6769 18.7198 41.4353 19.0138 41.2646C19.3254 41.0916 19.6764 41.0046 20.0315 41.0124C20.3739 41.0033 20.7128 41.0836 21.0157 41.2456C21.2972 41.4063 21.5337 41.6371 21.7029 41.9163C21.8982 42.2427 22.035 42.6017 22.1067 42.9765C22.1969 43.4406 22.2389 43.913 22.2322 44.3859ZM21.7078 44.4426C21.7096 44.0677 21.6805 43.6932 21.6209 43.3232C21.5732 43.0069 21.4768 42.7001 21.335 42.4143C21.2127 42.1687 21.0299 41.9594 20.8044 41.8066C20.559 41.6525 20.274 41.5757 19.9855 41.586C19.6965 41.5762 19.4115 41.6567 19.1691 41.8167C18.9424 41.9763 18.7569 42.1891 18.6286 42.437C18.4819 42.7218 18.3812 43.0287 18.3303 43.3459C18.2686 43.7081 18.2382 44.0751 18.2396 44.4426C18.2381 44.8225 18.2659 45.2018 18.3229 45.5772C18.3677 45.8958 18.4621 46.2052 18.6025 46.4937C18.723 46.7404 18.905 46.9508 19.1306 47.1039C19.3785 47.2587 19.6661 47.3354 19.957 47.3245C20.2499 47.3348 20.5387 47.2524 20.7833 47.0887C21.0112 46.9262 21.1967 46.7099 21.3239 46.4584C21.4688 46.1696 21.5682 45.8595 21.6184 45.5394C21.6789 45.1771 21.7088 44.8101 21.7078 44.4426Z" fill="#373F5F"/>
<path d="M29.0627 47.7201C29.0628 47.7397 29.0585 47.7591 29.0503 47.7768C29.0413 47.7951 29.0264 47.8098 29.0081 47.8184C28.9835 47.8304 28.9577 47.8393 28.931 47.8449C28.8901 47.8528 28.8484 47.8562 28.8068 47.855C28.7688 47.8556 28.7309 47.8522 28.6937 47.8449C28.6669 47.8398 28.641 47.8309 28.6166 47.8184C28.5988 47.8095 28.5844 47.7949 28.5756 47.7768C28.5674 47.7591 28.5631 47.7397 28.5632 47.7201V41.6576H28.5545L26.5017 47.7566C26.4958 47.7711 26.4874 47.7844 26.4768 47.7957C26.4644 47.8095 26.4491 47.8202 26.4321 47.8272C26.4106 47.837 26.3881 47.8441 26.365 47.8487C26.335 47.8542 26.3047 47.8567 26.2743 47.8562C26.2418 47.8567 26.2093 47.8542 26.1773 47.8487C26.1566 47.8435 26.1366 47.8359 26.1177 47.826C26.1017 47.8184 26.0873 47.8077 26.0754 47.7945C26.0654 47.7836 26.0585 47.77 26.0556 47.7554L24.1034 41.6564V47.7188C24.1034 47.7384 24.0992 47.7578 24.0909 47.7756C24.0819 47.7939 24.067 47.8085 24.0487 47.8172C24.0242 47.8292 23.9983 47.838 23.9716 47.8436C23.9307 47.8514 23.889 47.8548 23.8474 47.8537C23.809 47.8544 23.7707 47.8511 23.7331 47.8436C23.7071 47.8383 23.6821 47.8294 23.6585 47.8172C23.6412 47.8084 23.6275 47.7937 23.62 47.7756C23.6132 47.7574 23.6098 47.7382 23.61 47.7188V41.4295C23.6056 41.3843 23.6102 41.3388 23.6234 41.2955C23.6366 41.2522 23.6583 41.212 23.6871 41.1773C23.7263 41.1356 23.7795 41.1104 23.8362 41.1067H24.1021C24.1626 41.1057 24.2227 41.1155 24.2798 41.1357C24.33 41.1541 24.376 41.1823 24.4153 41.2189C24.4552 41.257 24.4885 41.3018 24.5134 41.3513C24.5421 41.4081 24.5662 41.4671 24.5855 41.5278L26.3078 46.8679H26.3277L28.1221 41.548C28.1446 41.4752 28.1738 41.4048 28.209 41.3374C28.2351 41.2874 28.2677 41.2412 28.306 41.2C28.3364 41.1674 28.3738 41.1424 28.4153 41.1269C28.4553 41.1128 28.4973 41.1056 28.5396 41.1055H28.8341C28.8605 41.1057 28.8866 41.1108 28.9111 41.1206C28.9393 41.1321 28.9642 41.1508 28.9832 41.1748C29.0071 41.2049 29.0256 41.2391 29.0379 41.2757C29.054 41.3261 29.0616 41.379 29.0603 41.432L29.0627 47.7201Z" fill="#373F5F"/>
<path d="M35.5074 45.976C35.5099 46.2352 35.4713 46.4932 35.3931 46.74C35.3207 46.9677 35.2017 47.1773 35.0439 47.3552C34.8815 47.5348 34.6815 47.6753 34.4586 47.7661C34.1966 47.8698 33.9171 47.9199 33.636 47.9136C33.477 47.9157 33.3183 47.8975 33.1638 47.8594C33.0401 47.8302 32.9197 47.7879 32.8046 47.7334C32.7245 47.6948 32.6476 47.6497 32.5748 47.5985C32.5352 47.5709 32.4981 47.5396 32.4642 47.5052C32.4457 47.4848 32.4302 47.4619 32.4182 47.4371C32.4066 47.4114 32.3987 47.3843 32.3946 47.3564C32.3888 47.3253 32.3842 47.2879 32.3809 47.2442C32.3776 47.2005 32.3776 47.1514 32.3809 47.0967C32.3774 47.0363 32.3841 46.9758 32.4008 46.9177C32.4045 46.904 32.4124 46.8919 32.4233 46.883C32.4343 46.8742 32.4477 46.8691 32.4617 46.8685C32.513 46.8771 32.5604 46.9018 32.5971 46.9391C32.6551 46.9862 32.7309 47.0408 32.8245 47.103C32.9338 47.1728 33.0516 47.2279 33.175 47.2669C33.3384 47.3174 33.5087 47.3412 33.6795 47.3375C33.8619 47.3397 34.0431 47.3072 34.2138 47.2417C34.3694 47.1828 34.511 47.0913 34.6294 46.9731C34.7478 46.8549 34.8404 46.7128 34.901 46.5559C34.9674 46.385 35.0003 46.2026 34.9979 46.0189C35.0001 45.8246 34.9694 45.6315 34.9072 45.4478C34.8508 45.2816 34.7602 45.1294 34.6413 45.0015C34.5201 44.8738 34.3729 44.7745 34.2101 44.7103C34.0241 44.6385 33.8263 44.6034 33.6273 44.6069H32.9861C32.9627 44.6084 32.9395 44.6032 32.919 44.5918C32.9 44.5798 32.8845 44.5628 32.8742 44.5427C32.8608 44.5158 32.852 44.4868 32.8481 44.4569C32.8426 44.4152 32.8401 44.373 32.8407 44.3309C32.8401 44.2908 32.8426 44.2508 32.8481 44.2111C32.8522 44.1805 32.861 44.1507 32.8742 44.1229C32.8845 44.1009 32.9004 44.0822 32.9202 44.0686C32.9398 44.0569 32.9621 44.0508 32.9848 44.051H33.5701C33.7452 44.0528 33.9192 44.0238 34.0846 43.9653C34.2361 43.9122 34.3743 43.8261 34.4897 43.7131C34.6058 43.5959 34.696 43.455 34.7543 43.2997C34.8206 43.1187 34.8526 42.9266 34.8488 42.7336C34.8505 42.5761 34.8287 42.4193 34.7842 42.2684C34.7454 42.1365 34.6793 42.0144 34.5903 41.9104C34.5021 41.8104 34.3924 41.7324 34.2697 41.6822C34.1277 41.6258 33.9761 41.5984 33.8236 41.6016C33.6629 41.5987 33.5028 41.6234 33.3502 41.6747C33.2285 41.7168 33.1111 41.7709 32.9997 41.836C32.9138 41.8866 32.8308 41.9422 32.7512 42.0024C32.7087 42.0428 32.6557 42.07 32.5984 42.0806C32.5844 42.0816 32.5706 42.077 32.5598 42.068C32.5484 42.0555 32.5403 42.0404 32.5362 42.0239C32.5285 41.9968 32.5239 41.9689 32.5226 41.9407C32.5226 41.9062 32.5226 41.8642 32.5226 41.8146C32.5226 41.7801 32.5226 41.7465 32.5226 41.7138C32.5251 41.6825 32.5293 41.6513 32.535 41.6205C32.5398 41.5929 32.5473 41.5659 32.5574 41.5398C32.5678 41.5134 32.5821 41.4888 32.5996 41.4667C32.6423 41.4225 32.6903 41.3839 32.7425 41.352C32.8323 41.2933 32.9276 41.2439 33.0271 41.2045C33.1529 41.1523 33.2825 41.1101 33.4148 41.0784C33.568 41.043 33.7248 41.0256 33.882 41.0267C34.1042 41.0221 34.3248 41.0651 34.5294 41.1528C34.7068 41.2306 34.8648 41.3478 34.9917 41.4957C35.1184 41.6473 35.2124 41.8243 35.2676 42.0151C35.3298 42.2291 35.3604 42.4513 35.3583 42.6744C35.3613 42.8875 35.3333 43.0999 35.275 43.3047C35.2265 43.4744 35.151 43.635 35.0513 43.78C34.9639 43.907 34.8539 44.0165 34.727 44.1027C34.6112 44.1813 34.4818 44.237 34.3455 44.2666V44.2767C34.5086 44.3049 34.6639 44.3676 34.8016 44.4607C34.9472 44.5584 35.0736 44.6828 35.1744 44.8276C35.2835 44.9864 35.3673 45.1617 35.4229 45.3469C35.482 45.5511 35.5105 45.7632 35.5074 45.976Z" fill="#373F5F"/>
<path d="M42.2984 47.7202C42.2987 47.7399 42.2944 47.7593 42.286 47.777C42.2769 47.7953 42.262 47.8099 42.2437 47.8186C42.2192 47.8306 42.1933 47.8394 42.1667 47.8451C42.1258 47.853 42.0841 47.8564 42.0424 47.8551C42.0045 47.8557 41.9666 47.8523 41.9293 47.8451C41.9026 47.8399 41.8766 47.831 41.8523 47.8186C41.835 47.8094 41.821 47.7948 41.8125 47.777C41.8041 47.7593 41.7998 47.7399 41.8001 47.7202V41.6578H41.7927L39.7398 47.7568C39.7344 47.7712 39.7264 47.7844 39.7162 47.7959C39.7036 47.8094 39.6884 47.8202 39.6715 47.8274C39.65 47.8371 39.6275 47.8443 39.6044 47.8488C39.5744 47.8543 39.5441 47.8569 39.5136 47.8564C39.4812 47.8569 39.4487 47.8544 39.4167 47.8488C39.3935 47.8448 39.3709 47.8375 39.3496 47.8274C39.3336 47.8199 39.3193 47.8091 39.3074 47.7959C39.2973 47.785 39.2904 47.7715 39.2875 47.7568L37.3353 41.6578V47.7202C37.3356 47.7399 37.3313 47.7593 37.3229 47.777C37.3138 47.7953 37.2989 47.8099 37.2806 47.8186C37.2561 47.8306 37.2302 47.8395 37.2036 47.8451C37.1626 47.8528 37.121 47.8562 37.0793 47.8551C37.041 47.8559 37.0027 47.8525 36.965 47.8451C36.9391 47.8397 36.914 47.8308 36.8904 47.8186C36.873 47.8099 36.8593 47.7951 36.8519 47.777C36.8451 47.7589 36.8417 47.7396 36.842 47.7202V41.4296C36.8375 41.3845 36.8421 41.3389 36.8553 41.2956C36.8686 41.2523 36.8902 41.2122 36.919 41.1775C36.9583 41.1359 37.0115 41.1107 37.0681 41.1069H37.3341C37.3945 41.1058 37.4547 41.1156 37.5118 41.1359C37.5619 41.1542 37.608 41.1824 37.6472 41.2191C37.6872 41.2571 37.7205 41.3019 37.7454 41.3515C37.7745 41.4082 37.799 41.4672 37.8187 41.5279L39.5385 46.863H39.5584L41.3528 41.5431C41.3754 41.4704 41.4045 41.3999 41.4397 41.3325C41.4657 41.2825 41.4983 41.2362 41.5367 41.1951C41.5671 41.1625 41.6045 41.1375 41.646 41.122C41.686 41.108 41.728 41.1007 41.7703 41.1006H42.0648C42.0912 41.1008 42.1173 41.1059 42.1418 41.1157C42.17 41.1272 42.1948 41.1459 42.2139 41.1699C42.2378 41.2001 42.2563 41.2342 42.2686 41.2708C42.2848 41.3212 42.2924 41.3741 42.2909 41.4271L42.2984 47.7202Z" fill="#373F5F"/>
<path d="M48.1932 44.3859C48.198 44.8755 48.1501 45.3642 48.0503 45.8432C47.971 46.2362 47.8256 46.6123 47.6203 46.9551C47.3309 47.3942 46.8927 47.7104 46.3888 47.8435C45.8849 47.9766 45.3503 47.9176 44.8865 47.6775C44.6041 47.5161 44.3678 47.2833 44.2006 47.0018C44.0074 46.6707 43.8736 46.3074 43.8054 45.9289C43.7173 45.4582 43.6756 44.9797 43.6811 44.5006C43.6768 44.019 43.7243 43.5384 43.8228 43.0673C43.901 42.678 44.0466 42.3058 44.2528 41.968C44.4329 41.677 44.6808 41.4354 44.9747 41.2646C45.2864 41.0916 45.6373 41.0046 45.9925 41.0124C46.3348 41.0033 46.6737 41.0836 46.9766 41.2456C47.2582 41.4063 47.4947 41.6371 47.6638 41.9163C47.8592 42.2427 47.9959 42.6017 48.0677 42.9765C48.1578 43.4406 48.1999 43.913 48.1932 44.3859ZM47.6688 44.4426C47.6705 44.0677 47.6414 43.6932 47.5818 43.3232C47.5342 43.0069 47.4377 42.7001 47.296 42.4143C47.1737 42.1687 46.9909 41.9594 46.7654 41.8066C46.52 41.6525 46.235 41.5757 45.9465 41.586C45.6575 41.5762 45.3725 41.6567 45.1301 41.8167C44.9033 41.9763 44.7178 42.1891 44.5895 42.437C44.4427 42.7218 44.342 43.0286 44.2913 43.3459C44.2294 43.7081 44.1991 44.0751 44.2006 44.4426C44.1987 44.8224 44.2261 45.2018 44.2826 45.5772C44.3277 45.8959 44.4225 46.2053 44.5634 46.4937C44.6839 46.7404 44.866 46.9508 45.0915 47.1039C45.3394 47.2587 45.627 47.3354 45.9179 47.3245C46.2106 47.337 46.4998 47.2569 46.7455 47.095C46.9734 46.9325 47.1589 46.7162 47.286 46.4647C47.4309 46.1759 47.5303 45.8658 47.5805 45.5457C47.641 45.1813 47.6705 44.8122 47.6688 44.4426Z" fill="#373F5F"/>
<path d="M54.875 47.71C54.8754 47.7312 54.8711 47.7523 54.8625 47.7717C54.8539 47.7897 54.8406 47.805 54.824 47.8158C54.8019 47.8299 54.7775 47.8397 54.7519 47.8448C54.6697 47.8597 54.5856 47.8597 54.5034 47.8448C54.475 47.8385 54.4483 47.826 54.4251 47.8083C54.4067 47.7932 54.3921 47.7737 54.3829 47.7516C54.3723 47.7253 54.3636 47.6984 54.3568 47.6709L53.8933 45.8782C53.8472 45.6884 53.7801 45.5044 53.6932 45.3299C53.621 45.1885 53.5257 45.0606 53.4111 44.9517C53.3023 44.8497 53.173 44.7727 53.0321 44.726C52.8751 44.6753 52.711 44.6507 52.5463 44.6529H52.2977V47.7289C52.298 47.7485 52.2937 47.7679 52.2853 47.7856C52.2764 47.8036 52.262 47.8182 52.2443 47.8272C52.22 47.8396 52.194 47.8485 52.1673 47.8537C52.1288 47.861 52.0896 47.8644 52.0504 47.8638C52.0121 47.8645 51.9738 47.8611 51.9361 47.8537C51.9102 47.8483 51.8851 47.8394 51.8616 47.8272C51.8442 47.8186 51.8305 47.8038 51.823 47.7856C51.8162 47.7675 51.8128 47.7482 51.8131 47.7289V44.6529H51.5646C51.3871 44.649 51.2105 44.679 51.0439 44.7411C50.9006 44.7976 50.7703 44.8834 50.6612 44.9933C50.5498 45.1064 50.4586 45.2382 50.3915 45.3828C50.3156 45.5447 50.2548 45.7136 50.2101 45.8871L49.754 47.6797C49.7472 47.7072 49.7385 47.7341 49.728 47.7604C49.7187 47.7825 49.7042 47.802 49.6857 47.8171C49.6625 47.8349 49.6358 47.8473 49.6074 47.8537C49.5252 47.8685 49.4411 47.8685 49.3589 47.8537C49.3333 47.8486 49.3089 47.8388 49.2868 47.8247C49.2703 47.8138 49.257 47.7985 49.2483 47.7806C49.2397 47.7611 49.2355 47.74 49.2359 47.7188C49.2359 47.7087 49.2359 47.6961 49.2359 47.6822C49.2359 47.6684 49.2359 47.652 49.2359 47.6331C49.2359 47.6141 49.2359 47.594 49.2458 47.5738C49.2506 47.5507 49.2568 47.528 49.2644 47.5057L49.6919 45.8795C49.7426 45.6795 49.8066 45.4833 49.8833 45.292C49.9437 45.1408 50.0208 44.997 50.1132 44.8634C50.1932 44.7489 50.2914 44.6488 50.4039 44.5672C50.5192 44.4857 50.6445 44.42 50.7767 44.3718C50.6654 44.3428 50.5602 44.2937 50.4661 44.2268C50.3673 44.1535 50.283 44.0619 50.2176 43.957C50.135 43.8254 50.0666 43.685 50.0138 43.5385C49.9434 43.3468 49.8829 43.1515 49.8323 42.9535L49.4372 41.4408C49.4264 41.406 49.4177 41.3707 49.4111 41.3349C49.4045 41.3 49.4012 41.2645 49.4011 41.229C49.4004 41.2077 49.4029 41.1864 49.4086 41.1659C49.4149 41.1476 49.4271 41.132 49.4434 41.1218C49.465 41.1077 49.489 41.0979 49.5142 41.0928C49.5527 41.0852 49.5918 41.0818 49.631 41.0827C49.6765 41.0814 49.722 41.0857 49.7665 41.0953C49.7949 41.1017 49.8216 41.1142 49.8448 41.1319C49.8634 41.1473 49.8772 41.1679 49.8845 41.1911C49.8932 41.2151 49.9007 41.2428 49.9094 41.2743L50.3132 42.9523C50.3525 43.1205 50.407 43.2846 50.476 43.4427C50.5339 43.575 50.6151 43.6955 50.7158 43.7982C50.815 43.8967 50.9348 43.9712 51.0663 44.0163C51.2268 44.0685 51.3948 44.0933 51.5633 44.0894H51.8119V41.2063C51.8116 41.1869 51.815 41.1677 51.8218 41.1495C51.8292 41.1314 51.8429 41.1166 51.8603 41.1079C51.8838 41.0956 51.9089 41.0867 51.9349 41.0815C51.9725 41.074 52.0108 41.0707 52.0492 41.0714C52.0884 41.0707 52.1275 41.0741 52.166 41.0815C52.1928 41.0865 52.2188 41.0954 52.243 41.1079C52.2608 41.1169 52.2752 41.1315 52.2841 41.1495C52.2923 41.1673 52.2965 41.1867 52.2965 41.2063V44.0793H52.545C52.7107 44.0828 52.8755 44.0546 53.0309 43.9961C53.1648 43.9438 53.2863 43.8635 53.3875 43.7603C53.4899 43.6543 53.5739 43.5316 53.6361 43.3973C53.7048 43.2482 53.7581 43.0923 53.7951 42.9321L54.199 41.2643C54.2077 41.2327 54.2151 41.205 54.2238 41.1811C54.2311 41.1578 54.245 41.1372 54.2636 41.1218C54.2868 41.1041 54.3135 41.0916 54.3419 41.0853C54.3864 41.0756 54.4318 41.0714 54.4773 41.0726C54.5165 41.0717 54.5557 41.0751 54.5941 41.0827C54.6193 41.0878 54.6433 41.0977 54.665 41.1117C54.6812 41.1219 54.6935 41.1375 54.6997 41.1558C54.7053 41.1764 54.7079 41.1976 54.7072 41.2189C54.7071 41.2546 54.7025 41.2902 54.6935 41.3248C54.6843 41.3597 54.6768 41.395 54.6712 41.4307L54.2748 42.9094C54.2209 43.1136 54.1658 43.2931 54.1095 43.4477C54.0601 43.5872 53.995 43.7204 53.9156 43.8448C53.8481 43.9513 53.7642 44.0462 53.6671 44.1259C53.5652 44.2056 53.4516 44.2686 53.3304 44.3125V44.3226C53.4681 44.3757 53.5978 44.4483 53.7156 44.5382C53.8276 44.6263 53.9257 44.7313 54.0064 44.8495C54.0977 44.9854 54.1728 45.1319 54.23 45.2857C54.3023 45.4788 54.3641 45.6758 54.4152 45.8757L54.8389 47.5019C54.8389 47.5259 54.8501 47.5486 54.8551 47.57C54.86 47.5915 54.865 47.6104 54.8687 47.6293C54.8721 47.6455 54.8746 47.6619 54.8762 47.6784C54.875 47.6873 54.875 47.6999 54.875 47.71Z" fill="#373F5F"/>
<path d="M59.013 47.5443C59.0132 47.5844 59.0103 47.6244 59.0043 47.6641C59.0002 47.6947 58.9914 47.7244 58.9783 47.7523C58.9685 47.7734 58.954 47.792 58.936 47.8065C58.921 47.818 58.9026 47.8242 58.8838 47.8242H56.4383C56.3816 47.8203 56.3285 47.7951 56.2892 47.7536C56.2603 47.7189 56.2386 47.6788 56.2254 47.6354C56.2122 47.5921 56.2076 47.5465 56.2121 47.5014V41.4301C56.2077 41.385 56.2123 41.3395 56.2255 41.2962C56.2387 41.2529 56.2604 41.2127 56.2892 41.178C56.3285 41.1364 56.3816 41.1112 56.4383 41.1074H58.8453C58.8641 41.1074 58.8824 41.1136 58.8975 41.1251C58.9151 41.1394 58.9287 41.1581 58.9372 41.1793C58.9495 41.2083 58.9579 41.2388 58.9621 41.27C58.9676 41.3118 58.9701 41.354 58.9696 41.3961C58.9701 41.4362 58.9676 41.4762 58.9621 41.5159C58.958 41.5455 58.9496 41.5744 58.9372 41.6016C58.9284 41.6219 58.9147 41.6396 58.8975 41.6533C58.8825 41.6648 58.8641 41.671 58.8453 41.6709H56.7067V44.0321H58.5508C58.5712 44.0315 58.5913 44.0377 58.6079 44.0498C58.6251 44.0636 58.6387 44.0813 58.6477 44.1015C58.6598 44.1295 58.6677 44.1593 58.6713 44.1897C58.6772 44.2315 58.6801 44.2736 58.68 44.3158C58.6802 44.355 58.6773 44.3942 58.6713 44.433C58.6677 44.461 58.6597 44.4882 58.6477 44.5137C58.6385 44.5323 58.6248 44.5484 58.6079 44.5603C58.5907 44.5709 58.5709 44.5761 58.5508 44.5755H56.7067V47.2594H58.8838C58.9026 47.2594 58.9209 47.2656 58.936 47.277C58.9536 47.291 58.968 47.3086 58.9783 47.3287C58.9919 47.3564 59.0007 47.3863 59.0043 47.417C59.0103 47.4591 59.0132 47.5017 59.013 47.5443Z" fill="#373F5F"/>
<path d="M65.8822 47.7201C65.8823 47.7397 65.878 47.7591 65.8698 47.7768C65.8607 47.7951 65.8458 47.8098 65.8275 47.8184C65.803 47.8304 65.7771 47.8393 65.7505 47.8449C65.7096 47.8529 65.6679 47.8562 65.6262 47.855C65.5883 47.8556 65.5504 47.8522 65.5131 47.8449C65.4864 47.8398 65.4604 47.8309 65.4361 47.8184C65.4183 47.8095 65.4039 47.7949 65.3951 47.7768C65.3869 47.7591 65.3826 47.7397 65.3827 47.7201V41.6576H65.374L63.3211 47.7566C63.3153 47.7711 63.3069 47.7844 63.2963 47.7957C63.2838 47.8095 63.2686 47.8202 63.2515 47.8272C63.2301 47.837 63.2075 47.8441 63.1844 47.8487C63.1545 47.8542 63.1241 47.8567 63.0937 47.8562C63.0613 47.8567 63.0288 47.8542 62.9968 47.8487C62.9736 47.8445 62.951 47.8373 62.9297 47.8272C62.9137 47.8197 62.8994 47.8089 62.8875 47.7957C62.8774 47.7848 62.8705 47.7713 62.8676 47.7566L60.9154 41.6576V47.7201C60.9157 47.7397 60.9114 47.7591 60.903 47.7768C60.8939 47.7951 60.879 47.8098 60.8607 47.8184C60.8362 47.8304 60.8103 47.8393 60.7837 47.8449C60.7427 47.8527 60.701 47.856 60.6594 47.855C60.621 47.8557 60.5827 47.8523 60.5451 47.8449C60.5192 47.8395 60.4941 47.8306 60.4705 47.8184C60.4532 47.8097 60.4395 47.7949 60.432 47.7768C60.4252 47.7587 60.4218 47.7395 60.4221 47.7201V41.4295C60.4176 41.3843 60.4222 41.3388 60.4354 41.2955C60.4486 41.2522 60.4703 41.212 60.4991 41.1773C60.5383 41.1356 60.5915 41.1104 60.6482 41.1067H60.9117C60.9721 41.1057 61.0323 41.1155 61.0893 41.1357C61.1395 41.1541 61.1855 41.1823 61.2248 41.2189C61.2648 41.257 61.298 41.3018 61.323 41.3513C61.3516 41.4081 61.3757 41.4671 61.395 41.5278L63.1173 46.8679H63.1484L64.9428 41.548C64.9653 41.4752 64.9945 41.4048 65.0298 41.3374C65.0558 41.2874 65.0884 41.2412 65.1267 41.2C65.1571 41.1674 65.1945 41.1424 65.236 41.1269C65.276 41.1128 65.318 41.1056 65.3603 41.1055H65.6548C65.6812 41.1057 65.7073 41.1108 65.7318 41.1206C65.76 41.1321 65.7849 41.1508 65.8039 41.1748C65.8278 41.2049 65.8463 41.2391 65.8586 41.2757C65.8748 41.3261 65.8823 41.379 65.881 41.432L65.8822 47.7201Z" fill="#373F5F"/>
<path d="M71.7723 44.3859C71.7771 44.8755 71.7292 45.3642 71.6294 45.8432C71.5501 46.2362 71.4047 46.6123 71.1994 46.9551C70.91 47.3942 70.4718 47.7104 69.9679 47.8435C69.464 47.9766 68.9294 47.9176 68.4656 47.6775C68.1832 47.5161 67.9469 47.2833 67.7797 47.0018C67.5865 46.6707 67.4527 46.3074 67.3845 45.9289C67.2964 45.4582 67.2547 44.9797 67.2603 44.5006C67.2559 44.019 67.3034 43.5384 67.4019 43.0673C67.4801 42.678 67.6257 42.3058 67.8319 41.968C68.0119 41.6769 68.2599 41.4353 68.5538 41.2646C68.8655 41.0916 69.2164 41.0046 69.5716 41.0124C69.9139 41.0033 70.2528 41.0836 70.5557 41.2456C70.8373 41.4063 71.0738 41.6371 71.2429 41.9163C71.4383 42.2427 71.575 42.6017 71.6468 42.9765C71.7369 43.4406 71.779 43.913 71.7723 44.3859ZM71.2479 44.4426C71.2496 44.0677 71.2205 43.6932 71.1609 43.3232C71.1132 43.0069 71.0168 42.7001 70.8751 42.4143C70.7527 42.1687 70.57 41.9594 70.3445 41.8066C70.099 41.6525 69.814 41.5757 69.5256 41.586C69.2366 41.5762 68.9516 41.6567 68.7092 41.8167C68.4824 41.9763 68.297 42.1891 68.1686 42.437C68.0219 42.7218 67.9212 43.0287 67.8704 43.3459C67.8086 43.7081 67.7782 44.0751 67.7797 44.4426C67.7777 44.8224 67.8051 45.2018 67.8617 45.5772C67.9065 45.8958 68.0009 46.2051 68.1413 46.4937C68.2618 46.7404 68.4439 46.9507 68.6694 47.1039C68.9173 47.2587 69.2049 47.3354 69.4958 47.3245C69.7887 47.3348 70.0775 47.2524 70.3221 47.0887C70.55 46.9262 70.7355 46.7099 70.8627 46.4584C71.0076 46.1696 71.107 45.8595 71.1572 45.5394C71.2181 45.1771 71.2485 44.8102 71.2479 44.4426Z" fill="#373F5F"/>
<path d="M78.4464 45.9438C78.4476 46.1289 78.4292 46.3136 78.3917 46.4947C78.3586 46.6547 78.3064 46.8101 78.2364 46.9573C78.1713 47.0919 78.0876 47.2163 77.9878 47.3267C77.8921 47.4332 77.7816 47.5249 77.6598 47.599C77.5359 47.6743 77.4019 47.7312 77.2621 47.7679C77.0995 47.8084 76.9325 47.8274 76.7651 47.8247H75.4168C75.3601 47.821 75.3069 47.7958 75.2677 47.7541C75.2388 47.7194 75.2171 47.6793 75.2039 47.636C75.1907 47.5926 75.1862 47.5471 75.1907 47.5019V41.4294C75.1862 41.3843 75.1908 41.3387 75.204 41.2954C75.2172 41.2521 75.2389 41.2119 75.2677 41.1773C75.3069 41.1356 75.3601 41.1104 75.4168 41.1067H76.5352C76.7866 41.0977 77.0372 41.1384 77.2733 41.2264C77.4534 41.3001 77.6133 41.4169 77.7393 41.5668C77.8669 41.7239 77.9605 41.9064 78.0139 42.1026C78.0768 42.3298 78.1073 42.565 78.1046 42.801C78.1053 42.9546 78.0911 43.1078 78.0624 43.2586C78.0369 43.398 77.9951 43.5338 77.9381 43.6633C77.8836 43.7853 77.8125 43.899 77.7269 44.0011C77.6411 44.1015 77.5395 44.1867 77.4262 44.2533C77.5698 44.2899 77.7044 44.3564 77.8213 44.4487C77.9493 44.5487 78.0591 44.6708 78.1457 44.8092C78.2432 44.9653 78.3173 45.1352 78.3656 45.3135C78.4211 45.5188 78.4483 45.7309 78.4464 45.9438ZM77.5827 42.8375C77.5846 42.6757 77.5658 42.5142 77.5268 42.3572C77.4938 42.2226 77.4328 42.0966 77.3479 41.9879C77.2622 41.8833 77.1519 41.8022 77.0273 41.7521C76.8581 41.6904 76.6788 41.6622 76.4992 41.6689H75.684V44.0793H76.5787C76.7431 44.0865 76.9068 44.0518 77.0546 43.9784C77.1736 43.9125 77.2757 43.8192 77.3528 43.7061C77.4338 43.5854 77.4927 43.4509 77.5268 43.309C77.5647 43.1548 77.5835 42.9965 77.5827 42.8375ZM77.922 45.9967C77.9251 45.7977 77.897 45.5994 77.8387 45.4093C77.79 45.2508 77.7073 45.1052 77.5964 44.9832C77.4871 44.8669 77.3527 44.778 77.2037 44.7235C77.0169 44.6597 76.8205 44.6298 76.6234 44.6352H75.684V47.2586H76.8173C76.9681 47.2615 77.118 47.2341 77.2584 47.178C77.3871 47.1236 77.5028 47.042 77.5977 46.9384C77.7008 46.8241 77.7802 46.6899 77.8313 46.5439C77.8935 46.368 77.9242 46.1823 77.922 45.9955V45.9967Z" fill="#373F5F"/>
<path d="M83.2011 46.9097C83.2011 46.9476 83.2011 46.9829 83.2011 47.0131C83.1988 47.0411 83.1946 47.0689 83.1886 47.0963C83.1835 47.1197 83.176 47.1425 83.1663 47.1644C83.1518 47.1932 83.1343 47.2202 83.1141 47.2451C83.0626 47.3034 83.0065 47.3574 82.9463 47.4064C82.8458 47.4909 82.7372 47.5648 82.622 47.6271C82.4788 47.7049 82.3281 47.7675 82.1722 47.8136C81.9901 47.8675 81.8013 47.8938 81.6117 47.8918C81.3011 47.8962 80.9945 47.8203 80.7208 47.6712C80.4453 47.5154 80.2119 47.2933 80.041 47.0245C79.8385 46.7028 79.6926 46.3479 79.6098 45.9756C79.5017 45.508 79.4495 45.0288 79.4545 44.5486C79.4488 44.0529 79.5031 43.5584 79.6161 43.0761C79.7058 42.6842 79.8591 42.3102 80.0696 41.9693C80.2463 41.6844 80.4869 41.4459 80.7717 41.2734C81.0467 41.1116 81.3597 41.0279 81.6776 41.0314C81.8305 41.0309 81.9829 41.0499 82.1312 41.0881C82.2703 41.1235 82.406 41.172 82.5363 41.2331C82.6541 41.2885 82.7657 41.3565 82.8693 41.436C82.9429 41.4896 83.0105 41.5513 83.0706 41.6201C83.0965 41.6514 83.1194 41.6851 83.1389 41.7209C83.149 41.7435 83.1565 41.7672 83.1613 41.7915C83.1672 41.8206 83.1714 41.8501 83.1737 41.8798C83.1737 41.9125 83.1737 41.9504 83.1737 41.992C83.176 42.0339 83.176 42.076 83.1737 42.118C83.1707 42.1498 83.164 42.1811 83.1538 42.2113C83.1464 42.2333 83.1346 42.2535 83.1191 42.2706C83.1128 42.2771 83.1052 42.2823 83.0969 42.2857C83.0885 42.2892 83.0796 42.2909 83.0706 42.2907C83.0333 42.2907 82.9803 42.2554 82.9115 42.1848C82.827 42.1001 82.7369 42.0214 82.6419 41.9491C82.5155 41.8541 82.3782 41.775 82.233 41.7134C82.05 41.6384 81.8538 41.6024 81.6565 41.6075C81.4189 41.6053 81.1856 41.6708 80.983 41.7966C80.7653 41.9367 80.5845 42.1283 80.4561 42.355C80.2953 42.6378 80.1796 42.9446 80.1131 43.264C79.9526 44.066 79.9492 44.8923 80.1032 45.6957C80.164 46.0036 80.2744 46.2992 80.43 46.5706C80.5584 46.7937 80.74 46.9806 80.9581 47.114C81.1749 47.2404 81.4214 47.3049 81.6714 47.3006C81.8666 47.305 82.0607 47.269 82.2417 47.1947C82.3893 47.1325 82.5294 47.0534 82.6593 46.9589C82.7587 46.8862 82.8537 46.8075 82.9438 46.7232C82.9878 46.6695 83.0481 46.6323 83.1153 46.6173C83.1296 46.6168 83.1436 46.6213 83.1551 46.6299C83.168 46.6426 83.1771 46.6588 83.1812 46.6765C83.1892 46.7062 83.1946 46.7366 83.1973 46.7673C83.201 46.8147 83.2022 46.8622 83.2011 46.9097Z" fill="#373F5F"/>
<path d="M87.1761 47.5443C87.1766 47.5843 87.1741 47.6244 87.1686 47.6641C87.1645 47.6947 87.1557 47.7244 87.1425 47.7523C87.1328 47.7734 87.1183 47.792 87.1003 47.8065C87.0853 47.818 87.0669 47.8242 87.0481 47.8242H84.6038C84.5472 47.8203 84.494 47.7951 84.4547 47.7536C84.4258 47.7189 84.4041 47.6788 84.3909 47.6354C84.3777 47.5921 84.3732 47.5465 84.3777 47.5014V41.4301C84.3732 41.385 84.3778 41.3395 84.391 41.2962C84.4042 41.2529 84.4259 41.2127 84.4547 41.178C84.494 41.1364 84.5472 41.1112 84.6038 41.1074H87.0071C87.0259 41.1074 87.0442 41.1136 87.0593 41.1251C87.0768 41.1395 87.0905 41.1581 87.099 41.1793C87.1113 41.2083 87.1196 41.2388 87.1239 41.27C87.1294 41.3118 87.1319 41.354 87.1313 41.3961C87.1319 41.4362 87.1294 41.4762 87.1239 41.5159C87.1197 41.5455 87.1113 41.5744 87.099 41.6016C87.0901 41.6219 87.0765 41.6396 87.0593 41.6533C87.0443 41.6648 87.0259 41.671 87.0071 41.6709H84.8697V44.0321H86.7163C86.7363 44.0317 86.756 44.0379 86.7722 44.0498C86.7898 44.0634 86.8038 44.0811 86.8132 44.1015C86.8253 44.1296 86.8332 44.1593 86.8368 44.1897C86.8423 44.2315 86.8448 44.2736 86.8443 44.3158C86.8449 44.355 86.8424 44.3942 86.8368 44.433C86.8331 44.461 86.8252 44.4882 86.8132 44.5137C86.8036 44.5325 86.7895 44.5485 86.7722 44.5603C86.7554 44.5707 86.736 44.5759 86.7163 44.5755H84.8697V47.2594H87.0469C87.0657 47.2594 87.084 47.2656 87.099 47.277C87.1166 47.291 87.1311 47.3086 87.1413 47.3287C87.1549 47.3564 87.1637 47.3863 87.1674 47.417C87.1733 47.4591 87.1762 47.5017 87.1761 47.5443Z" fill="#373F5F"/>
</g>
<defs>
<clipPath id="clip0_44_6164">
<rect width="92" height="48" fill="white"/>
</clipPath>
</defs>
</svg>
