<svg width="144" height="26" viewBox="0 0 144 26" fill="none" xmlns="http://www.w3.org/2000/svg">
<path d="M135.93 22.1764C135.93 20.1117 137.67 18.5059 139.727 18.5059C141.864 18.5059 143.525 20.1882 143.525 22.1764C143.525 24.1647 141.785 25.847 139.727 25.847C137.67 25.847 135.93 24.2412 135.93 22.1764Z" fill="#86BC25"/>
<path d="M21.8374 12.3115C21.8374 16.5938 20.7297 19.8056 18.356 22.0997C15.9824 24.3938 12.6593 25.5409 8.38681 25.5409H0V0.0761719H8.86154C13.0549 0.0761719 16.2198 1.07029 18.4352 3.21147C20.7297 5.27617 21.8374 8.335 21.8374 12.3115ZM14.5582 12.5409C14.5582 10.1703 14.0835 8.48794 13.1341 7.34088C12.2637 6.27029 10.7604 5.65852 8.86154 5.65852H6.96264V19.8821H8.54505C10.6813 19.8821 12.1846 19.2703 13.2132 18.0468C14.0835 16.8232 14.5582 14.9879 14.5582 12.5409Z" fill="black"/>
<path d="M51.4284 0H44.8613V25.5412H51.4284V0Z" fill="black"/>
<path d="M73.1077 15.9826C73.1077 19.0414 72.3165 21.4885 70.5759 23.2473C68.8352 25.0061 66.4616 25.8473 63.455 25.8473C60.5275 25.8473 58.233 25.0061 56.4923 23.1708C54.7517 21.3355 53.8813 18.9649 53.8813 15.9826C53.8813 12.9237 54.6726 10.4767 56.4132 8.79434C58.1539 7.03551 60.5275 6.19434 63.5341 6.19434C65.433 6.19434 67.0945 6.57669 68.5187 7.34139C70.022 8.1061 71.0506 9.25316 71.8418 10.7061C72.7912 12.312 73.1077 13.9943 73.1077 15.9826ZM60.6857 15.9826C60.6857 17.6649 60.9231 18.812 61.3187 19.6532C61.7143 20.4943 62.4264 20.8767 63.5341 20.8767C64.6418 20.8767 65.2748 20.4943 65.7495 19.6532C66.1451 18.812 66.3824 17.512 66.3824 15.9826C66.3824 14.3002 66.1451 13.1532 65.7495 12.312C65.3539 11.5473 64.6418 11.0885 63.5341 11.0885C62.5846 11.0885 61.7934 11.4708 61.3187 12.312C60.9231 13.1532 60.6857 14.3002 60.6857 15.9826Z" fill="black"/>
<path d="M82.3649 6.5H75.7979V25.4647H82.3649V6.5Z" fill="black"/>
<path d="M82.3649 0H75.7979V4.28235H82.3649V0Z" fill="black"/>
<path d="M95.736 20.6473C96.6064 20.6473 97.7141 20.4179 98.9009 20.0355V24.8532C98.0305 25.2355 97.1602 25.4649 96.369 25.6179C95.5778 25.7708 94.6283 25.8473 93.5207 25.8473C91.3053 25.8473 89.7229 25.312 88.6943 24.1649C87.7448 23.0944 87.191 21.412 87.191 19.1944V11.3944H84.8965V6.50024H87.191V1.75906L93.8371 0.688477V6.65318H98.1097V11.4708H93.8371V18.812C93.9954 20.112 94.5492 20.6473 95.736 20.6473Z" fill="black"/>
<path d="M111.086 20.6473C111.956 20.6473 113.064 20.4179 114.25 20.0355V24.8532C113.38 25.2355 112.51 25.4649 111.719 25.6179C110.927 25.7708 109.978 25.8473 108.87 25.8473C106.655 25.8473 105.072 25.312 104.044 24.1649C103.094 23.0944 102.541 21.412 102.541 19.1944V11.3944H100.246V6.50024H102.541V1.68259L109.187 0.688477V6.65318H113.459V11.4708H109.187V18.812C109.266 20.112 109.899 20.6473 111.086 20.6473Z" fill="black"/>
<path d="M131.974 8.41198C130.391 6.88257 128.176 6.19434 125.328 6.19434C122.321 6.19434 119.947 7.03551 118.286 8.79434C116.624 10.5532 115.833 13.0002 115.833 16.212C115.833 19.2708 116.703 21.7179 118.444 23.4002C120.264 25.0826 122.717 25.9237 125.881 25.9237C127.464 25.9237 128.73 25.8473 129.837 25.6179C130.866 25.3885 132.053 25.0826 133.002 24.5473L132.053 20.2649C131.341 20.5708 130.549 20.8002 129.917 20.9532C128.967 21.1826 127.859 21.259 126.752 21.259C125.486 21.259 124.457 20.9532 123.745 20.4179C123.033 19.8061 122.637 18.9649 122.637 17.8943H134.426V14.912C134.347 12.0826 133.477 9.94139 131.974 8.41198ZM122.637 13.6885C122.717 12.6943 123.033 11.8532 123.508 11.3943C123.982 10.9355 124.615 10.7061 125.486 10.7061C126.277 10.7061 127.068 10.9355 127.543 11.4708C128.018 12.0061 128.255 12.6943 128.334 13.6885H122.637Z" fill="black"/>
<path d="M39.9561 8.41198C38.2946 6.88257 36.1583 6.19434 33.3099 6.19434C30.3033 6.19434 27.9297 7.03551 26.2682 8.79434C24.6066 10.5532 23.8154 13.0002 23.8154 16.212C23.8154 19.2708 24.6858 21.7179 26.4264 23.4002C28.2462 25.0826 30.6989 25.9237 33.8638 25.9237C35.4462 25.9237 36.7121 25.8473 37.8198 25.6179C38.8484 25.3885 40.0352 25.0826 40.9847 24.5473L40.0352 20.1885C39.3231 20.4943 38.5319 20.7237 37.8989 20.8767C36.9495 21.1061 35.8418 21.1826 34.7341 21.1826C33.4682 21.1826 32.4396 20.8767 31.7275 20.3414C31.0154 19.7296 30.6198 18.8885 30.6198 17.8179H42.4088V14.912C42.3297 12.0826 41.4594 9.94139 39.9561 8.41198ZM30.5407 13.6885C30.6198 12.6943 30.9363 11.8532 31.411 11.3943C31.8858 10.9355 32.5187 10.7061 33.3891 10.7061C34.2594 10.7061 34.9715 10.9355 35.4462 11.4708C35.9209 12.0061 36.1583 12.6943 36.2374 13.6885H30.5407Z" fill="black"/>
</svg>
