<svg width="141" height="20" viewBox="0 0 141 20" fill="none" xmlns="http://www.w3.org/2000/svg">
<path d="M121 9.91812C121.047 3.99249 125.19 -0.0835651 131.087 0.00130065C136.985 0.0861664 140.987 4.15972 141 10.0155C141.015 16.0434 136.895 20.0421 130.739 19.9997C124.889 19.9622 120.954 15.8787 121 9.91812ZM136.518 10.0229C136.453 9.32364 136.342 8.62914 136.185 7.94374C135.525 5.69729 134.022 4.25707 131.611 3.98251C129.394 3.7329 127.596 4.56658 126.408 6.46108C125.033 8.65262 125.197 12.0997 126.772 14.1289C127.212 14.7205 127.785 15.2066 128.447 15.5501C129.109 15.8936 129.842 16.0853 130.592 16.1108C134.045 16.288 136.434 13.812 136.518 10.0229Z" fill="#018752"/>
<path d="M60.2952 12.7822L66 19.7031C64.125 19.7031 62.4973 19.7343 60.8695 19.6692C60.612 19.6692 60.3673 19.2363 60.1535 18.9703C58.6342 17.0181 57.0172 15.1459 55.3089 13.3611V16.3417C55.3089 19.7083 54.4306 20.428 51 19.7891V0.00695392C52.1435 0.00695392 53.2871 -0.0086924 54.4281 0.00695392C56.2721 0.0382465 58.1291 -0.0452017 59.9526 0.168631C63.3008 0.559789 65.5003 2.80764 65.7244 5.81955C65.982 9.12875 64.2718 11.4653 60.8566 12.5031C60.6644 12.5854 60.477 12.6785 60.2952 12.7822ZM55.3656 9.58771C56.7976 9.45472 58.0879 9.47297 59.3061 9.18352C60.5244 8.89406 61.1219 7.92659 61.1708 6.6775C61.2198 5.38667 60.5424 4.4505 59.368 4.16626C58.0802 3.85855 56.7357 3.84812 55.3681 3.7047L55.3656 9.58771Z" fill="#018752"/>
<path d="M42.2952 12.7822L48 19.7031C46.125 19.7031 44.4973 19.7343 42.8695 19.6692C42.612 19.6692 42.3673 19.2363 42.1535 18.9703C40.6342 17.0181 39.0172 15.1459 37.3089 13.3611V16.3417C37.3089 19.7083 36.4306 20.428 33 19.7891V0.00695392C34.1435 0.00695392 35.2871 -0.0086924 36.4281 0.00695392C38.2721 0.0382465 40.1291 -0.0452017 41.9526 0.168631C45.3008 0.559789 47.5003 2.80764 47.7244 5.81955C47.982 9.12875 46.2718 11.4653 42.8566 12.5031C42.6644 12.5854 42.477 12.6785 42.2952 12.7822ZM37.3656 9.58771C38.7976 9.45472 40.0879 9.47298 41.3061 9.18352C42.5244 8.89406 43.1219 7.92659 43.1708 6.6775C43.2198 5.38667 42.5424 4.4505 41.368 4.16626C40.0802 3.85855 38.7357 3.84812 37.3681 3.7047L37.3656 9.58771Z" fill="#018752"/>
<path d="M29.6044 0.193908C29.6044 0.898649 29.6554 1.59291 29.6044 2.27407C29.4977 3.4792 28.7818 4.10797 27.5029 4.10797C25.4523 4.12893 23.4018 4.10797 21.2638 4.10797V7.77314H29.1191C29.1191 9.01757 29.1895 10.1022 29.073 11.1606C29.0414 11.4488 28.4493 11.8627 28.1023 11.8758C26.2871 11.9492 24.4622 11.9099 22.647 11.9099H21.2638V15.824H30V19.9817H26.8453C23.9332 19.9817 21.0211 19.9555 18.1091 20C17.267 20 16.9952 19.7197 17.0001 18.8053C17.034 12.9264 17.0243 7.04482 17.0171 1.16587C17.0171 0.48209 17.0729 -0.00519785 17.9052 4.18512e-05C21.5817 0.0340999 25.2606 0.0157546 28.9371 0.026234C29.1639 0.0598129 29.3873 0.115946 29.6044 0.193908Z" fill="#018752"/>
<path d="M73.4621 4.13507V7.73422H81.9788C81.9788 9.01964 82.0385 10.1818 81.9321 11.3255C81.9087 11.559 81.2676 11.8974 80.8938 11.9026C78.4771 11.9551 76.0579 11.9315 73.5192 11.9315V15.8664H82.9886C82.9886 17.1203 83.0301 18.2405 82.9548 19.3528C82.8977 19.512 82.8015 19.654 82.6753 19.7654C82.5491 19.8769 82.397 19.9543 82.2332 19.9902C77.9528 20.0138 73.6672 19.9902 69.392 19.9666C69.3167 19.9666 69.2414 19.8905 69.0779 19.8066C69.0597 19.4734 69.0208 19.0931 69.0208 18.7127C69.0208 12.9414 69.0441 7.19382 69 1.43571C69 0.386393 69.2077 -0.0202169 70.3394 0.000769351C73.9268 0.0715981 77.5193 0.0558584 81.1066 0.000769351C82.093 -0.0123471 82.485 0.234242 82.4512 1.31241C82.3838 3.47663 81.8101 4.12983 79.6686 4.1377C77.6543 4.14032 75.6322 4.13507 73.4621 4.13507Z" fill="#018752"/>
<path d="M102 19.8885C100.289 19.8885 98.8909 19.9355 97.4854 19.8493C97.1823 19.831 96.823 19.3945 96.625 19.0651C95.5666 17.2667 94.5523 15.437 93.4352 13.4635C92.7386 14.6816 92.0909 15.803 91.4505 16.9296C89.803 19.8257 88.3584 20.4714 85 19.7003C85.6844 18.5345 86.3297 17.4079 86.997 16.3022C88.1189 14.4385 89.2188 12.5591 90.3994 10.7399C90.8883 9.99754 90.7905 9.45647 90.3603 8.75856C88.6493 5.97477 86.9676 3.15961 85.1198 0.0961377C86.8308 0.0961377 88.2973 0.0464749 89.7639 0.137961C90.0474 0.156258 90.353 0.681647 90.5559 1.03452C91.4969 2.65252 92.4037 4.28881 93.4254 6.10023C94.3518 4.45871 95.266 2.99755 96.0213 1.44752C96.5688 0.326163 97.2825 -0.10252 98.4484 0.0203328C99.4433 0.124888 100.458 0.0412484 101.758 0.0412484C100.954 1.38479 100.306 2.46432 99.6559 3.54124C98.5975 5.29516 97.571 7.06999 96.4588 8.78208C95.9944 9.5009 95.97 10.0106 96.4588 10.7503C98.27 13.6465 100.027 16.6159 102 19.8885Z" fill="#018752"/>
<path d="M105 19.9974C105 13.4526 105 7.17033 105.032 0.888071C105.032 0.586166 105.49 0.0296103 105.738 0.026985C108.417 0.026985 111.096 -0.0964008 113.756 0.184502C117.105 0.536288 118.97 2.97778 119 6.54026C119.029 10.2156 117.207 12.5784 113.805 13.0798C112.331 13.2924 110.823 13.2557 109.14 13.3423C109.14 14.7022 109.14 16.0385 109.14 17.3747C109.14 19.4749 108.673 19.979 106.705 20C106.191 19.9974 105.672 19.9974 105 19.9974ZM109.221 3.72073V9.59608C110.439 9.50944 111.613 9.53832 112.733 9.31517C113.294 9.19231 113.797 8.86336 114.158 8.38453C114.519 7.9057 114.714 7.3067 114.711 6.68991C114.741 6.0947 114.571 5.50767 114.232 5.03687C113.893 4.56607 113.407 4.24318 112.864 4.12765C111.715 3.84412 110.504 3.84412 109.221 3.72073Z" fill="#018752"/>
<path d="M3.69743 8.1493C6.02698 8.1493 8.14608 8.20196 10.2603 8.12561C11.2538 8.09138 11.4985 8.47578 11.4838 9.48681C11.4544 12.2882 11.4838 12.2909 8.93646 12.2909C7.50986 12.2909 6.08326 12.3251 4.65665 12.2909C3.90053 12.2645 3.67785 12.5726 3.67785 13.3624C3.71455 15.5425 3.69009 17.7225 3.69009 20H0.107669C0.0758578 19.5866 0.0195765 19.2101 0.0195765 18.8363C0.0195765 13.0123 0.0342581 7.18829 0 1.36431C0 0.371709 0.205549 -0.0153343 1.2235 0.000463106C5.08977 0.0610199 8.95604 0.0241583 12.9544 0.0241583C12.9544 0.993067 13.0744 1.8672 12.9251 2.68866C12.722 3.79975 11.8876 4.15782 10.8892 4.15518C8.85082 4.15518 6.81246 4.18151 4.77166 4.13939C4.0033 4.12359 3.6387 4.34476 3.69253 5.23995C3.74637 6.13513 3.69743 7.04875 3.69743 8.1493Z" fill="#018752"/>
</svg>
