<svg width="77" height="47" viewBox="0 0 77 47" fill="none" xmlns="http://www.w3.org/2000/svg">
<path d="M5.49271 43.8013C5.14343 44.5319 4.86585 45.1964 4.50268 45.8169C4.42653 45.9319 4.32504 46.0298 4.20524 46.1039C4.08543 46.178 3.95015 46.2265 3.80874 46.246C2.74006 46.2922 1.66676 46.246 0.598079 46.2724C0.160893 46.2724 -0.0449781 46.1492 0.00822442 45.7179C0.0174824 45.5566 0.0174824 45.395 0.00822442 45.2338V0H7.25534V17.0026C7.63007 16.8155 7.87989 16.6945 8.12509 16.5625C11.6094 14.7246 15.6784 14.1575 19.5706 14.9672C23.7666 15.7923 26.3805 18.336 27.7291 22.1251C28.918 25.4631 29.0961 28.9178 28.962 32.401C28.8556 35.1867 28.4808 37.9262 27.3219 40.5227C25.5986 44.3778 22.4643 46.4132 18.1526 46.8753C13.5772 47.3638 9.36031 46.433 5.49271 43.8013ZM7.29466 30.8431C7.29466 33.4572 7.30854 36.0713 7.28078 38.6832C7.25827 38.8849 7.30667 39.0881 7.41842 39.2608C7.53016 39.4336 7.69895 39.5663 7.89839 39.6382C9.87351 40.6068 12.0629 41.1137 14.285 41.1168C18.1295 41.1168 20.32 39.5391 21.1389 35.9877C21.4205 34.6288 21.5753 33.2489 21.6015 31.8641C21.6894 29.5537 21.6755 27.2433 20.9747 24.9856C20.2021 22.4816 18.5273 20.9413 15.7469 20.6024C13.0035 20.2636 10.4406 20.8225 7.97704 21.9513C7.47046 22.1845 7.2831 22.4464 7.2831 22.9965C7.31085 25.6106 7.29235 28.2246 7.29466 30.8431Z" fill="#120C0E"/>
<path d="M52.5868 22.4321C51.4215 22.096 50.3357 21.7383 49.2262 21.4716C46.5717 20.7976 43.815 20.6365 41.1013 20.9968C40.5444 21.0826 40.0033 21.2522 39.4961 21.4998C38.7047 21.8614 38.0874 22.5251 37.7793 23.3455C37.4712 24.1659 37.4975 25.0762 37.8522 25.8771C38.1323 26.4663 38.6141 26.9331 39.2085 27.191C40.3149 27.5692 41.4592 27.823 42.6207 27.9476C44.8869 28.2273 47.1381 28.481 49.2841 29.3222C51.825 30.3173 53.4131 32.0887 53.8208 34.8681C54.147 37.0731 54.0826 39.2411 53.1663 41.2986C51.9881 43.9458 49.8077 45.3941 47.1424 46.1811C44.0371 47.0982 40.8545 47.1763 37.6805 46.7535C35.7019 46.489 33.7576 45.9535 31.7983 45.5415C31.3691 45.4505 31.1781 45.225 31.1888 44.7372C31.2232 43.187 31.1888 41.6369 31.2039 40.0867C31.2039 39.9111 31.2318 39.7333 31.2446 39.5837C32.8048 39.9783 34.3156 40.4379 35.8586 40.7328C38.7643 41.29 41.6915 41.4244 44.5843 40.6547C46.7582 40.0758 47.6317 38.6362 47.2625 36.4595C46.9986 34.905 45.8762 34.2589 44.5307 34.0009C42.8932 33.6865 41.2215 33.5673 39.5798 33.2811C38.4681 33.0978 37.3714 32.8318 36.2985 32.4854C32.7189 31.3038 31.1609 29.1683 31.0107 25.3611C30.8197 20.5372 33.1868 17.0596 37.8265 15.8064C42.5477 14.5295 47.299 14.8178 51.9645 16.3268C52.4194 16.4742 52.6083 16.6867 52.5911 17.194C52.5654 18.922 52.5868 20.6499 52.5868 22.4321Z" fill="#120C0E"/>
<path d="M68 41.3273C68 43.0338 68 44.6814 68 46.329C68 46.5058 67.9639 46.6847 67.9417 46.9051C65.2756 47.1233 62.7096 47.0142 60.3184 46.054C57.8162 45.0546 56.6387 43.3088 56.2194 41.2138C56.082 40.5119 56.0124 39.8028 56.0111 39.0926C55.9963 31.59 55.9963 24.0889 56.0111 16.5892C56.0111 16.4081 56.0333 16.227 56.0472 16H64.7785V38.5209C64.7785 38.7959 64.7785 39.073 64.7785 39.348C64.8507 40.5809 65.5783 41.168 67.1613 41.2814C67.3918 41.2967 67.6223 41.3055 68 41.3273Z" fill="#120C0E"/>
<path d="M65 5.47808C65.0047 6.6678 64.537 7.81106 63.6991 8.65826C62.8611 9.50547 61.721 9.98781 60.5275 9.99998C59.9347 10.0017 59.3473 9.88703 58.799 9.66248C58.2506 9.43794 57.752 9.10792 57.3316 8.69129C56.4825 7.84985 56.0035 6.70666 56 5.5132C55.9965 4.31974 56.4688 3.17377 57.3129 2.32739C58.157 1.48102 59.3038 1.00357 60.5011 1.00008C61.0923 0.99659 61.6784 1.10999 62.2253 1.33371C62.7723 1.55743 63.2694 1.88704 63.6877 2.30347C64.1061 2.7199 64.4375 3.21489 64.6627 3.7598C64.888 4.30471 65.0026 4.88873 65 5.47808Z" fill="#120C0E"/>
<path d="M73.036 39C73.8285 39.0071 74.6011 39.2496 75.2557 39.6965C75.9102 40.1435 76.4172 40.7749 76.7124 41.5105C77.0075 42.2461 77.0774 43.0528 76.9133 43.8282C76.7492 44.6037 76.3584 45.3129 75.7905 45.8658C75.2226 46.4188 74.5033 46.7905 73.7238 46.934C72.9443 47.0774 72.1397 46.986 71.4122 46.6714C70.6848 46.3567 70.0671 45.8331 69.6378 45.1669C69.2084 44.5006 68.9866 43.7218 69.0006 42.9294C69.0273 41.8773 69.4643 40.8773 70.2183 40.1431C70.9723 39.4089 71.9836 38.9986 73.036 39Z" fill="#FF2B1F"/>
</svg>
