<svg width="119" height="59" viewBox="0 0 119 59" fill="none" xmlns="http://www.w3.org/2000/svg">
<path d="M119.02 59H0V29.5H119.02V59Z" fill="#DCE223"/>
<path d="M119.02 29.5H0V0H119.02V29.5Z" fill="#00503C"/>
<path fill-rule="evenodd" clip-rule="evenodd" d="M24.3307 14.7399C24.3307 17.5932 22.7046 19.8999 19.3853 19.8999C16.0592 19.8999 14.4331 17.5932 14.4331 14.7399C14.4331 11.8866 16.0592 9.57324 19.3853 9.57324C22.7046 9.57324 24.3307 11.8866 24.3307 14.7399ZM22.2141 14.7399C22.2141 12.2666 21.3339 10.1666 19.3517 10.1666C17.3695 10.1666 16.5497 12.2666 16.5497 14.7399C16.5497 17.2066 17.4031 19.3266 19.3853 19.3266C21.3675 19.3266 22.2141 17.2066 22.2141 14.7399Z" fill="white"/>
<path d="M40.1613 18.9728L39.6372 22.1928H38.7704V19.6662H26.9175V11.0995C26.9175 10.6795 26.4807 10.2528 26.0439 10.2528V9.82617H27.6969C28.3487 9.82617 28.8795 10.4595 28.8795 11.0995V18.9595H31.8696L31.8764 9.82617H33.825V18.9728H36.7748L36.7815 9.82617H38.7234V18.9728H40.1613Z" fill="white"/>
<path fill-rule="evenodd" clip-rule="evenodd" d="M50.9056 19.1462V19.6662H49.723C48.9301 19.6662 48.6211 19.3595 48.3926 18.8862L47.6064 17.1528H43.427L42.2914 19.6662H41.2163L45.772 9.82617H46.7329V9.83284C48.789 15.2128 50.0388 18.2128 50.489 18.8262C50.6033 18.9862 50.8317 19.1462 50.9056 19.1462ZM47.3242 16.4662L45.7048 11.8928L43.7361 16.4662H47.3242Z" fill="white"/>
<path fill-rule="evenodd" clip-rule="evenodd" d="M82.4061 19.1462V19.6662H81.2235C80.4306 19.6662 80.1215 19.3595 79.8931 18.8862L79.1069 17.1528H74.9275L73.7919 19.6662H72.7168L77.2725 9.82617H78.2334V9.83284C80.2895 15.2128 81.5393 18.2128 81.9895 18.8262C82.1038 18.9862 82.3322 19.1462 82.4061 19.1462ZM78.8247 16.4662L77.2053 11.8928L75.2366 16.4662H78.8247Z" fill="white"/>
<path fill-rule="evenodd" clip-rule="evenodd" d="M61.462 22.1935H60.5884V19.6668H53.2509V22.1935H52.3841L51.8667 18.9735H52.4513L56.6778 9.81348L57.6454 9.82681H57.6521C59.2244 13.9935 60.3331 16.7468 60.9849 18.0801C61.2469 18.6335 61.677 19.0401 61.9793 19.0401L61.462 22.1935ZM53.5197 19.0401H59.7821C59.3991 18.8935 59.1035 18.5801 58.8683 18.0068L56.6643 11.9868L56.6307 11.9935L53.5197 19.0401Z" fill="white"/>
<path fill-rule="evenodd" clip-rule="evenodd" d="M71.2389 16.9462C71.2389 18.1728 70.5535 19.6662 67.7381 19.6662H63.6393V11.1062C63.6393 10.6795 63.2092 10.2595 62.7725 10.2595V9.82617H70.9432L70.3317 13.0262H69.5254L69.5187 10.5195H65.6013V14.4195H67.7381C70.5535 14.4195 71.2389 15.6328 71.2389 16.9462ZM69.3104 16.8995C69.3104 16.0462 68.8804 15.1128 67.3685 15.1128H65.6013V19.0195H67.3483C68.8602 19.0195 69.3104 17.6928 69.3104 16.8995Z" fill="white"/>
<path d="M92.4449 9.82617V19.6662H90.4425V15.1128H86.6326V19.6662H84.5899V11.0995C84.5899 10.6795 84.1599 10.2528 83.7231 10.2528V9.82617H85.3224C85.9741 9.82617 86.6326 10.4662 86.6326 11.1128V14.4195H90.4425V9.82617H92.4449Z" fill="white"/>
<path d="M104.587 19.2603L104.58 19.807H103.794C102.907 19.807 102.033 19.607 101.281 18.747C99.6481 16.747 98.6805 15.5536 98.3781 15.167H97.8137V19.667H95.9054C95.9054 15.3803 95.9054 12.527 95.9054 11.1003C95.9054 10.6803 95.4955 10.2536 95.0386 10.2536V9.82698H96.5034C97.1552 9.82698 97.8137 10.467 97.8137 11.1136V14.4003H98.4722L102.551 9.82031H103.841L99.7757 14.4003V14.4803C101.509 16.4003 102.692 17.6803 103.317 18.3203C103.875 18.887 104.358 19.2603 104.587 19.2603Z" fill="white"/>
<path d="M34.9406 46.7733C34.5173 46.9933 33.9529 47.18 33.1869 47.18C31.9505 47.18 31.198 46.76 30.5999 46.2067C29.7869 45.4267 29.4644 44.5533 29.4644 43.52C29.4644 42.2467 29.9952 41.3333 30.5999 40.7733C31.3122 40.1067 32.1924 39.8467 33.2003 39.8467C33.6976 39.8467 34.2956 39.9333 34.9406 40.28V41.88C34.2956 41.14 33.4893 41.0867 33.2339 41.0867C31.8094 41.0867 30.8889 42.2467 30.8889 43.54C30.8889 45.1 32.0983 45.94 33.2877 45.94C33.9462 45.94 34.524 45.6533 34.9406 45.1733V46.7733Z" fill="black"/>
<path d="M37.2722 40.0068H38.2734L40.1481 44.4668L42.1101 40.0068H43.1113L44.2939 47.0268H42.8963L42.258 42.7002L40.3631 47.0268H39.8927L38.0785 42.7002L37.3595 47.0268H35.9619L37.2722 40.0068Z" fill="black"/>
<path d="M47.0357 40.0068V47.0268H45.6582V40.0068H47.0357Z" fill="black"/>
<path d="M54.2456 40.0068V47.0268H52.8681V41.1802H50.812V44.3002C50.812 45.0268 50.8321 45.9802 50.0459 46.6268C49.7705 46.8535 49.327 47.0868 48.6349 47.0868C48.4333 47.0868 48.2452 47.0668 48.0503 47.0268V45.8468C48.1578 45.8802 48.2989 45.9068 48.4467 45.9068C48.7625 45.9068 48.9641 45.7735 49.0851 45.6535C49.4412 45.3002 49.4345 44.6868 49.4345 44.0268V40.0068H54.2456Z" fill="black"/>
<path d="M57.3428 40.0068V44.6802L61.2266 40.0068H62.2076V47.0268H60.8234V42.3335L56.9464 47.0268H55.9653V40.0068H57.3428Z" fill="black"/>
<path fill-rule="evenodd" clip-rule="evenodd" d="M65.6751 40.0068C66.0649 40.0068 66.8309 40.0068 67.402 40.4468C67.8186 40.7602 68.0605 41.3068 68.0605 41.9002C68.0605 42.8068 67.4558 43.1735 67.2676 43.2802C67.7313 43.3535 68.0068 43.5535 68.1882 43.7202C68.6115 44.1202 68.6989 44.6668 68.6989 45.0335C68.6989 45.4468 68.5846 46.0268 68.0941 46.4535C67.5633 46.9202 66.9182 47.0268 66.3 47.0268H63.9214V40.0068H65.6751ZM65.3056 42.9202H65.702C65.9103 42.9202 66.7704 42.9002 66.7704 42.0068C66.7704 41.3602 66.2732 41.1202 65.7087 41.1202H65.3056V42.9202ZM65.3056 45.9068H65.9036C66.1522 45.9068 66.5352 45.9002 66.8443 45.7202C67.187 45.5202 67.2811 45.1802 67.2811 44.9068C67.2811 44.6868 67.2072 44.3068 66.757 44.1068C66.4613 43.9735 66.1119 43.9735 65.8162 43.9735H65.3056V45.9068Z" fill="black"/>
<path d="M71.4536 40.0068V47.0268H70.0762V40.0068H71.4536Z" fill="black"/>
<path d="M78.3075 46.7733C77.8841 46.9933 77.3197 47.18 76.5604 47.18C75.3173 47.18 74.5648 46.76 73.9735 46.2067C73.1537 45.4267 72.8379 44.5533 72.8379 43.52C72.8379 42.2467 73.3687 41.3333 73.9735 40.7733C74.679 40.1067 75.5592 39.8467 76.5671 39.8467C77.0711 39.8467 77.6624 39.9333 78.3075 40.28V41.88C77.6624 41.14 76.8561 41.0867 76.6007 41.0867C75.1829 41.0867 74.2557 42.2467 74.2557 43.54C74.2557 45.1 75.4652 45.94 76.6545 45.94C77.313 45.94 77.8976 45.6533 78.3075 45.1733V46.7733Z" fill="black"/>
<path d="M82.2585 41.1802V47.0268H80.8743V41.1802H79.2886V40.0068H83.8443V41.1802H82.2585Z" fill="black"/>
<path fill-rule="evenodd" clip-rule="evenodd" d="M84.8252 40.0068H86.2027V42.7535H87.3046C87.8288 42.7535 88.494 42.8268 89.045 43.3335C89.4414 43.6868 89.7035 44.2268 89.7035 44.9002C89.7035 45.3735 89.5556 45.8268 89.3205 46.1602C88.7896 46.9268 87.9094 47.0268 87.3181 47.0268H84.8252V40.0068ZM86.2027 45.8468H87.009C87.2509 45.8468 88.279 45.8468 88.279 44.9002C88.279 44.4602 88.0505 43.9335 87.0291 43.9335H86.2027V45.8468Z" fill="black"/>
</svg>
